if (_typeface_js && _typeface_js.loadFace) _typeface_js.loadFace({"glyphs":{"0":{"ha":987,"x_min":76,"x_max":911,"o":"m 911 505 q 888 277 911 378 q 817 112 865 176 q 688 13 766 46 q 494 -21 609 -21 q 300 13 380 -21 q 171 113 220 47 q 98 278 121 180 q 76 505 76 377 q 99 733 76 636 q 172 897 122 830 q 302 997 222 964 q 494 1030 382 1030 q 688 996 610 1030 q 817 894 767 962 q 889 730 867 827 q 911 505 911 633 m 649 505 q 613 766 649 688 q 494 844 577 844 q 374 766 410 844 q 338 504 338 688 q 375 245 338 324 q 494 165 412 165 q 612 245 576 165 q 649 505 649 324 z "},"1":{"ha":987,"x_min":180,"x_max":854,"o":"m 854 0 l 180 0 l 180 176 l 393 176 l 393 710 l 180 710 l 180 875 q 274 881 229 875 q 349 901 319 886 q 401 945 384 918 q 422 1013 419 972 l 646 1013 l 646 176 l 854 176 l 854 0 z "},"2":{"ha":987,"x_min":125,"x_max":918,"o":"m 918 0 l 125 0 l 125 167 q 308 307 216 233 q 454 434 399 380 q 570 572 536 513 q 605 689 605 631 q 561 796 605 758 q 433 833 516 833 q 301 808 370 833 q 174 742 233 782 l 152 742 l 152 966 q 294 1008 200 987 q 482 1029 388 1029 q 772 950 672 1029 q 871 724 871 870 q 824 543 871 629 q 677 365 776 456 q 553 260 616 308 q 465 193 491 212 l 918 193 l 918 0 z "},"3":{"ha":987,"x_min":95,"x_max":892,"o":"m 819 473 q 872 407 852 445 q 892 306 892 369 q 864 173 892 235 q 777 67 836 111 q 643 2 720 24 q 456 -21 566 -21 q 241 -1 331 -21 q 95 43 151 18 l 95 264 l 121 264 q 261 203 180 229 q 409 178 342 178 q 494 184 448 178 q 572 212 541 191 q 612 253 597 229 q 627 323 627 277 q 607 391 627 367 q 553 425 587 415 q 473 437 520 436 q 387 438 427 438 l 331 438 l 331 618 l 389 618 q 482 622 441 618 q 551 637 523 625 q 596 672 581 650 q 611 734 611 693 q 595 784 611 765 q 556 813 580 802 q 494 829 530 825 q 432 833 458 833 q 294 811 368 833 q 149 748 219 789 l 124 748 l 124 967 q 275 1010 180 989 q 469 1031 371 1031 q 637 1014 565 1031 q 755 970 709 998 q 838 889 811 937 q 865 778 865 842 q 813 628 865 694 q 675 543 761 562 l 675 534 q 749 515 710 529 q 819 473 787 500 z "},"4":{"ha":987,"x_min":57,"x_max":932,"o":"m 932 233 l 795 233 l 795 -3 l 546 -3 l 546 233 l 57 233 l 57 424 l 530 1010 l 795 1010 l 795 417 l 932 417 l 932 233 m 546 417 l 546 782 l 252 417 l 546 417 z "},"5":{"ha":987,"x_min":111,"x_max":897,"o":"m 897 342 q 867 196 897 263 q 781 80 838 128 q 638 4 719 28 q 453 -21 557 -21 q 248 -2 332 -20 q 111 40 164 17 l 111 263 l 140 263 q 273 202 201 227 q 414 178 344 178 q 507 188 457 178 q 586 223 557 197 q 621 266 609 244 q 633 333 633 288 q 617 394 633 368 q 576 435 601 419 q 488 464 539 457 q 394 471 436 471 q 277 461 333 471 q 179 440 221 450 l 149 440 l 149 1010 l 867 1010 l 867 817 l 394 817 l 394 652 q 447 654 415 653 q 504 655 479 655 q 653 639 587 655 q 766 595 718 623 q 862 496 827 557 q 897 342 897 435 z "},"6":{"ha":987,"x_min":91,"x_max":917,"o":"m 917 344 q 888 197 917 266 q 808 82 860 129 q 681 5 753 32 q 512 -21 609 -21 q 346 4 421 -21 q 218 79 271 28 q 123 230 156 138 q 91 450 91 322 q 121 686 91 583 q 221 869 152 789 q 394 987 288 945 q 646 1029 500 1029 q 755 1022 696 1029 q 831 1012 814 1015 l 831 813 l 806 813 q 744 833 787 822 q 644 844 700 844 q 441 781 514 844 q 354 603 369 717 q 464 653 406 634 q 589 673 522 673 q 699 659 648 673 q 793 616 749 646 q 883 510 849 576 q 917 344 917 444 m 608 191 q 642 246 629 214 q 654 332 654 277 q 640 413 654 381 q 601 463 626 444 q 543 489 576 482 q 475 496 510 496 q 412 490 445 496 q 353 473 380 483 q 352 450 353 466 q 351 411 351 435 q 368 274 351 328 q 412 191 385 220 q 457 160 431 170 q 513 151 483 151 q 562 161 535 151 q 608 191 589 171 z "},"7":{"ha":987,"x_min":106,"x_max":897,"o":"m 897 809 l 440 0 l 150 0 l 625 817 l 106 817 l 106 1010 l 897 1010 l 897 809 z "},"8":{"ha":987,"x_min":67,"x_max":920,"o":"m 920 282 q 806 62 920 148 q 492 -23 692 -23 q 300 0 380 -23 q 168 64 220 23 q 92 157 117 104 q 67 273 67 211 q 112 407 67 349 q 265 510 156 466 l 265 514 q 136 616 177 555 q 94 760 94 678 q 205 956 94 880 q 495 1033 317 1033 q 788 963 682 1033 q 895 778 895 894 q 850 650 895 706 q 713 554 805 593 l 713 550 q 869 442 819 510 q 920 282 920 374 m 640 749 q 601 831 640 800 q 495 861 561 861 q 445 855 471 861 q 399 838 420 849 q 366 807 379 826 q 353 765 353 789 q 376 703 353 725 q 450 658 399 680 q 502 638 469 650 q 582 611 535 626 q 627 677 613 648 q 640 749 640 706 m 661 271 q 637 345 661 319 q 536 402 612 370 q 471 427 514 412 q 399 453 429 442 q 347 389 370 427 q 323 304 323 351 q 374 192 323 234 q 506 151 425 151 q 557 157 528 151 q 607 177 586 163 q 646 214 631 193 q 661 271 661 235 z "},"9":{"ha":987,"x_min":71,"x_max":897,"o":"m 897 562 q 864 326 897 435 q 765 142 831 216 q 587 21 693 61 q 338 -20 480 -20 q 230 -14 288 -20 q 153 -3 172 -7 l 153 196 l 180 196 q 238 176 201 186 q 341 165 276 165 q 445 178 394 165 q 532 220 496 191 q 598 296 572 250 q 633 406 624 342 q 523 354 574 372 q 397 336 473 336 q 289 350 340 336 q 194 393 237 364 q 104 499 138 433 q 71 664 71 564 q 183 928 71 826 q 479 1030 296 1030 q 647 1005 574 1030 q 772 930 720 981 q 865 781 834 871 q 897 562 897 691 m 637 600 q 621 735 637 682 q 577 818 605 789 q 532 849 557 840 q 477 859 506 859 q 427 849 451 859 q 380 818 403 840 q 346 761 359 796 q 333 677 333 726 q 347 597 333 629 q 387 546 361 565 q 443 520 410 528 q 513 513 475 513 q 579 520 543 513 q 635 536 615 528 q 636 558 635 544 q 637 600 637 572 z "}," ":{"ha":475,"x_min":0,"x_max":0,"o":""},"!":{"ha":559,"x_min":138,"x_max":421,"o":"m 421 1010 l 390 291 l 169 291 l 138 1010 l 421 1010 m 416 0 l 142 0 l 142 179 l 416 179 l 416 0 z "},"\"":{"ha":816,"x_min":113,"x_max":703,"o":"m 703 1055 l 662 656 l 509 656 l 468 1055 l 703 1055 m 348 1055 l 307 656 l 154 656 l 113 1055 l 348 1055 z "},"#":{"ha":1204,"x_min":101,"x_max":1101,"o":"m 1101 614 l 887 614 l 834 403 l 1025 403 l 1025 240 l 793 240 l 732 0 l 568 0 l 629 240 l 450 240 l 389 0 l 223 0 l 284 240 l 101 240 l 101 403 l 325 403 l 377 614 l 178 614 l 178 776 l 418 776 l 476 1010 l 642 1010 l 584 776 l 762 776 l 821 1010 l 987 1010 l 928 776 l 1101 776 l 1101 614 m 724 615 l 543 615 l 488 401 l 671 401 l 724 615 z "},"$":{"ha":987,"x_min":91,"x_max":909,"o":"m 909 291 q 812 94 909 176 q 557 1 716 12 l 557 -245 l 439 -245 l 439 -3 q 263 16 363 -2 q 107 60 163 33 l 107 258 l 138 258 q 281 203 200 224 q 442 177 362 183 l 442 363 l 376 378 q 261 411 314 392 q 171 461 209 430 q 112 538 133 492 q 91 651 91 584 q 183 824 91 752 q 439 911 275 896 l 439 1069 l 557 1069 l 557 912 q 703 895 619 909 q 835 860 787 880 l 835 665 l 805 665 q 693 711 757 692 q 557 734 629 729 l 557 562 l 611 551 q 837 460 764 521 q 909 291 909 399 m 450 576 l 450 734 q 369 711 405 730 q 334 656 334 692 q 357 607 334 625 q 450 576 380 589 m 663 264 q 626 323 663 304 q 554 348 590 342 l 554 180 q 631 206 599 186 q 663 264 663 226 z "},"%":{"ha":1767,"x_min":97,"x_max":1670,"o":"m 711 703 q 633 452 711 534 q 406 371 555 371 q 175 453 252 371 q 97 700 97 536 q 176 948 97 867 q 406 1029 256 1029 q 635 948 558 1029 q 711 703 711 867 m 1240 1010 l 711 0 l 529 0 l 1058 1010 l 1240 1010 m 1670 311 q 1592 60 1670 142 q 1364 -21 1514 -21 q 1133 61 1211 -21 q 1055 308 1055 144 q 1135 556 1055 475 q 1364 637 1214 637 q 1593 556 1516 637 q 1670 311 1670 475 m 511 701 q 486 847 511 809 q 404 885 461 885 q 322 847 347 885 q 297 700 297 809 q 322 553 297 591 q 404 515 347 515 q 486 553 461 515 q 511 701 511 591 m 1470 309 q 1444 455 1470 417 q 1362 493 1419 493 q 1280 455 1305 493 q 1255 308 1255 417 q 1280 161 1255 199 q 1362 123 1305 123 q 1444 161 1419 123 q 1470 309 1470 199 z "},"&":{"ha":1198,"x_min":82,"x_max":1222,"o":"m 1222 0 l 899 0 l 805 85 q 655 5 737 32 q 483 -21 574 -21 q 189 65 296 -21 q 82 291 82 152 q 99 391 82 349 q 144 468 116 434 q 205 525 170 501 q 271 566 239 549 q 216 610 242 587 q 172 660 191 633 q 143 718 153 686 q 133 789 133 749 q 153 879 133 837 q 214 954 174 920 q 327 1009 256 988 q 496 1031 398 1031 q 642 1015 578 1031 q 751 968 707 998 q 814 900 792 940 q 836 812 836 859 q 827 744 836 781 q 793 673 818 707 q 724 608 767 638 q 605 553 680 577 l 812 371 l 812 589 l 1065 589 l 1065 514 q 1038 361 1065 434 q 964 239 1011 288 l 1222 14 l 1222 0 m 583 783 q 572 839 583 818 q 546 870 562 859 q 512 884 530 881 q 484 886 494 886 q 457 884 472 886 q 425 869 443 881 q 400 841 411 860 q 389 792 389 823 q 422 715 389 752 q 507 638 454 677 q 564 704 545 668 q 583 783 583 741 m 686 200 l 396 457 q 365 409 382 444 q 347 331 347 374 q 365 253 347 286 q 408 199 382 220 q 469 166 435 177 q 534 155 502 155 q 615 164 580 155 q 686 200 651 174 z "},"'":{"ha":461,"x_min":113,"x_max":348,"o":"m 348 1055 l 307 656 l 154 656 l 113 1055 l 348 1055 z "},"(":{"ha":755,"x_min":131,"x_max":642,"o":"m 642 -279 l 387 -279 q 194 35 256 -127 q 131 388 131 196 q 194 741 131 580 q 387 1055 256 903 l 642 1055 l 642 1036 q 537 923 587 986 q 445 777 488 861 q 379 597 404 696 q 353 388 353 499 q 378 178 353 272 q 445 -1 403 83 q 537 -146 486 -81 q 642 -260 588 -212 l 642 -279 z "},")":{"ha":755,"x_min":113,"x_max":624,"o":"m 624 388 q 561 35 624 196 q 368 -279 498 -127 l 113 -279 l 113 -260 q 218 -146 167 -212 q 310 -1 270 -81 q 377 178 352 83 q 401 388 401 272 q 376 597 401 499 q 310 777 351 696 q 217 923 267 861 q 113 1036 168 986 l 113 1055 l 368 1055 q 561 741 498 903 q 624 388 624 580 z "},"*":{"ha":987,"x_min":138,"x_max":849,"o":"m 849 567 l 774 455 l 557 603 l 564 362 l 420 362 l 425 597 l 212 454 l 138 567 l 379 709 l 139 852 l 212 965 l 425 821 l 420 1055 l 564 1055 l 558 820 l 773 963 l 848 850 l 606 709 l 849 567 z "},"+":{"ha":1204,"x_min":148,"x_max":1057,"o":"m 1057 358 l 695 358 l 695 0 l 509 0 l 509 358 l 148 358 l 148 540 l 509 540 l 509 898 l 695 898 l 695 540 l 1057 540 l 1057 358 z "},",":{"ha":502,"x_min":24,"x_max":419,"o":"m 419 267 l 175 -251 l 24 -251 l 157 267 l 419 267 z "},"-":{"ha":667,"x_min":75,"x_max":592,"o":"m 592 351 l 75 351 l 75 547 l 592 547 l 592 351 z "},".":{"ha":502,"x_min":124,"x_max":378,"o":"m 378 0 l 124 0 l 124 267 l 378 267 l 378 0 z "},"/":{"ha":958,"x_min":83,"x_max":829,"o":"m 829 1055 l 292 -220 l 83 -220 l 619 1055 l 829 1055 z "},":":{"ha":559,"x_min":153,"x_max":406,"o":"m 406 495 l 153 495 l 153 762 l 406 762 l 406 495 m 406 0 l 153 0 l 153 267 l 406 267 l 406 0 z "},";":{"ha":559,"x_min":52,"x_max":448,"o":"m 406 495 l 153 495 l 153 762 l 406 762 l 406 495 m 448 267 l 203 -251 l 52 -251 l 186 267 l 448 267 z "},"<":{"ha":1204,"x_min":138,"x_max":1044,"o":"m 1044 -5 l 138 372 l 138 526 l 1044 903 l 1044 708 l 410 448 l 1044 190 l 1044 -5 z "},"=":{"ha":1204,"x_min":169,"x_max":1036,"o":"m 1036 536 l 169 536 l 169 718 l 1036 718 l 1036 536 m 1036 180 l 169 180 l 169 361 l 1036 361 l 1036 180 z "},">":{"ha":1204,"x_min":160,"x_max":1066,"o":"m 1066 372 l 160 -5 l 160 190 l 794 449 l 160 708 l 160 903 l 1066 526 l 1066 372 z "},"?":{"ha":857,"x_min":100,"x_max":781,"o":"m 781 763 q 761 642 781 694 q 704 551 741 589 q 616 481 667 512 q 500 426 565 451 l 500 271 l 262 271 l 262 500 q 349 526 310 513 q 431 570 388 540 q 493 633 471 597 q 516 715 516 669 q 472 811 516 783 q 349 840 429 840 q 239 819 300 840 q 127 765 178 798 l 100 765 l 100 972 q 233 1010 143 990 q 416 1030 323 1030 q 682 956 584 1030 q 781 763 781 882 m 519 0 l 245 0 l 245 179 l 519 179 l 519 0 z "},"@":{"ha":1339,"x_min":98,"x_max":1240,"o":"m 1078 869 q 1197 687 1154 793 q 1240 450 1240 581 q 1213 257 1240 355 q 1145 94 1185 159 l 802 94 l 791 147 q 716 106 752 121 q 612 91 680 91 q 433 182 502 91 q 365 428 365 273 q 388 573 365 511 q 451 681 411 635 q 541 749 488 724 q 646 773 594 773 q 726 756 691 773 q 779 722 760 740 l 779 764 l 937 764 l 937 210 l 1052 210 q 1088 327 1076 264 q 1100 447 1100 389 q 1068 648 1100 562 q 980 791 1036 734 q 845 878 922 850 q 677 907 768 907 q 514 873 591 907 q 377 781 436 839 q 279 633 317 722 q 241 439 241 545 q 277 235 241 323 q 372 87 313 146 q 509 -2 431 28 q 673 -33 587 -33 q 805 -22 731 -33 q 935 5 878 -12 l 935 -126 q 810 -148 872 -140 q 673 -155 747 -155 q 444 -113 549 -155 q 261 9 338 -70 q 141 197 184 87 q 98 439 98 308 q 143 672 98 565 q 267 860 188 780 q 450 984 343 939 q 677 1029 557 1029 q 900 987 796 1029 q 1078 869 1003 945 m 776 274 l 776 616 q 724 636 748 630 q 671 643 701 643 q 570 586 606 643 q 535 430 535 529 q 564 271 535 323 q 661 220 593 220 q 722 234 696 220 q 776 274 749 248 z "},"A":{"ha":1078,"x_min":16,"x_max":1062,"o":"m 1062 0 l 793 0 l 723 204 l 349 204 l 279 0 l 16 0 l 389 1010 l 689 1010 l 1062 0 m 660 389 l 536 751 l 412 389 l 660 389 z "},"B":{"ha":1058,"x_min":129,"x_max":993,"o":"m 993 309 q 963 178 993 236 q 882 83 934 121 q 751 19 823 38 q 570 0 680 0 l 129 0 l 129 1010 l 521 1010 q 700 1002 643 1010 q 812 966 756 994 q 898 887 869 937 q 926 775 926 838 q 887 646 926 702 q 778 559 848 590 l 778 553 q 935 472 877 534 q 993 309 993 410 m 659 724 q 647 774 659 749 q 602 812 634 800 q 531 824 574 823 q 412 825 489 825 l 388 825 l 388 611 l 429 611 q 534 613 490 611 q 602 627 577 615 q 648 667 637 642 q 659 724 659 692 m 723 313 q 704 388 723 361 q 641 427 686 414 q 557 436 610 435 q 445 437 503 437 l 388 437 l 388 185 l 407 185 q 564 186 517 185 q 652 203 612 186 q 708 249 692 220 q 723 313 723 277 z "},"C":{"ha":1005,"x_min":70,"x_max":943,"o":"m 585 -20 q 377 14 473 -20 q 214 113 282 47 q 107 277 145 178 q 70 504 70 375 q 106 722 70 624 q 210 889 142 819 q 373 993 276 956 q 586 1029 471 1029 q 701 1022 650 1029 q 795 1004 752 1015 q 878 975 841 991 q 943 945 915 959 l 943 701 l 913 701 q 865 739 894 717 q 800 783 836 762 q 719 820 762 805 q 626 835 675 835 q 522 818 571 835 q 430 760 472 800 q 365 658 390 722 q 340 503 340 594 q 367 345 340 408 q 435 244 394 281 q 527 191 476 207 q 627 175 578 175 q 721 189 675 175 q 807 228 768 203 q 869 270 840 248 q 916 309 897 292 l 943 309 l 943 67 q 870 35 905 50 q 798 9 836 20 q 705 -12 748 -5 q 585 -20 661 -20 z "},"D":{"ha":1153,"x_min":129,"x_max":1083,"o":"m 1083 504 q 1019 251 1083 363 q 856 80 954 140 q 694 18 782 35 q 485 0 606 0 l 129 0 l 129 1010 l 495 1010 q 708 989 618 1010 q 859 930 798 968 q 1023 759 963 867 q 1083 504 1083 650 m 814 506 q 778 676 814 606 q 663 787 741 747 q 581 814 623 807 q 455 821 539 821 l 389 821 l 389 189 l 455 189 q 591 198 548 189 q 676 229 635 206 q 781 337 747 269 q 814 506 814 406 z "},"E":{"ha":949,"x_min":129,"x_max":859,"o":"m 859 0 l 129 0 l 129 1010 l 859 1010 l 859 814 l 388 814 l 388 640 l 825 640 l 825 445 l 388 445 l 388 195 l 859 195 l 859 0 z "},"F":{"ha":903,"x_min":129,"x_max":852,"o":"m 852 814 l 388 814 l 388 627 l 819 627 l 819 431 l 388 431 l 388 0 l 129 0 l 129 1010 l 852 1010 l 852 814 z "},"G":{"ha":1126,"x_min":70,"x_max":1022,"o":"m 1022 58 q 842 5 954 31 q 619 -21 730 -21 q 216 119 361 -21 q 70 506 70 259 q 217 885 70 741 q 627 1029 364 1029 q 817 1011 727 1029 q 1018 940 907 994 l 1018 703 l 989 703 q 933 744 970 718 q 863 788 897 770 q 771 825 823 810 q 659 841 718 841 q 534 821 590 841 q 433 758 477 800 q 365 655 390 718 q 340 510 340 592 q 429 254 340 342 q 692 165 518 165 q 725 165 707 165 q 758 168 743 166 l 758 366 l 556 366 l 556 556 l 1022 556 l 1022 58 z "},"H":{"ha":1163,"x_min":129,"x_max":1034,"o":"m 1034 0 l 774 0 l 774 445 l 389 445 l 389 0 l 129 0 l 129 1010 l 389 1010 l 389 640 l 774 640 l 774 1010 l 1034 1010 l 1034 0 z "},"I":{"ha":758,"x_min":83,"x_max":675,"o":"m 675 0 l 83 0 l 83 179 l 249 179 l 249 831 l 83 831 l 83 1010 l 675 1010 l 675 831 l 509 831 l 509 179 l 675 179 l 675 0 z "},"J":{"ha":771,"x_min":28,"x_max":655,"o":"m 655 296 q 631 172 655 230 q 561 74 608 114 q 441 8 511 31 q 269 -16 372 -16 q 137 -11 199 -16 q 28 4 75 -5 l 28 209 l 53 209 q 121 186 85 197 q 211 176 156 176 q 320 195 282 176 q 375 248 359 214 q 393 320 391 281 q 395 422 395 360 l 395 824 l 163 824 l 163 1010 l 655 1010 l 655 296 z "},"K":{"ha":1071,"x_min":129,"x_max":1072,"o":"m 1072 0 l 752 0 l 450 404 l 389 330 l 389 0 l 129 0 l 129 1010 l 389 1010 l 389 553 l 750 1010 l 1052 1010 l 657 543 l 1072 0 z "},"L":{"ha":885,"x_min":129,"x_max":857,"o":"m 857 0 l 129 0 l 129 1010 l 389 1010 l 389 195 l 857 195 l 857 0 z "},"M":{"ha":1316,"x_min":129,"x_max":1187,"o":"m 1187 0 l 928 0 l 928 676 l 741 237 l 562 237 l 374 676 l 374 0 l 129 0 l 129 1010 l 431 1010 l 659 503 l 885 1010 l 1187 1010 l 1187 0 z "},"N":{"ha":1176,"x_min":129,"x_max":1047,"o":"m 1047 0 l 796 0 l 368 693 l 368 0 l 129 0 l 129 1010 l 440 1010 l 808 431 l 808 1010 l 1047 1010 l 1047 0 z "},"O":{"ha":1181,"x_min":70,"x_max":1111,"o":"m 1111 505 q 972 121 1111 263 q 590 -21 834 -21 q 208 121 347 -21 q 70 505 70 263 q 208 889 70 748 q 590 1031 347 1031 q 972 889 833 1031 q 1111 505 1111 748 m 766 249 q 822 358 804 295 q 840 505 840 420 q 819 660 840 596 q 764 763 798 724 q 685 822 730 804 q 591 840 640 840 q 497 823 541 840 q 417 764 454 805 q 362 660 383 726 q 340 505 340 593 q 361 351 340 414 q 416 248 382 288 q 495 189 450 208 q 591 170 541 170 q 686 189 641 170 q 766 249 732 208 z "},"P":{"ha":1018,"x_min":129,"x_max":962,"o":"m 962 691 q 939 558 962 623 q 871 450 915 494 q 736 359 810 390 q 551 329 662 329 l 389 329 l 389 0 l 129 0 l 129 1010 l 557 1010 q 720 993 654 1010 q 837 943 786 977 q 930 841 898 903 q 962 691 962 779 m 693 685 q 670 759 693 728 q 616 802 647 789 q 537 820 576 818 q 434 821 498 821 l 389 821 l 389 519 l 464 519 q 573 527 530 519 q 646 559 616 535 q 682 611 671 581 q 693 685 693 642 z "},"Q":{"ha":1181,"x_min":70,"x_max":1111,"o":"m 766 249 q 822 358 804 295 q 840 505 840 420 q 819 660 840 596 q 764 763 798 724 q 685 822 730 804 q 591 840 640 840 q 497 823 541 840 q 417 764 454 805 q 362 660 383 726 q 340 505 340 593 q 361 351 340 414 q 416 248 382 288 q 495 189 450 208 q 591 170 541 170 q 686 189 641 170 q 766 249 732 208 m 793 12 q 830 -84 796 -55 q 946 -113 864 -113 q 1012 -104 974 -113 q 1065 -87 1050 -94 l 1090 -87 l 1090 -266 q 1008 -281 1053 -275 q 872 -288 964 -288 q 731 -268 791 -288 q 631 -212 671 -248 q 572 -127 592 -176 q 549 -18 553 -78 q 196 133 323 -5 q 70 505 70 272 q 208 889 70 748 q 590 1031 347 1031 q 972 889 833 1031 q 1111 505 1111 748 q 1029 194 1111 325 q 793 12 948 64 z "},"R":{"ha":1086,"x_min":129,"x_max":1101,"o":"m 695 701 q 680 766 695 739 q 626 808 664 793 q 564 822 600 819 q 482 824 529 824 l 388 824 l 388 552 l 468 552 q 572 558 530 552 q 643 586 614 564 q 683 632 670 607 q 695 701 695 658 m 1101 0 l 783 0 l 508 370 l 388 370 l 388 0 l 129 0 l 129 1010 l 566 1010 q 720 1000 655 1010 q 840 956 784 989 q 931 868 897 922 q 964 732 964 814 q 912 550 964 621 q 764 433 861 479 l 1101 0 z "},"S":{"ha":987,"x_min":74,"x_max":937,"o":"m 937 317 q 811 75 937 168 q 467 -18 684 -18 q 249 4 342 -18 q 74 60 155 26 l 74 302 l 102 302 q 283 203 183 237 q 475 168 383 168 q 538 172 499 168 q 601 186 576 176 q 650 216 631 198 q 669 271 669 235 q 641 328 669 304 q 559 365 613 352 q 438 390 502 378 q 319 420 375 402 q 136 533 192 462 q 80 709 80 604 q 207 939 80 850 q 532 1028 333 1028 q 729 1009 631 1028 q 897 960 826 989 l 897 728 l 869 728 q 720 809 808 777 q 539 842 631 842 q 474 838 507 842 q 412 821 442 833 q 367 790 386 811 q 348 743 348 770 q 378 682 348 703 q 494 643 409 661 q 601 621 549 631 q 711 591 652 610 q 882 487 827 553 q 937 317 937 422 z "},"T":{"ha":947,"x_min":28,"x_max":919,"o":"m 919 814 l 604 814 l 604 0 l 343 0 l 343 814 l 28 814 l 28 1010 l 919 1010 l 919 814 z "},"U":{"ha":1128,"x_min":115,"x_max":1013,"o":"m 1013 366 q 899 79 1013 178 q 564 -21 785 -21 q 228 79 342 -21 q 115 365 115 178 l 115 1010 l 376 1010 l 376 380 q 420 223 376 275 q 564 172 465 172 q 706 221 661 172 q 751 380 751 271 l 751 1010 l 1013 1010 l 1013 366 z "},"V":{"ha":1061,"x_min":16,"x_max":1044,"o":"m 1044 1010 l 676 0 l 385 0 l 16 1010 l 290 1010 l 534 300 l 778 1010 l 1044 1010 z "},"W":{"ha":1567,"x_min":45,"x_max":1522,"o":"m 1522 1010 l 1251 0 l 962 0 l 781 658 l 605 0 l 317 0 l 45 1010 l 317 1010 l 472 315 l 658 1010 l 918 1010 l 1095 315 l 1257 1010 l 1522 1010 z "},"X":{"ha":1061,"x_min":16,"x_max":1044,"o":"m 1044 0 l 743 0 l 526 332 l 304 0 l 16 0 l 374 509 l 24 1010 l 324 1010 l 534 695 l 751 1010 l 1039 1010 l 686 519 l 1044 0 z "},"Y":{"ha":1023,"x_min":6,"x_max":1017,"o":"m 1017 1010 l 645 391 l 645 0 l 385 0 l 385 378 l 6 1010 l 302 1010 l 520 619 l 731 1010 l 1017 1010 z "},"Z":{"ha":961,"x_min":61,"x_max":909,"o":"m 909 0 l 61 0 l 61 189 l 564 814 l 85 814 l 85 1010 l 882 1010 l 882 817 l 380 195 l 909 195 l 909 0 z "},"[":{"ha":755,"x_min":168,"x_max":621,"o":"m 621 -266 l 168 -266 l 168 1055 l 621 1055 l 621 892 l 380 892 l 380 -103 l 621 -103 l 621 -266 z "},"\\":{"ha":958,"x_min":128,"x_max":874,"o":"m 874 -220 l 666 -220 l 128 1055 l 338 1055 l 874 -220 z "},"]":{"ha":755,"x_min":134,"x_max":587,"o":"m 587 -266 l 134 -266 l 134 -103 l 375 -103 l 375 892 l 134 892 l 134 1055 l 587 1055 l 587 -266 z "},"^":{"ha":1204,"x_min":134,"x_max":1072,"o":"m 1072 435 l 854 435 l 591 820 l 349 434 l 134 434 l 507 1010 l 675 1010 l 1072 435 z "},"_":{"ha":987,"x_min":-11,"x_max":998,"o":"m 998 -237 l -11 -237 l -11 -94 l 998 -94 l 998 -237 z "},"`":{"ha":987,"x_min":254,"x_max":659,"o":"m 659 870 l 492 870 l 254 1123 l 254 1137 l 492 1137 l 659 870 z "},"a":{"ha":928,"x_min":58,"x_max":819,"o":"m 576 199 l 576 357 q 469 346 527 353 q 382 330 412 339 q 326 296 345 318 q 307 238 307 274 q 311 199 307 214 q 331 171 315 184 q 368 151 347 157 q 436 144 390 144 q 510 159 473 144 q 576 199 548 174 m 576 81 q 528 45 557 66 q 473 12 498 24 q 398 -13 437 -5 q 313 -20 359 -20 q 132 47 205 -20 q 58 218 58 114 q 96 355 58 302 q 201 438 133 408 q 370 481 269 469 q 578 500 470 494 l 578 505 q 526 592 578 568 q 374 616 475 616 q 245 594 314 616 q 147 562 177 573 l 125 562 l 125 745 q 251 769 163 755 q 425 783 338 783 q 726 719 633 783 q 819 518 819 655 l 819 0 l 576 0 l 576 81 z "},"b":{"ha":971,"x_min":115,"x_max":910,"o":"m 910 391 q 811 98 910 212 q 563 -15 711 -15 q 451 -1 499 -15 q 359 38 403 12 l 349 0 l 115 0 l 115 1055 l 359 1055 l 359 682 q 474 755 416 727 q 610 783 533 783 q 832 679 754 783 q 910 391 910 574 m 659 387 q 624 543 659 488 q 500 598 589 598 q 429 588 466 598 q 359 557 393 577 l 359 175 q 410 162 386 165 q 467 159 433 159 q 611 216 564 159 q 659 387 659 273 z "},"c":{"ha":817,"x_min":60,"x_max":771,"o":"m 512 -20 q 330 3 412 -20 q 186 77 248 27 q 93 201 126 126 q 60 378 60 277 q 95 562 60 484 q 195 690 131 639 q 337 760 256 738 q 505 783 418 783 q 648 766 583 783 q 771 722 714 749 l 771 513 l 736 513 q 702 542 722 526 q 653 574 682 558 q 592 598 625 589 q 515 608 559 608 q 365 546 417 608 q 312 378 312 484 q 366 211 312 268 q 519 154 420 154 q 602 164 565 154 q 663 189 639 175 q 704 218 686 203 q 736 247 722 233 l 771 247 l 771 39 q 651 -4 713 12 q 512 -20 588 -20 z "},"d":{"ha":971,"x_min":61,"x_max":856,"o":"m 856 0 l 612 0 l 612 79 q 494 3 549 28 q 367 -21 439 -21 q 144 86 228 -21 q 61 375 61 193 q 89 547 61 472 q 166 675 117 622 q 278 754 212 726 q 410 783 344 783 q 522 768 478 783 q 612 731 566 753 l 612 1055 l 856 1055 l 856 0 m 612 210 l 612 584 q 557 600 586 595 q 505 604 529 604 q 361 544 409 604 q 313 378 313 484 q 351 215 313 266 q 475 165 390 165 q 546 177 509 165 q 612 210 583 190 z "},"e":{"ha":922,"x_min":60,"x_max":865,"o":"m 865 336 l 307 336 q 375 199 312 246 q 559 151 437 151 q 709 179 637 151 q 824 239 782 207 l 851 239 l 851 43 q 695 -5 768 9 q 533 -20 622 -20 q 182 83 304 -20 q 60 376 60 186 q 175 675 60 565 q 492 785 291 785 q 772 691 678 785 q 865 421 865 597 l 865 336 m 623 479 q 585 594 621 555 q 473 633 549 633 q 357 596 402 633 q 306 479 311 559 l 623 479 z "},"f":{"ha":587,"x_min":29,"x_max":609,"o":"m 609 876 l 591 876 q 548 887 574 881 q 492 893 522 893 q 395 867 420 893 q 370 768 370 842 l 370 762 l 558 762 l 558 596 l 378 596 l 378 0 l 134 0 l 134 596 l 29 596 l 29 762 l 134 762 l 134 783 q 208 992 134 922 q 433 1062 282 1062 q 531 1058 487 1062 q 609 1048 575 1055 l 609 876 z "},"g":{"ha":971,"x_min":61,"x_max":856,"o":"m 856 87 q 825 -93 856 -20 q 740 -208 795 -166 q 607 -268 685 -250 q 432 -287 530 -287 q 276 -277 353 -287 q 142 -254 199 -268 l 142 -64 l 172 -64 q 281 -96 217 -81 q 397 -111 346 -111 q 507 -98 465 -111 q 572 -62 549 -85 q 602 -7 593 -41 q 612 75 612 27 l 612 89 q 514 32 568 53 q 395 11 460 11 q 148 107 235 11 q 61 400 61 203 q 87 563 61 494 q 162 682 114 631 q 272 756 207 730 q 406 783 338 783 q 518 768 468 783 q 610 728 569 753 l 619 762 l 856 762 l 856 87 m 612 240 l 612 585 q 560 599 591 594 q 505 604 530 604 q 361 549 409 604 q 313 395 313 494 q 354 241 313 285 q 475 198 395 198 q 547 210 512 198 q 612 240 583 221 z "},"h":{"ha":989,"x_min":115,"x_max":880,"o":"m 880 0 l 635 0 l 635 378 q 630 470 635 424 q 614 537 625 515 q 574 574 600 562 q 501 585 548 585 q 434 574 468 585 q 359 540 399 564 l 359 0 l 115 0 l 115 1055 l 359 1055 l 359 677 q 485 755 425 728 q 618 783 545 783 q 811 711 741 783 q 880 496 880 639 l 880 0 z "},"i":{"ha":475,"x_min":109,"x_max":366,"o":"m 359 0 l 115 0 l 115 762 l 359 762 l 359 0 m 366 870 l 109 870 l 109 1055 l 366 1055 l 366 870 z "},"j":{"ha":559,"x_min":-39,"x_max":445,"o":"m 445 -14 q 366 -215 445 -142 q 161 -287 286 -287 q 40 -281 95 -287 q -39 -269 -14 -275 l -39 -94 l -20 -94 q 31 -106 0 -101 q 79 -111 61 -111 q 175 -68 149 -111 q 201 70 201 -26 l 201 596 l 56 596 l 56 762 l 445 762 l 445 -14 m 445 870 l 185 870 l 185 1055 l 445 1055 l 445 870 z "},"k":{"ha":932,"x_min":115,"x_max":924,"o":"m 924 0 l 640 0 l 426 332 l 359 251 l 359 0 l 115 0 l 115 1055 l 359 1055 l 359 425 l 623 762 l 904 762 l 630 433 l 924 0 z "},"l":{"ha":475,"x_min":115,"x_max":359,"o":"m 359 0 l 115 0 l 115 1055 l 359 1055 l 359 0 z "},"m":{"ha":1470,"x_min":115,"x_max":1360,"o":"m 860 540 l 860 0 l 614 0 l 614 380 q 612 475 614 436 q 597 538 609 514 q 560 574 585 563 q 490 585 535 585 q 420 571 454 585 q 359 540 387 556 l 359 0 l 115 0 l 115 762 l 359 762 l 359 677 q 480 755 422 727 q 608 783 538 783 q 741 749 683 783 q 831 650 798 715 q 973 747 904 712 q 1109 783 1042 783 q 1296 709 1232 783 q 1360 496 1360 635 l 1360 0 l 1115 0 l 1115 380 q 1113 475 1115 437 q 1098 538 1110 514 q 1061 574 1086 563 q 991 585 1036 585 q 931 575 960 585 q 860 540 902 564 z "},"n":{"ha":989,"x_min":115,"x_max":880,"o":"m 880 0 l 635 0 l 635 378 q 630 470 635 424 q 614 537 625 515 q 574 574 600 562 q 501 585 548 585 q 434 574 468 585 q 359 540 399 564 l 359 0 l 115 0 l 115 762 l 359 762 l 359 677 q 485 755 425 728 q 618 783 545 783 q 811 711 741 783 q 880 496 880 639 l 880 0 z "},"o":{"ha":954,"x_min":60,"x_max":894,"o":"m 894 380 q 784 84 894 193 q 477 -24 675 -24 q 169 84 279 -24 q 60 380 60 193 q 170 677 60 570 q 477 785 280 785 q 785 677 676 785 q 894 380 894 568 m 593 195 q 629 266 617 224 q 641 379 641 307 q 629 492 641 446 q 595 564 616 537 q 543 604 573 592 q 477 615 512 615 q 414 606 441 615 q 361 568 387 596 q 326 495 339 541 q 313 379 313 449 q 324 271 313 317 q 358 197 336 225 q 410 159 380 171 q 479 146 440 146 q 542 158 512 146 q 593 195 572 169 z "},"p":{"ha":971,"x_min":115,"x_max":910,"o":"m 910 391 q 881 220 910 297 q 806 92 852 142 q 695 12 757 39 q 563 -15 633 -15 q 452 -1 498 -15 q 359 38 407 13 l 359 -279 l 115 -279 l 115 762 l 359 762 l 359 682 q 474 755 416 727 q 610 783 533 783 q 831 678 752 783 q 910 391 910 574 m 659 387 q 621 548 659 498 q 500 598 583 598 q 429 588 466 598 q 359 557 393 577 l 359 174 q 412 162 384 165 q 467 159 439 159 q 611 216 564 159 q 659 387 659 273 z "},"q":{"ha":971,"x_min":61,"x_max":856,"o":"m 856 -279 l 612 -279 l 612 75 q 495 3 552 26 q 367 -21 438 -21 q 144 86 227 -21 q 61 375 61 193 q 89 547 61 472 q 166 675 117 622 q 278 754 212 726 q 410 783 344 783 q 518 768 474 783 q 610 728 562 753 l 619 762 l 856 762 l 856 -279 m 612 210 l 612 584 q 557 600 586 595 q 505 604 529 604 q 361 544 409 604 q 313 378 313 484 q 351 215 313 266 q 475 165 390 165 q 546 177 509 165 q 612 210 583 190 z "},"r":{"ha":690,"x_min":115,"x_max":667,"o":"m 667 529 l 646 529 q 595 537 630 534 q 538 540 561 540 q 446 533 486 540 q 359 510 406 526 l 359 0 l 115 0 l 115 762 l 359 762 l 359 650 q 500 742 440 719 q 610 764 559 764 q 639 764 623 764 q 667 762 655 763 l 667 529 z "},"s":{"ha":824,"x_min":64,"x_max":777,"o":"m 777 241 q 671 51 777 123 q 382 -21 566 -21 q 197 -2 280 -21 q 64 40 115 17 l 64 241 l 87 241 q 129 213 105 228 q 197 180 153 197 q 283 153 235 164 q 387 142 332 142 q 493 158 458 142 q 528 205 528 174 q 507 245 528 233 q 430 269 487 258 q 356 282 403 275 q 272 300 310 290 q 118 384 168 327 q 68 527 68 441 q 172 710 68 637 q 456 783 276 783 q 620 765 542 783 q 743 728 699 748 l 743 536 l 722 536 q 598 596 667 573 q 457 620 528 620 q 358 604 398 620 q 317 557 317 587 q 336 516 317 530 q 422 488 354 502 q 502 473 459 480 q 589 455 545 466 q 731 376 685 430 q 777 241 777 322 z "},"t":{"ha":633,"x_min":29,"x_max":602,"o":"m 602 7 q 519 -9 563 -3 q 411 -15 475 -15 q 199 43 269 -15 q 130 240 130 100 l 130 596 l 29 596 l 29 762 l 130 762 l 130 979 l 374 979 l 374 762 l 602 762 l 602 596 l 374 596 l 374 326 q 374 256 374 286 q 385 203 375 227 q 419 165 395 179 q 489 151 443 151 q 539 159 508 151 q 582 174 570 168 l 602 174 l 602 7 z "},"u":{"ha":989,"x_min":109,"x_max":874,"o":"m 874 0 l 630 0 l 630 84 q 506 6 562 33 q 372 -21 450 -21 q 177 52 245 -21 q 109 266 109 124 l 109 762 l 355 762 l 355 384 q 358 288 355 326 q 376 224 362 250 q 415 188 389 199 q 488 176 441 176 q 557 188 519 176 q 630 222 595 199 l 630 762 l 874 762 l 874 0 z "},"v":{"ha":903,"x_min":20,"x_max":882,"o":"m 882 762 l 589 0 l 312 0 l 20 762 l 279 762 l 455 238 l 629 762 l 882 762 z "},"w":{"ha":1360,"x_min":31,"x_max":1330,"o":"m 1330 762 l 1094 0 l 835 0 l 680 513 l 527 0 l 264 0 l 31 762 l 287 762 l 417 237 l 580 762 l 796 762 l 951 237 l 1079 762 l 1330 762 z "},"x":{"ha":929,"x_min":18,"x_max":911,"o":"m 911 0 l 627 0 l 464 228 l 297 0 l 18 0 l 318 380 l 22 762 l 307 762 l 467 538 l 628 762 l 908 762 l 612 387 l 911 0 z "},"y":{"ha":904,"x_min":20,"x_max":884,"o":"m 459 269 l 633 762 l 884 762 l 460 -279 l 196 -279 l 317 5 l 20 762 l 277 762 l 459 269 z "},"z":{"ha":829,"x_min":57,"x_max":772,"o":"m 772 0 l 57 0 l 57 157 l 458 583 l 73 583 l 73 762 l 765 762 l 765 608 l 370 182 l 772 182 l 772 0 z "},"{":{"ha":987,"x_min":103,"x_max":851,"o":"m 851 -266 l 665 -266 q 455 -199 534 -266 q 377 -3 377 -132 l 377 96 q 323 264 377 217 q 151 311 270 311 l 103 311 l 103 478 l 151 478 q 323 525 270 478 q 377 693 377 572 l 377 793 q 455 988 377 922 q 665 1055 534 1055 l 851 1055 l 851 903 l 774 903 q 700 897 733 903 q 645 874 667 891 q 610 823 622 857 q 599 736 599 789 l 599 663 q 546 504 599 568 q 394 403 492 440 l 394 387 q 546 286 492 349 q 599 127 599 222 l 599 53 q 610 -34 599 0 q 645 -85 622 -67 q 700 -108 667 -102 q 774 -114 733 -114 l 851 -114 l 851 -266 z "},"|":{"ha":755,"x_min":279,"x_max":476,"o":"m 476 -266 l 279 -266 l 279 1055 l 476 1055 l 476 -266 z "},"}":{"ha":987,"x_min":136,"x_max":884,"o":"m 884 311 l 837 311 q 664 264 718 311 q 610 96 610 217 l 610 -3 q 532 -199 610 -132 q 322 -266 454 -266 l 136 -266 l 136 -114 l 214 -114 q 287 -108 254 -114 q 342 -85 320 -102 q 377 -34 366 -67 q 389 53 389 0 l 389 127 q 442 286 389 222 q 593 387 495 349 l 593 403 q 442 504 495 440 q 389 663 389 568 l 389 736 q 377 823 389 789 q 342 874 366 857 q 287 897 320 891 q 214 903 254 903 l 136 903 l 136 1055 l 322 1055 q 532 988 454 1055 q 610 793 610 922 l 610 693 q 664 525 610 572 q 837 478 718 478 l 884 478 l 884 311 z "},"~":{"ha":1204,"x_min":106,"x_max":1101,"o":"m 1101 683 q 1026 341 1100 460 q 807 222 953 222 q 723 233 759 222 q 657 263 686 244 q 606 306 629 283 q 559 358 583 330 q 520 406 543 378 q 483 450 498 434 q 445 483 463 471 q 405 495 427 495 q 343 474 364 495 q 311 420 322 453 q 295 328 298 383 q 290 220 291 273 l 106 220 q 182 565 106 448 q 400 682 257 682 q 484 670 446 682 q 551 639 521 658 q 603 596 580 620 q 650 545 627 572 q 685 500 666 526 q 726 452 705 475 q 766 419 748 429 q 802 408 784 408 q 863 428 841 408 q 897 484 886 448 q 912 570 908 519 q 918 683 916 621 l 1101 683 z "},"Ä":{"ha":1078,"x_min":16,"x_max":1062,"o":"m 1062 0 l 793 0 l 723 204 l 349 204 l 279 0 l 16 0 l 389 1010 l 689 1010 l 1062 0 m 660 389 l 536 751 l 412 389 l 660 389 m 823 1123 l 622 1123 l 622 1308 l 823 1308 l 823 1123 m 459 1123 l 258 1123 l 258 1308 l 459 1308 l 459 1123 z "},"Å":{"ha":1078,"x_min":16,"x_max":1062,"o":"m 1062 0 l 793 0 l 723 204 l 349 204 l 279 0 l 16 0 l 372 962 q 325 1026 343 989 q 307 1103 307 1063 q 376 1251 307 1190 q 539 1312 446 1312 q 702 1251 633 1312 q 771 1103 771 1190 q 752 1024 771 1061 q 707 962 734 987 l 1062 0 m 660 389 l 536 751 l 412 389 l 660 389 m 631 1109 q 605 1179 631 1152 q 539 1207 579 1207 q 473 1179 499 1207 q 447 1109 447 1152 q 473 1038 447 1066 q 539 1010 498 1010 q 606 1038 580 1010 q 631 1109 631 1067 z "},"Ç":{"ha":1005,"x_min":70,"x_max":943,"o":"m 582 -18 q 375 16 469 -17 q 213 115 281 49 q 107 277 145 180 q 70 504 70 375 q 106 722 70 624 q 210 889 142 819 q 373 993 276 956 q 586 1029 471 1029 q 701 1022 650 1029 q 795 1004 752 1015 q 878 975 841 991 q 943 945 915 959 l 943 701 l 913 701 q 865 739 894 717 q 800 783 836 762 q 719 820 762 805 q 626 835 675 835 q 522 818 571 835 q 430 760 472 800 q 365 658 390 722 q 340 503 340 594 q 367 345 340 408 q 435 244 394 281 q 527 191 476 207 q 627 175 578 175 q 721 189 675 175 q 807 228 768 203 q 869 270 840 248 q 916 309 897 292 l 943 309 l 943 67 q 849 28 903 50 q 734 -5 795 7 q 735 -31 734 -15 q 736 -58 736 -46 q 669 -228 736 -168 q 493 -287 602 -287 q 424 -283 469 -287 q 349 -271 379 -279 l 349 -135 l 364 -135 q 412 -151 380 -142 q 471 -159 443 -159 q 554 -132 526 -159 q 582 -50 582 -104 l 582 -18 z "},"É":{"ha":949,"x_min":129,"x_max":859,"o":"m 859 0 l 129 0 l 129 1010 l 859 1010 l 859 814 l 388 814 l 388 640 l 825 640 l 825 445 l 388 445 l 388 195 l 859 195 l 859 0 m 745 1390 l 745 1376 l 507 1123 l 340 1123 l 507 1390 l 745 1390 z "},"Ñ":{"ha":1176,"x_min":129,"x_max":1047,"o":"m 1047 0 l 796 0 l 368 693 l 368 0 l 129 0 l 129 1010 l 440 1010 l 808 431 l 808 1010 l 1047 1010 l 1047 0 m 890 1350 q 834 1180 883 1236 q 696 1125 785 1125 q 636 1138 665 1125 q 583 1164 607 1150 q 537 1191 562 1177 q 494 1204 511 1204 q 450 1182 461 1204 q 437 1121 439 1160 l 288 1121 q 345 1284 292 1223 q 481 1345 397 1345 q 543 1334 513 1345 q 596 1308 572 1322 q 643 1282 621 1294 q 683 1270 665 1270 q 728 1292 715 1270 q 741 1350 740 1314 l 890 1350 z "},"Ö":{"ha":1181,"x_min":70,"x_max":1111,"o":"m 1111 505 q 972 121 1111 263 q 590 -21 834 -21 q 208 121 347 -21 q 70 505 70 263 q 208 889 70 748 q 590 1031 347 1031 q 972 889 833 1031 q 1111 505 1111 748 m 766 249 q 822 358 804 295 q 840 505 840 420 q 819 660 840 596 q 764 763 798 724 q 685 822 730 804 q 591 840 640 840 q 497 823 541 840 q 417 764 454 805 q 362 660 383 726 q 340 505 340 593 q 361 351 340 414 q 416 248 382 288 q 495 189 450 208 q 591 170 541 170 q 686 189 641 170 q 766 249 732 208 m 873 1123 l 672 1123 l 672 1308 l 873 1308 l 873 1123 m 509 1123 l 308 1123 l 308 1308 l 509 1308 l 509 1123 z "},"Ü":{"ha":1128,"x_min":115,"x_max":1013,"o":"m 1013 366 q 899 79 1013 178 q 564 -21 785 -21 q 228 79 342 -21 q 115 365 115 178 l 115 1010 l 376 1010 l 376 380 q 420 223 376 275 q 564 172 465 172 q 706 221 661 172 q 751 380 751 271 l 751 1010 l 1013 1010 l 1013 366 m 847 1123 l 646 1123 l 646 1308 l 847 1308 l 847 1123 m 483 1123 l 281 1123 l 281 1308 l 483 1308 l 483 1123 z "},"á":{"ha":928,"x_min":58,"x_max":819,"o":"m 576 199 l 576 357 q 469 346 527 353 q 382 330 412 339 q 326 296 345 318 q 307 238 307 274 q 311 199 307 214 q 331 171 315 184 q 368 151 347 157 q 436 144 390 144 q 510 159 473 144 q 576 199 548 174 m 576 81 q 528 45 557 66 q 473 12 498 24 q 398 -13 437 -5 q 313 -20 359 -20 q 132 47 205 -20 q 58 218 58 114 q 96 355 58 302 q 201 438 133 408 q 370 481 269 469 q 578 500 470 494 l 578 505 q 526 592 578 568 q 374 616 475 616 q 245 594 314 616 q 147 562 177 573 l 125 562 l 125 745 q 251 769 163 755 q 425 783 338 783 q 726 719 633 783 q 819 518 819 655 l 819 0 l 576 0 l 576 81 m 707 1137 l 707 1123 l 469 870 l 302 870 l 469 1137 l 707 1137 z "},"à":{"ha":928,"x_min":58,"x_max":819,"o":"m 576 199 l 576 357 q 469 346 527 353 q 382 330 412 339 q 326 296 345 318 q 307 238 307 274 q 311 199 307 214 q 331 171 315 184 q 368 151 347 157 q 436 144 390 144 q 510 159 473 144 q 576 199 548 174 m 576 81 q 528 45 557 66 q 473 12 498 24 q 398 -13 437 -5 q 313 -20 359 -20 q 132 47 205 -20 q 58 218 58 114 q 96 355 58 302 q 201 438 133 408 q 370 481 269 469 q 578 500 470 494 l 578 505 q 526 592 578 568 q 374 616 475 616 q 245 594 314 616 q 147 562 177 573 l 125 562 l 125 745 q 251 769 163 755 q 425 783 338 783 q 726 719 633 783 q 819 518 819 655 l 819 0 l 576 0 l 576 81 m 632 870 l 465 870 l 227 1123 l 227 1137 l 465 1137 l 632 870 z "},"â":{"ha":928,"x_min":58,"x_max":819,"o":"m 576 199 l 576 357 q 469 346 527 353 q 382 330 412 339 q 326 296 345 318 q 307 238 307 274 q 311 199 307 214 q 331 171 315 184 q 368 151 347 157 q 436 144 390 144 q 510 159 473 144 q 576 199 548 174 m 576 81 q 528 45 557 66 q 473 12 498 24 q 398 -13 437 -5 q 313 -20 359 -20 q 132 47 205 -20 q 58 218 58 114 q 96 355 58 302 q 201 438 133 408 q 370 481 269 469 q 578 500 470 494 l 578 505 q 526 592 578 568 q 374 616 475 616 q 245 594 314 616 q 147 562 177 573 l 125 562 l 125 745 q 251 769 163 755 q 425 783 338 783 q 726 719 633 783 q 819 518 819 655 l 819 0 l 576 0 l 576 81 m 749 870 l 570 870 l 445 1019 l 320 870 l 144 870 l 361 1137 l 532 1137 l 749 870 z "},"ä":{"ha":928,"x_min":58,"x_max":819,"o":"m 576 199 l 576 357 q 469 346 527 353 q 382 330 412 339 q 326 296 345 318 q 307 238 307 274 q 311 199 307 214 q 331 171 315 184 q 368 151 347 157 q 436 144 390 144 q 510 159 473 144 q 576 199 548 174 m 576 81 q 528 45 557 66 q 473 12 498 24 q 398 -13 437 -5 q 313 -20 359 -20 q 132 47 205 -20 q 58 218 58 114 q 96 355 58 302 q 201 438 133 408 q 370 481 269 469 q 578 500 470 494 l 578 505 q 526 592 578 568 q 374 616 475 616 q 245 594 314 616 q 147 562 177 573 l 125 562 l 125 745 q 251 769 163 755 q 425 783 338 783 q 726 719 633 783 q 819 518 819 655 l 819 0 l 576 0 l 576 81 m 739 870 l 538 870 l 538 1055 l 739 1055 l 739 870 m 375 870 l 174 870 l 174 1055 l 375 1055 l 375 870 z "},"ã":{"ha":928,"x_min":58,"x_max":819,"o":"m 576 199 l 576 357 q 469 346 527 353 q 382 330 412 339 q 326 296 345 318 q 307 238 307 274 q 311 199 307 214 q 331 171 315 184 q 368 151 347 157 q 436 144 390 144 q 510 159 473 144 q 576 199 548 174 m 576 81 q 528 45 557 66 q 473 12 498 24 q 398 -13 437 -5 q 313 -20 359 -20 q 132 47 205 -20 q 58 218 58 114 q 96 355 58 302 q 201 438 133 408 q 370 481 269 469 q 578 500 470 494 l 578 505 q 526 592 578 568 q 374 616 475 616 q 245 594 314 616 q 147 562 177 573 l 125 562 l 125 745 q 251 769 163 755 q 425 783 338 783 q 726 719 633 783 q 819 518 819 655 l 819 0 l 576 0 l 576 81 m 757 1097 q 701 927 750 983 q 564 872 652 872 q 503 885 532 872 q 450 911 474 897 q 404 938 429 924 q 361 951 378 951 q 317 929 328 951 q 304 868 306 907 l 155 868 q 212 1031 159 970 q 348 1093 264 1093 q 410 1081 380 1093 q 463 1055 439 1069 q 510 1029 488 1041 q 550 1017 532 1017 q 595 1039 583 1017 q 608 1097 607 1061 l 757 1097 z "},"å":{"ha":928,"x_min":58,"x_max":819,"o":"m 576 199 l 576 357 q 469 346 527 353 q 382 330 412 339 q 326 296 345 318 q 307 238 307 274 q 311 199 307 214 q 331 171 315 184 q 368 151 347 157 q 436 144 390 144 q 510 159 473 144 q 576 199 548 174 m 576 81 q 528 45 557 66 q 473 12 498 24 q 398 -13 437 -5 q 313 -20 359 -20 q 132 47 205 -20 q 58 218 58 114 q 96 355 58 302 q 201 438 133 408 q 370 481 269 469 q 578 500 470 494 l 578 505 q 526 592 578 568 q 374 616 475 616 q 245 594 314 616 q 147 562 177 573 l 125 562 l 125 745 q 219 765 161 755 q 363 780 276 775 q 277 853 310 804 q 244 964 244 902 q 307 1109 244 1051 q 460 1168 370 1168 q 613 1109 551 1168 q 675 964 675 1050 q 640 848 675 898 q 547 776 604 798 q 750 700 682 760 q 819 518 819 639 l 819 0 l 576 0 l 576 81 m 552 963 q 526 1034 552 1005 q 460 1063 500 1063 q 394 1035 420 1063 q 368 963 368 1006 q 393 892 368 920 q 460 864 419 864 q 526 892 500 864 q 552 963 552 921 z "},"ç":{"ha":817,"x_min":60,"x_max":771,"o":"m 492 -18 q 318 9 397 -16 q 180 83 238 34 q 92 205 123 132 q 60 378 60 279 q 95 562 60 484 q 195 690 131 639 q 337 760 256 738 q 505 783 418 783 q 648 766 583 783 q 771 722 714 749 l 771 513 l 736 513 q 702 542 722 526 q 653 574 682 558 q 592 598 625 589 q 515 608 559 608 q 365 546 417 608 q 312 378 312 484 q 366 211 312 268 q 519 154 420 154 q 602 164 565 154 q 663 189 639 175 q 704 218 686 203 q 736 247 722 233 l 771 247 l 771 39 q 713 16 747 28 q 644 -4 680 3 q 645 -31 644 -15 q 646 -58 646 -46 q 579 -228 646 -168 q 403 -287 511 -287 q 334 -283 379 -287 q 258 -271 289 -279 l 258 -135 l 274 -135 q 321 -151 290 -142 q 381 -159 353 -159 q 464 -132 435 -159 q 492 -50 492 -104 l 492 -18 z "},"é":{"ha":922,"x_min":60,"x_max":865,"o":"m 865 336 l 307 336 q 375 199 312 246 q 559 151 437 151 q 709 179 637 151 q 824 239 782 207 l 851 239 l 851 43 q 695 -5 768 9 q 533 -20 622 -20 q 182 83 304 -20 q 60 376 60 186 q 175 675 60 565 q 492 785 291 785 q 772 691 678 785 q 865 421 865 597 l 865 336 m 623 479 q 585 594 621 555 q 473 633 549 633 q 357 596 402 633 q 306 479 311 559 l 623 479 m 721 1137 l 721 1123 l 482 870 l 315 870 l 483 1137 l 721 1137 z "},"è":{"ha":922,"x_min":60,"x_max":865,"o":"m 865 336 l 307 336 q 375 199 312 246 q 559 151 437 151 q 709 179 637 151 q 824 239 782 207 l 851 239 l 851 43 q 695 -5 768 9 q 533 -20 622 -20 q 182 83 304 -20 q 60 376 60 186 q 175 675 60 565 q 492 785 291 785 q 772 691 678 785 q 865 421 865 597 l 865 336 m 623 479 q 585 594 621 555 q 473 633 549 633 q 357 596 402 633 q 306 479 311 559 l 623 479 m 639 870 l 472 870 l 233 1123 l 233 1137 l 471 1137 l 639 870 z "},"ê":{"ha":922,"x_min":60,"x_max":865,"o":"m 865 336 l 307 336 q 375 199 312 246 q 559 151 437 151 q 709 179 637 151 q 824 239 782 207 l 851 239 l 851 43 q 695 -5 768 9 q 533 -20 622 -20 q 182 83 304 -20 q 60 376 60 186 q 175 675 60 565 q 492 785 291 785 q 772 691 678 785 q 865 421 865 597 l 865 336 m 623 479 q 585 594 621 555 q 473 633 549 633 q 357 596 402 633 q 306 479 311 559 l 623 479 m 789 870 l 610 870 l 484 1019 l 359 870 l 183 870 l 401 1137 l 571 1137 l 789 870 z "},"ë":{"ha":922,"x_min":60,"x_max":865,"o":"m 865 336 l 307 336 q 375 199 312 246 q 559 151 437 151 q 709 179 637 151 q 824 239 782 207 l 851 239 l 851 43 q 695 -5 768 9 q 533 -20 622 -20 q 182 83 304 -20 q 60 376 60 186 q 175 675 60 565 q 492 785 291 785 q 772 691 678 785 q 865 421 865 597 l 865 336 m 623 479 q 585 594 621 555 q 473 633 549 633 q 357 596 402 633 q 306 479 311 559 l 623 479 m 762 870 l 561 870 l 561 1055 l 762 1055 l 762 870 m 398 870 l 197 870 l 197 1055 l 398 1055 l 398 870 z "},"í":{"ha":475,"x_min":71,"x_max":476,"o":"m 359 0 l 115 0 l 115 762 l 359 762 l 359 0 m 476 1137 l 476 1123 l 237 870 l 71 870 l 238 1137 l 476 1137 z "},"ì":{"ha":475,"x_min":-4,"x_max":401,"o":"m 359 0 l 115 0 l 115 762 l 359 762 l 359 0 m 401 870 l 235 870 l -4 1123 l -4 1137 l 234 1137 l 401 870 z "},"î":{"ha":475,"x_min":-7,"x_max":483,"o":"m 359 0 l 115 0 l 115 762 l 359 762 l 359 0 m 483 870 l 321 870 l 236 1015 l 152 870 l -7 870 l 151 1137 l 324 1137 l 483 870 z "},"ï":{"ha":475,"x_min":-12,"x_max":487,"o":"m 359 0 l 115 0 l 115 762 l 359 762 l 359 0 m 487 870 l 299 870 l 299 1055 l 487 1055 l 487 870 m 176 870 l -12 870 l -12 1055 l 176 1055 l 176 870 z "},"ñ":{"ha":989,"x_min":115,"x_max":880,"o":"m 880 0 l 635 0 l 635 378 q 630 470 635 424 q 614 537 625 515 q 574 574 600 562 q 501 585 548 585 q 434 574 468 585 q 359 540 399 564 l 359 0 l 115 0 l 115 762 l 359 762 l 359 677 q 485 755 425 728 q 618 783 545 783 q 811 711 741 783 q 880 496 880 639 l 880 0 m 803 1097 q 747 927 796 983 q 610 872 698 872 q 549 885 578 872 q 496 911 520 897 q 450 938 475 924 q 408 951 425 951 q 363 929 374 951 q 350 868 352 907 l 201 868 q 258 1031 205 970 q 394 1093 311 1093 q 456 1081 427 1093 q 509 1055 485 1069 q 556 1029 534 1041 q 596 1017 578 1017 q 641 1039 629 1017 q 654 1097 653 1061 l 803 1097 z "},"ó":{"ha":954,"x_min":60,"x_max":894,"o":"m 894 380 q 784 84 894 193 q 477 -24 675 -24 q 169 84 279 -24 q 60 380 60 193 q 170 677 60 570 q 477 785 280 785 q 785 677 676 785 q 894 380 894 568 m 593 195 q 629 266 617 224 q 641 379 641 307 q 629 492 641 446 q 595 564 616 537 q 543 604 573 592 q 477 615 512 615 q 414 606 441 615 q 361 568 387 596 q 326 495 339 541 q 313 379 313 449 q 324 271 313 317 q 358 197 336 225 q 410 159 380 171 q 479 146 440 146 q 542 158 512 146 q 593 195 572 169 m 718 1137 l 718 1123 l 479 870 l 312 870 l 479 1137 l 718 1137 z "},"ò":{"ha":954,"x_min":60,"x_max":894,"o":"m 894 380 q 784 84 894 193 q 477 -24 675 -24 q 169 84 279 -24 q 60 380 60 193 q 170 677 60 570 q 477 785 280 785 q 785 677 676 785 q 894 380 894 568 m 593 195 q 629 266 617 224 q 641 379 641 307 q 629 492 641 446 q 595 564 616 537 q 543 604 573 592 q 477 615 512 615 q 414 606 441 615 q 361 568 387 596 q 326 495 339 541 q 313 379 313 449 q 324 271 313 317 q 358 197 336 225 q 410 159 380 171 q 479 146 440 146 q 542 158 512 146 q 593 195 572 169 m 642 870 l 475 870 l 237 1123 l 237 1137 l 475 1137 l 642 870 z "},"ô":{"ha":954,"x_min":60,"x_max":894,"o":"m 894 380 q 784 84 894 193 q 477 -24 675 -24 q 169 84 279 -24 q 60 380 60 193 q 170 677 60 570 q 477 785 280 785 q 785 677 676 785 q 894 380 894 568 m 593 195 q 629 266 617 224 q 641 379 641 307 q 629 492 641 446 q 595 564 616 537 q 543 604 573 592 q 477 615 512 615 q 414 606 441 615 q 361 568 387 596 q 326 495 339 541 q 313 379 313 449 q 324 271 313 317 q 358 197 336 225 q 410 159 380 171 q 479 146 440 146 q 542 158 512 146 q 593 195 572 169 m 780 870 l 601 870 l 475 1019 l 351 870 l 174 870 l 392 1137 l 562 1137 l 780 870 z "},"ö":{"ha":954,"x_min":60,"x_max":894,"o":"m 894 380 q 784 84 894 193 q 477 -24 675 -24 q 169 84 279 -24 q 60 380 60 193 q 170 677 60 570 q 477 785 280 785 q 785 677 676 785 q 894 380 894 568 m 593 195 q 629 266 617 224 q 641 379 641 307 q 629 492 641 446 q 595 564 616 537 q 543 604 573 592 q 477 615 512 615 q 414 606 441 615 q 361 568 387 596 q 326 495 339 541 q 313 379 313 449 q 324 271 313 317 q 358 197 336 225 q 410 159 380 171 q 479 146 440 146 q 542 158 512 146 q 593 195 572 169 m 760 870 l 558 870 l 558 1055 l 760 1055 l 760 870 m 395 870 l 194 870 l 194 1055 l 395 1055 l 395 870 z "},"õ":{"ha":954,"x_min":60,"x_max":894,"o":"m 894 380 q 784 84 894 193 q 477 -24 675 -24 q 169 84 279 -24 q 60 380 60 193 q 170 677 60 570 q 477 785 280 785 q 785 677 676 785 q 894 380 894 568 m 593 195 q 629 266 617 224 q 641 379 641 307 q 629 492 641 446 q 595 564 616 537 q 543 604 573 592 q 477 615 512 615 q 414 606 441 615 q 361 568 387 596 q 326 495 339 541 q 313 379 313 449 q 324 271 313 317 q 358 197 336 225 q 410 159 380 171 q 479 146 440 146 q 542 158 512 146 q 593 195 572 169 m 778 1097 q 722 927 771 983 q 585 872 673 872 q 524 885 553 872 q 471 911 495 897 q 425 938 450 924 q 382 951 399 951 q 338 929 349 951 q 325 868 327 907 l 176 868 q 233 1031 180 970 q 369 1093 286 1093 q 431 1081 401 1093 q 484 1055 460 1069 q 531 1029 509 1041 q 571 1017 553 1017 q 616 1039 604 1017 q 629 1097 628 1061 l 778 1097 z "},"ú":{"ha":989,"x_min":109,"x_max":874,"o":"m 874 0 l 630 0 l 630 84 q 506 6 562 33 q 372 -21 450 -21 q 177 52 245 -21 q 109 266 109 124 l 109 762 l 355 762 l 355 384 q 358 288 355 326 q 376 224 362 250 q 415 188 389 199 q 488 176 441 176 q 557 188 519 176 q 630 222 595 199 l 630 762 l 874 762 l 874 0 m 714 1137 l 714 1123 l 475 870 l 309 870 l 476 1137 l 714 1137 z "},"ù":{"ha":989,"x_min":109,"x_max":874,"o":"m 874 0 l 630 0 l 630 84 q 506 6 562 33 q 372 -21 450 -21 q 177 52 245 -21 q 109 266 109 124 l 109 762 l 355 762 l 355 384 q 358 288 355 326 q 376 224 362 250 q 415 188 389 199 q 488 176 441 176 q 557 188 519 176 q 630 222 595 199 l 630 762 l 874 762 l 874 0 m 666 870 l 499 870 l 260 1123 l 260 1137 l 498 1137 l 666 870 z "},"û":{"ha":989,"x_min":109,"x_max":874,"o":"m 874 0 l 630 0 l 630 84 q 506 6 562 33 q 372 -21 450 -21 q 177 52 245 -21 q 109 266 109 124 l 109 762 l 355 762 l 355 384 q 358 288 355 326 q 376 224 362 250 q 415 188 389 199 q 488 176 441 176 q 557 188 519 176 q 630 222 595 199 l 630 762 l 874 762 l 874 0 m 798 870 l 619 870 l 494 1019 l 369 870 l 193 870 l 410 1137 l 581 1137 l 798 870 z "},"ü":{"ha":989,"x_min":109,"x_max":874,"o":"m 874 0 l 630 0 l 630 84 q 506 6 562 33 q 372 -21 450 -21 q 177 52 245 -21 q 109 266 109 124 l 109 762 l 355 762 l 355 384 q 358 288 355 326 q 376 224 362 250 q 415 188 389 199 q 488 176 441 176 q 557 188 519 176 q 630 222 595 199 l 630 762 l 874 762 l 874 0 m 775 870 l 574 870 l 574 1055 l 775 1055 l 775 870 m 411 870 l 210 870 l 210 1055 l 411 1055 l 411 870 z "},"†":{"ha":987,"x_min":164,"x_max":823,"o":"m 823 636 l 576 640 l 580 92 l 408 92 l 411 640 l 164 636 l 164 792 l 411 789 l 408 1055 l 580 1055 l 576 789 l 823 792 l 823 636 z "},"°":{"ha":816,"x_min":122,"x_max":694,"o":"m 694 747 q 611 546 694 628 q 408 464 528 464 q 205 546 288 464 q 122 747 122 628 q 205 949 122 867 q 408 1031 288 1031 q 612 949 529 1031 q 694 747 694 867 m 540 747 q 502 843 540 803 q 408 882 465 882 q 315 843 353 882 q 277 747 277 804 q 315 651 277 690 q 408 613 353 613 q 502 652 465 613 q 540 747 540 692 z "},"¢":{"ha":987,"x_min":127,"x_max":862,"o":"m 862 45 q 771 14 827 31 q 654 -9 715 -3 l 654 -245 l 536 -245 l 536 -11 q 368 23 441 -5 q 241 98 294 50 q 157 219 186 147 q 127 385 127 292 q 160 560 127 486 q 250 683 193 633 q 379 756 305 731 q 536 787 454 781 l 536 1000 l 654 1000 l 654 784 q 786 756 730 776 q 862 728 842 737 l 862 528 l 829 528 q 759 577 803 550 q 651 616 714 604 l 651 158 q 754 191 711 168 q 829 245 796 215 l 862 245 l 862 45 m 538 160 l 538 616 q 417 538 461 600 q 373 385 373 476 q 418 232 373 288 q 538 160 463 176 z "},"£":{"ha":987,"x_min":104,"x_max":899,"o":"m 899 0 l 104 0 l 104 191 q 217 262 189 214 q 245 409 245 311 l 126 409 l 126 556 l 245 556 l 245 733 q 346 946 245 863 q 610 1029 446 1029 q 763 1018 702 1029 q 859 997 823 1007 l 859 785 l 829 785 q 732 830 777 817 q 647 844 686 844 q 533 803 576 844 q 490 690 490 763 l 490 556 l 787 556 l 787 409 l 490 409 q 458 288 490 349 q 376 201 426 228 l 376 193 l 899 193 l 899 0 z "},"§":{"ha":987,"x_min":102,"x_max":885,"o":"m 885 412 q 844 281 885 339 q 740 189 802 223 l 740 184 q 835 101 806 148 q 863 -7 863 54 q 753 -192 863 -118 q 449 -266 643 -266 q 291 -255 380 -266 q 151 -227 201 -243 l 151 -31 l 174 -31 q 279 -74 213 -55 q 412 -94 345 -94 q 545 -73 505 -94 q 585 -14 585 -52 q 570 28 585 12 q 523 58 554 45 q 442 85 491 71 q 349 113 393 99 q 165 207 229 151 q 102 353 102 264 q 136 473 102 418 q 248 576 170 527 l 248 581 q 150 668 178 619 q 122 779 122 717 q 236 958 122 886 q 537 1031 351 1031 q 693 1020 614 1031 q 827 992 772 1010 l 827 795 l 805 795 q 706 837 772 814 q 574 859 641 859 q 448 837 496 859 q 400 779 400 814 q 416 738 400 753 q 463 709 431 722 q 538 683 491 697 q 639 652 586 669 q 821 556 758 614 q 885 412 885 498 m 642 371 q 613 433 642 409 q 534 475 585 457 q 488 490 516 481 q 419 510 460 499 q 367 459 389 488 q 346 394 346 429 q 375 332 346 356 q 454 290 404 307 q 505 273 473 283 q 569 254 537 262 q 618 302 595 273 q 642 371 642 331 z "},"•":{"ha":987,"x_min":150,"x_max":838,"o":"m 150 463 q 251 706 150 606 q 494 806 351 806 q 737 706 636 806 q 838 463 838 606 q 737 220 838 321 q 494 120 636 120 q 251 220 351 120 q 150 463 150 321 z "},"¶":{"ha":987,"x_min":92,"x_max":849,"o":"m 849 -246 l 712 -246 l 712 888 l 610 888 l 610 -246 l 466 -246 l 466 402 q 185 489 279 406 q 92 711 92 571 q 195 931 92 852 q 481 1010 298 1010 l 849 1010 l 849 -246 z "},"ß":{"ha":990,"x_min":115,"x_max":936,"o":"m 936 317 q 833 73 936 156 q 557 -9 730 -9 q 495 -6 533 -9 q 439 0 456 -3 l 439 184 l 467 184 q 500 177 478 181 q 545 172 522 172 q 646 214 605 172 q 686 332 686 256 q 633 440 686 408 q 470 473 581 473 l 470 654 q 577 687 541 654 q 614 789 614 720 q 584 871 614 842 q 494 899 555 899 q 392 856 424 899 q 359 736 359 812 l 359 0 l 115 0 l 115 716 q 218 972 115 882 q 498 1062 320 1062 q 660 1043 594 1062 q 770 990 725 1024 q 836 913 814 957 q 857 821 857 870 q 801 664 857 728 q 660 589 745 600 l 660 583 q 861 494 786 565 q 936 317 936 424 z "},"®":{"ha":1339,"x_min":83,"x_max":1256,"o":"m 1256 444 q 1084 30 1256 201 q 669 -142 912 -142 q 255 30 427 -142 q 83 444 83 201 q 255 859 83 687 q 669 1031 427 1031 q 1084 859 912 1031 q 1256 444 1256 687 m 1127 444 q 993 769 1127 633 q 670 905 859 905 q 347 769 481 905 q 213 444 213 633 q 347 119 213 255 q 670 -17 481 -17 q 993 119 859 -17 q 1127 444 1127 255 m 999 166 l 815 166 l 638 380 l 580 380 l 580 166 l 436 166 l 436 750 l 658 750 q 757 745 720 750 q 831 721 794 741 q 889 667 871 699 q 908 587 908 635 q 872 482 908 524 q 779 418 836 441 l 999 166 m 748 576 q 740 610 748 595 q 714 635 732 625 q 675 647 697 644 q 625 649 653 649 l 580 649 l 580 484 l 614 484 q 676 489 650 484 q 718 507 702 494 q 741 535 733 518 q 748 576 748 552 z "},"©":{"ha":1339,"x_min":83,"x_max":1256,"o":"m 1256 444 q 1084 30 1256 201 q 669 -142 912 -142 q 255 30 427 -142 q 83 444 83 201 q 255 859 83 687 q 669 1031 427 1031 q 1084 859 912 1031 q 1256 444 1256 687 m 1127 444 q 993 769 1127 633 q 670 905 859 905 q 347 769 481 905 q 213 444 213 633 q 347 119 213 255 q 670 -17 481 -17 q 993 119 859 -17 q 1127 444 1127 255 m 896 188 q 795 152 846 164 q 701 139 745 139 q 464 223 551 139 q 378 448 378 307 q 469 673 378 589 q 701 758 559 758 q 805 744 755 758 q 896 710 855 730 l 896 570 l 882 570 q 796 620 842 602 q 703 639 749 639 q 587 591 627 639 q 547 448 547 543 q 588 307 547 356 q 703 258 629 258 q 807 281 760 258 q 882 327 854 303 l 896 327 l 896 188 z "},"™":{"ha":1339,"x_min":96,"x_max":1211,"o":"m 1211 519 l 1079 519 l 1079 903 l 1065 903 l 944 634 l 852 634 l 730 907 l 712 907 l 712 519 l 587 519 l 587 1010 l 801 1010 l 900 770 l 1003 1010 l 1211 1010 l 1211 519 m 509 903 l 369 903 l 369 519 l 237 519 l 237 903 l 96 903 l 96 1010 l 509 1010 l 509 903 z "},"´":{"ha":987,"x_min":329,"x_max":734,"o":"m 734 1137 l 734 1123 l 496 870 l 329 870 l 496 1137 l 734 1137 z "},"¨":{"ha":987,"x_min":211,"x_max":777,"o":"m 777 870 l 575 870 l 575 1055 l 777 1055 l 777 870 m 412 870 l 211 870 l 211 1055 l 412 1055 l 412 870 z "},"≠":{"ha":1204,"x_min":170,"x_max":1036,"o":"m 1036 183 l 583 183 l 481 -59 l 298 -59 l 399 183 l 170 183 l 170 365 l 475 365 l 547 533 l 170 533 l 170 715 l 621 715 l 713 936 l 900 936 l 806 715 l 1036 715 l 1036 533 l 730 533 l 657 365 l 1036 365 l 1036 183 z "},"Æ":{"ha":1519,"x_min":3,"x_max":1430,"o":"m 460 467 l 701 467 l 701 824 l 604 824 l 460 467 m 701 274 l 383 274 l 273 0 l 3 0 l 417 1010 l 1430 1010 l 1430 814 l 958 814 l 958 640 l 1396 640 l 1396 445 l 958 445 l 958 195 l 1430 195 l 1430 0 l 701 0 l 701 274 z "},"Ø":{"ha":1181,"x_min":68,"x_max":1111,"o":"m 808 711 l 441 214 q 510 177 472 190 q 591 164 548 164 q 688 184 640 164 q 770 245 736 204 q 827 355 808 291 q 846 505 846 420 q 835 619 846 562 q 808 711 825 676 m 371 302 l 736 798 q 667 834 704 823 q 591 846 630 846 q 495 829 538 846 q 414 768 452 812 q 357 664 378 730 q 335 505 335 597 q 345 392 335 444 q 371 302 354 340 m 223 110 q 110 280 150 179 q 70 505 70 380 q 208 889 70 748 q 590 1031 347 1031 q 738 1015 671 1031 q 863 968 804 1000 l 946 1080 l 1088 1080 l 956 903 q 1070 733 1029 835 q 1111 505 1111 632 q 972 121 1111 263 q 590 -21 834 -21 q 441 -4 512 -21 q 314 44 370 13 l 209 -96 l 68 -96 l 223 110 z "},"∞":{"ha":1470,"x_min":120,"x_max":1350,"o":"m 1350 450 q 1323 280 1350 354 q 1253 161 1297 207 q 1146 88 1205 111 q 1014 65 1086 65 q 853 111 926 65 q 728 246 779 157 q 600 109 671 153 q 433 65 530 65 q 206 169 292 65 q 120 435 120 273 q 213 718 120 615 q 456 820 305 820 q 618 774 545 820 q 743 639 691 729 q 870 775 798 730 q 1038 820 943 820 q 1264 716 1179 820 q 1350 450 1350 612 m 1175 450 q 1138 582 1175 534 q 1038 629 1101 629 q 960 613 991 629 q 901 562 928 597 q 850 481 873 525 q 808 391 827 437 q 897 290 844 325 q 1006 256 950 256 q 1130 306 1086 256 q 1175 450 1175 356 m 663 494 q 572 595 625 561 q 465 629 520 629 q 339 577 383 629 q 296 435 296 526 q 331 306 296 356 q 433 256 366 256 q 534 287 498 256 q 604 375 570 319 q 635 433 624 410 q 663 494 646 456 z "},"±":{"ha":1204,"x_min":148,"x_max":1057,"o":"m 1057 0 l 148 0 l 148 182 l 510 182 l 510 464 l 148 464 l 148 646 l 509 646 l 509 1004 l 695 1004 l 695 646 l 1057 646 l 1057 464 l 694 464 l 694 182 l 1057 182 l 1057 0 z "},"≤":{"ha":1204,"x_min":148,"x_max":1057,"o":"m 1057 236 l 148 529 l 148 715 l 1057 1008 l 1057 813 l 420 621 l 1057 431 l 1057 236 m 1057 0 l 148 0 l 148 182 l 1057 182 l 1057 0 z "},"≥":{"ha":1204,"x_min":148,"x_max":1057,"o":"m 1057 529 l 148 236 l 148 431 l 785 621 l 148 813 l 148 1008 l 1057 715 l 1057 529 m 1057 0 l 148 0 l 148 182 l 1057 182 l 1057 0 z "},"¥":{"ha":987,"x_min":35,"x_max":952,"o":"m 952 1010 l 616 454 l 616 424 l 830 424 l 830 277 l 618 277 l 618 224 l 830 224 l 830 77 l 618 77 l 618 0 l 368 0 l 368 77 l 156 77 l 156 224 l 368 224 l 368 277 l 156 277 l 156 424 l 370 424 l 370 454 l 35 1010 l 319 1010 l 498 649 l 678 1010 l 952 1010 z "},"µ":{"ha":1002,"x_min":115,"x_max":886,"o":"m 886 0 l 670 0 l 659 54 l 654 54 q 588 9 625 28 q 503 -10 552 -10 q 420 8 458 -10 q 359 49 382 26 l 359 -279 l 115 -279 l 115 762 l 359 762 l 359 220 q 427 185 390 195 q 500 175 463 175 q 573 185 535 175 q 642 220 612 196 l 642 762 l 886 762 l 886 0 z "},"∂":{"ha":987,"x_min":84,"x_max":897,"o":"m 897 574 q 860 327 897 447 q 761 129 823 208 q 618 15 699 52 q 434 -22 537 -22 q 180 68 277 -22 q 84 300 84 158 q 180 565 84 461 q 420 668 277 668 q 541 647 484 668 q 644 587 597 627 q 644 602 644 593 q 644 625 644 610 q 595 793 644 739 q 444 846 547 846 q 338 828 391 846 q 218 776 286 810 l 199 776 l 199 970 q 347 1014 263 998 q 496 1030 430 1030 q 800 922 703 1030 q 897 574 897 813 m 635 441 q 573 482 605 468 q 503 496 541 496 q 387 447 431 496 q 342 301 342 398 q 376 189 342 228 q 465 151 409 151 q 569 207 530 151 q 625 361 608 264 q 630 397 627 375 q 635 441 633 420 z "},"∑":{"ha":970,"x_min":68,"x_max":916,"o":"m 916 -128 l 68 -128 l 68 61 l 427 432 l 75 817 l 75 1010 l 899 1010 l 899 814 l 397 814 l 720 460 l 720 403 l 391 67 l 916 67 l 916 -128 z "},"∏":{"ha":1207,"x_min":28,"x_max":1179,"o":"m 1179 816 l 1021 816 l 1021 -131 l 761 -131 l 761 816 l 446 816 l 446 -131 l 186 -131 l 186 816 l 28 816 l 28 1010 l 1179 1010 l 1179 816 z "},"∫":{"ha":747,"x_min":20,"x_max":727,"o":"m 727 876 l 709 876 q 666 887 692 881 q 610 893 640 893 q 524 867 551 893 q 496 754 496 840 l 496 13 q 421 -209 496 -132 q 197 -287 347 -287 q 104 -283 152 -287 q 20 -273 56 -280 l 20 -101 l 39 -101 q 82 -112 54 -105 q 137 -118 109 -118 q 227 -90 202 -118 q 252 21 252 -62 l 252 762 q 326 985 252 909 q 551 1062 401 1062 q 649 1058 605 1062 q 727 1048 693 1055 l 727 876 z "},"ª":{"ha":830,"x_min":103,"x_max":697,"o":"m 697 404 l 503 404 l 503 469 q 420 412 469 437 q 300 388 372 388 q 160 441 217 388 q 103 579 103 495 q 130 686 103 643 q 213 755 156 729 q 343 790 265 779 q 504 805 421 800 l 504 808 q 465 878 504 859 q 348 897 426 897 q 247 880 300 897 q 172 853 194 862 l 155 853 l 155 1000 q 250 1019 184 1008 q 383 1031 316 1031 q 621 979 545 1031 q 697 819 697 928 l 697 404 m 503 564 l 503 690 q 417 681 463 687 q 348 668 371 675 q 305 642 320 659 q 290 595 290 625 q 293 564 290 576 q 309 541 297 551 q 339 525 322 530 q 394 520 356 520 q 451 532 420 520 q 503 564 481 544 z "},"º":{"ha":830,"x_min":86,"x_max":744,"o":"m 744 707 q 657 471 744 557 q 415 384 571 384 q 173 471 259 384 q 86 707 86 557 q 173 944 86 858 q 415 1031 260 1031 q 658 944 572 1031 q 744 707 744 857 m 507 559 q 534 613 526 583 q 543 706 543 644 q 534 795 543 759 q 508 854 525 832 q 467 886 491 876 q 415 895 443 895 q 366 887 387 895 q 325 857 344 880 q 297 799 308 837 q 287 706 287 760 q 296 617 287 652 q 322 561 305 583 q 362 530 338 540 q 416 520 385 520 q 467 529 444 520 q 507 559 490 537 z "},"Ω":{"ha":1172,"x_min":36,"x_max":1136,"o":"m 1136 0 l 650 0 l 650 331 q 719 374 692 356 q 771 427 745 391 q 808 495 795 458 q 821 595 821 532 q 806 691 821 646 q 764 768 792 736 q 690 821 734 802 q 586 840 645 840 q 481 821 524 840 q 408 768 438 802 q 365 690 379 736 q 351 595 351 644 q 365 496 351 536 q 401 425 378 455 q 457 373 424 396 q 522 331 490 350 l 522 0 l 36 0 l 36 195 l 357 195 l 357 238 q 251 293 301 260 q 163 372 201 326 q 103 480 125 418 q 81 623 81 543 q 115 783 81 709 q 215 912 149 856 q 374 999 279 968 q 586 1031 469 1031 q 801 1000 708 1031 q 959 913 893 969 q 1057 785 1023 859 q 1091 623 1091 710 q 1068 482 1091 546 q 1009 373 1046 418 q 922 294 971 327 q 814 238 873 261 l 814 195 l 1136 195 l 1136 0 z "},"æ":{"ha":1414,"x_min":58,"x_max":1357,"o":"m 1357 336 l 807 336 q 831 247 810 282 q 885 191 852 212 q 962 160 918 170 q 1056 151 1005 151 q 1202 178 1131 151 q 1316 239 1273 205 l 1343 239 l 1343 43 q 1199 -3 1272 14 q 1029 -20 1126 -20 q 831 10 926 -20 q 663 104 736 40 q 605 64 642 89 q 535 23 569 39 q 442 -8 491 3 q 318 -20 393 -20 q 131 46 203 -20 q 58 218 58 113 q 96 356 58 304 q 201 438 134 408 q 365 481 267 467 q 571 500 463 494 l 571 505 q 523 592 571 568 q 374 616 475 616 q 245 594 314 616 q 147 562 177 573 l 125 562 l 125 745 q 251 769 163 755 q 425 783 338 783 q 601 763 529 783 q 722 708 673 743 q 843 764 774 742 q 989 785 911 785 q 1265 691 1173 785 q 1357 421 1357 597 l 1357 336 m 1114 479 q 1077 593 1112 554 q 968 633 1042 633 q 856 596 900 633 q 806 479 812 559 l 1114 479 m 595 208 q 572 293 577 251 q 567 357 567 334 q 464 347 511 352 q 381 329 418 341 q 327 296 347 318 q 307 238 307 274 q 311 201 307 218 q 330 171 316 183 q 371 151 345 157 q 433 144 397 144 q 516 162 474 144 q 595 208 557 179 z "},"ø":{"ha":954,"x_min":60,"x_max":894,"o":"m 633 505 l 385 168 q 427 149 404 155 q 479 142 450 142 q 544 154 512 142 q 597 192 576 166 q 634 263 621 222 q 646 379 646 305 q 643 448 646 412 q 633 505 639 483 m 325 241 l 579 587 q 533 611 559 604 q 477 619 508 619 q 412 609 441 619 q 359 571 383 600 q 322 497 336 545 q 308 379 308 449 q 313 302 308 337 q 325 241 317 267 m 193 68 q 94 202 128 122 q 60 380 60 282 q 170 677 60 570 q 477 785 280 785 q 593 773 541 785 q 693 737 646 760 l 775 850 l 894 850 l 770 686 q 862 555 829 633 q 894 380 894 477 q 784 84 894 193 q 477 -24 675 -24 q 367 -13 418 -24 q 272 19 315 -1 l 178 -110 l 60 -110 l 193 68 z "},"¿":{"ha":857,"x_min":76,"x_max":757,"o":"m 611 831 l 337 831 l 337 1010 l 611 1010 l 611 831 m 757 38 q 623 0 713 20 q 440 -20 533 -20 q 174 54 273 -20 q 76 247 76 127 q 96 368 76 315 q 153 459 116 420 q 240 528 189 498 q 356 584 292 559 l 356 739 l 595 739 l 595 510 q 508 484 547 497 q 426 439 469 470 q 363 376 387 412 q 340 295 340 340 q 384 198 340 227 q 507 170 428 170 q 617 191 556 170 q 730 245 679 212 l 757 245 l 757 38 z "},"¡":{"ha":559,"x_min":138,"x_max":421,"o":"m 416 831 l 142 831 l 142 1010 l 416 1010 l 416 831 m 421 0 l 138 0 l 169 719 l 390 719 l 421 0 z "},"¬":{"ha":1204,"x_min":146,"x_max":1048,"o":"m 1048 20 l 854 20 l 854 378 l 146 378 l 146 560 l 1048 560 l 1048 20 z "},"√":{"ha":1204,"x_min":91,"x_max":1286,"o":"m 1286 1247 l 680 -143 l 559 -143 l 253 522 l 91 522 l 91 665 l 428 665 l 657 155 l 1133 1247 l 1286 1247 z "},"ƒ":{"ha":987,"x_min":46,"x_max":937,"o":"m 937 828 l 908 828 q 860 840 890 834 q 801 846 829 846 q 699 817 737 846 q 650 707 661 787 l 634 593 l 827 593 l 827 446 l 612 446 l 568 168 q 515 13 553 72 q 424 -79 477 -45 q 315 -123 373 -110 q 191 -136 257 -136 q 118 -132 159 -136 q 46 -123 77 -129 l 46 67 l 68 67 q 117 55 87 60 q 175 49 146 49 q 279 82 241 49 q 328 194 317 115 l 366 446 l 245 446 l 245 593 l 387 593 l 409 734 q 463 886 423 829 q 556 976 503 944 q 671 1019 607 1008 q 791 1031 735 1031 q 863 1028 827 1031 q 937 1019 899 1025 l 937 828 z "},"≈":{"ha":1204,"x_min":107,"x_max":1097,"o":"m 1097 825 q 1012 561 1084 648 q 792 473 939 473 q 666 504 727 473 q 558 574 604 536 q 468 634 506 616 q 404 652 430 652 q 325 615 352 652 q 290 482 298 577 l 107 482 q 193 744 119 659 q 412 829 267 829 q 515 808 460 829 q 646 728 569 787 q 746 663 715 677 q 801 649 777 649 q 884 696 859 649 q 915 825 909 744 l 1097 825 m 1097 397 q 1012 136 1084 220 q 792 51 939 51 q 666 82 727 51 q 558 152 604 114 q 468 213 506 195 q 404 231 430 231 q 325 190 352 231 q 290 54 298 149 l 107 54 q 193 319 119 231 q 412 407 267 407 q 515 386 460 407 q 646 306 569 365 q 746 241 714 254 q 801 227 777 227 q 884 272 859 227 q 915 397 909 316 l 1097 397 z "},"∆":{"ha":1119,"x_min":23,"x_max":1096,"o":"m 1096 0 l 23 0 l 410 1010 l 709 1010 l 1096 0 m 761 194 l 556 751 l 351 194 l 761 194 z "},"«":{"ha":1180,"x_min":147,"x_max":981,"o":"m 555 87 l 147 401 l 147 492 l 555 806 l 555 597 l 351 446 l 555 295 l 555 87 m 981 87 l 572 401 l 572 492 l 981 806 l 981 597 l 776 446 l 981 295 l 981 87 z "},"»":{"ha":1180,"x_min":199,"x_max":1033,"o":"m 1033 401 l 625 87 l 625 295 l 829 446 l 625 597 l 625 806 l 1033 492 l 1033 401 m 608 401 l 199 87 l 199 295 l 404 446 l 199 597 l 199 806 l 608 492 l 608 401 z "},"…":{"ha":1457,"x_min":124,"x_max":1333,"o":"m 361 0 l 124 0 l 124 267 l 361 267 l 361 0 m 847 0 l 610 0 l 610 267 l 847 267 l 847 0 m 1333 0 l 1095 0 l 1095 267 l 1333 267 l 1333 0 z "},"À":{"ha":1078,"x_min":16,"x_max":1062,"o":"m 1062 0 l 793 0 l 723 204 l 349 204 l 279 0 l 16 0 l 389 1010 l 689 1010 l 1062 0 m 660 389 l 536 751 l 412 389 l 660 389 m 700 1123 l 533 1123 l 294 1376 l 294 1390 l 532 1390 l 700 1123 z "},"Ã":{"ha":1078,"x_min":16,"x_max":1062,"o":"m 1062 0 l 793 0 l 723 204 l 349 204 l 279 0 l 16 0 l 389 1010 l 689 1010 l 1062 0 m 660 389 l 536 751 l 412 389 l 660 389 m 813 1350 q 757 1180 806 1236 q 620 1125 708 1125 q 559 1138 588 1125 q 507 1164 530 1150 q 460 1191 486 1177 q 418 1204 435 1204 q 373 1182 385 1204 q 360 1121 362 1160 l 212 1121 q 268 1284 216 1223 q 404 1345 321 1345 q 466 1334 437 1345 q 519 1308 495 1322 q 566 1282 545 1294 q 606 1270 588 1270 q 651 1292 639 1270 q 665 1350 663 1314 l 813 1350 z "},"Õ":{"ha":1181,"x_min":70,"x_max":1111,"o":"m 1111 505 q 972 121 1111 263 q 590 -21 834 -21 q 208 121 347 -21 q 70 505 70 263 q 208 889 70 748 q 590 1031 347 1031 q 972 889 833 1031 q 1111 505 1111 748 m 766 249 q 822 358 804 295 q 840 505 840 420 q 819 660 840 596 q 764 763 798 724 q 685 822 730 804 q 591 840 640 840 q 497 823 541 840 q 417 764 454 805 q 362 660 383 726 q 340 505 340 593 q 361 351 340 414 q 416 248 382 288 q 495 189 450 208 q 591 170 541 170 q 686 189 641 170 q 766 249 732 208 m 892 1350 q 836 1180 885 1236 q 699 1125 787 1125 q 638 1138 667 1125 q 585 1164 609 1150 q 539 1191 564 1177 q 496 1204 513 1204 q 452 1182 463 1204 q 439 1121 441 1160 l 290 1121 q 347 1284 294 1223 q 483 1345 399 1345 q 545 1334 515 1345 q 598 1308 574 1322 q 645 1282 623 1294 q 685 1270 667 1270 q 730 1292 718 1270 q 743 1350 742 1314 l 892 1350 z "},"Œ":{"ha":1577,"x_min":70,"x_max":1487,"o":"m 1487 1010 l 1487 814 l 1015 814 l 1015 640 l 1453 640 l 1453 445 l 1015 445 l 1015 195 l 1487 195 l 1487 0 l 692 0 q 482 14 583 0 q 297 79 381 28 q 130 251 191 144 q 70 506 70 358 q 133 754 70 643 q 300 929 195 865 q 453 990 365 970 q 665 1010 542 1010 l 1487 1010 m 610 191 q 677 189 641 189 q 758 189 714 189 l 758 821 q 672 821 704 821 q 601 817 640 821 q 537 806 562 813 q 479 781 513 800 q 374 673 410 743 q 339 504 339 603 q 377 331 339 401 q 492 222 416 261 q 550 201 519 210 q 610 191 581 193 z "},"œ":{"ha":1483,"x_min":60,"x_max":1426,"o":"m 1426 336 l 876 336 q 900 247 880 282 q 954 191 921 212 q 1031 160 987 170 q 1125 151 1074 151 q 1271 178 1200 151 q 1385 239 1342 205 l 1412 239 l 1412 43 q 1268 -3 1341 14 q 1099 -20 1195 -20 q 910 6 992 -20 q 769 77 829 32 q 640 2 713 28 q 477 -24 567 -24 q 170 84 281 -24 q 60 380 60 192 q 170 677 60 570 q 477 785 280 785 q 641 759 567 785 q 767 687 715 732 q 896 759 822 732 q 1059 785 970 785 q 1334 691 1242 785 q 1426 421 1426 597 l 1426 336 m 1183 479 q 1146 593 1181 554 q 1038 633 1112 633 q 925 596 969 633 q 876 479 881 559 l 1183 479 m 641 379 q 629 492 641 446 q 595 564 616 537 q 543 604 573 592 q 477 615 512 615 q 414 606 441 615 q 361 568 387 596 q 326 495 339 541 q 313 379 313 449 q 324 271 313 317 q 358 197 336 225 q 410 159 380 171 q 479 146 440 146 q 542 158 512 146 q 593 195 572 169 q 629 266 617 224 q 641 379 641 307 z "},"–":{"ha":987,"x_min":104,"x_max":884,"o":"m 884 358 l 104 358 l 104 540 l 884 540 l 884 358 z "},"—":{"ha":1389,"x_min":104,"x_max":1285,"o":"m 1285 358 l 104 358 l 104 540 l 1285 540 l 1285 358 z "},"“":{"ha":816,"x_min":7,"x_max":732,"o":"m 732 656 l 574 656 l 376 1055 l 626 1055 l 732 656 m 363 656 l 205 656 l 7 1055 l 257 1055 l 363 656 z "},"”":{"ha":816,"x_min":83,"x_max":808,"o":"m 439 1055 l 242 656 l 83 656 l 190 1055 l 439 1055 m 808 1055 l 611 656 l 452 656 l 559 1055 l 808 1055 z "},"‘":{"ha":461,"x_min":22,"x_max":378,"o":"m 378 656 l 219 656 l 22 1055 l 271 1055 l 378 656 z "},"’":{"ha":461,"x_min":83,"x_max":439,"o":"m 439 1055 l 242 656 l 83 656 l 190 1055 l 439 1055 z "},"÷":{"ha":1204,"x_min":148,"x_max":1057,"o":"m 718 679 l 487 679 l 487 898 l 718 898 l 718 679 m 1057 358 l 148 358 l 148 540 l 1057 540 l 1057 358 m 718 0 l 487 0 l 487 219 l 718 219 l 718 0 z "},"◊":{"ha":1204,"x_min":73,"x_max":1132,"o":"m 1132 477 l 602 -96 l 73 477 l 602 1050 l 1132 477 m 874 477 l 602 771 l 330 477 l 602 184 l 874 477 z "},"ÿ":{"ha":904,"x_min":20,"x_max":884,"o":"m 459 269 l 633 762 l 884 762 l 460 -279 l 196 -279 l 317 5 l 20 762 l 277 762 l 459 269 m 743 870 l 541 870 l 541 1055 l 743 1055 l 743 870 m 378 870 l 177 870 l 177 1055 l 378 1055 l 378 870 z "},"Ÿ":{"ha":1023,"x_min":6,"x_max":1017,"o":"m 1017 1010 l 645 391 l 645 0 l 385 0 l 385 378 l 6 1010 l 302 1010 l 520 619 l 731 1010 l 1017 1010 m 797 1123 l 595 1123 l 595 1308 l 797 1308 l 797 1123 m 433 1123 l 231 1123 l 231 1308 l 433 1308 l 433 1123 z "},"⁄":{"ha":610,"x_min":-52,"x_max":663,"o":"m 663 1016 l 130 0 l -52 0 l 480 1016 l 663 1016 z "},"€":{"ha":987,"x_min":0,"x_max":928,"o":"m 0 357 l 33 448 l 72 448 q 71 476 71 462 q 70 504 70 490 q 71 536 70 520 q 73 568 71 552 l 0 568 l 33 659 l 86 659 q 253 930 125 831 q 575 1029 380 1029 q 766 1008 686 1029 q 928 945 846 986 l 928 701 l 898 701 q 769 797 838 760 q 615 835 699 835 q 462 788 530 835 q 364 659 394 741 l 564 659 l 532 568 l 344 568 q 341 536 342 553 q 340 503 340 519 q 341 475 340 489 q 343 448 342 461 l 488 448 l 455 357 l 361 357 q 456 225 389 275 q 616 175 523 175 q 774 212 701 175 q 901 309 848 250 l 928 309 l 928 67 q 752 0 828 19 q 574 -20 677 -20 q 249 80 376 -20 q 84 357 121 179 l 0 357 z "},"‹":{"ha":755,"x_min":147,"x_max":555,"o":"m 555 87 l 147 401 l 147 492 l 555 806 l 555 597 l 351 446 l 555 295 l 555 87 z "},"›":{"ha":755,"x_min":199,"x_max":608,"o":"m 608 401 l 199 87 l 199 295 l 404 446 l 199 597 l 199 806 l 608 492 l 608 401 z "},"ﬁ":{"ha":1010,"x_min":29,"x_max":902,"o":"m 573 876 q 533 887 560 880 q 482 893 507 893 q 392 867 415 893 q 370 768 370 840 l 370 762 l 895 762 l 895 0 l 651 0 l 651 600 l 378 600 l 378 0 l 134 0 l 134 596 l 29 596 l 29 762 l 134 762 l 134 783 q 206 992 134 923 q 421 1062 278 1062 q 515 1058 472 1062 q 591 1048 559 1055 l 591 876 l 573 876 m 902 870 l 658 870 l 658 1055 l 902 1055 l 902 870 z "},"ﬂ":{"ha":1015,"x_min":29,"x_max":899,"o":"m 601 893 q 584 895 601 893 q 536 897 568 897 q 478 892 503 897 q 425 874 452 888 q 386 839 401 863 q 370 782 370 815 l 370 762 l 558 762 l 558 596 l 378 596 l 378 0 l 134 0 l 134 596 l 29 596 l 29 762 l 134 762 l 134 781 q 225 994 134 925 q 511 1062 317 1062 q 642 1053 566 1062 q 743 1040 718 1043 l 899 1055 l 899 0 l 655 0 l 655 886 q 601 893 634 889 z "},"‡":{"ha":987,"x_min":164,"x_max":823,"o":"m 823 346 l 576 349 l 580 92 l 408 92 l 411 349 l 164 346 l 164 502 l 412 498 l 412 654 l 164 651 l 164 807 l 411 804 l 408 1055 l 580 1055 l 576 804 l 823 807 l 823 651 l 576 654 l 576 498 l 823 502 l 823 346 z "},"∙":{"ha":502,"x_min":124,"x_max":378,"o":"m 378 315 l 124 315 l 124 581 l 378 581 l 378 315 z "},"‚":{"ha":461,"x_min":36,"x_max":392,"o":"m 392 267 l 195 -133 l 36 -133 l 142 267 l 392 267 z "},"„":{"ha":816,"x_min":36,"x_max":761,"o":"m 392 267 l 195 -133 l 36 -133 l 142 267 l 392 267 m 761 267 l 564 -133 l 405 -133 l 511 267 l 761 267 z "},"‰":{"ha":2469,"x_min":97,"x_max":2371,"o":"m 711 703 q 633 452 711 534 q 406 371 555 371 q 175 453 252 371 q 97 700 97 536 q 176 948 97 867 q 406 1029 256 1029 q 635 948 558 1029 q 711 703 711 867 m 1240 1010 l 711 0 l 529 0 l 1058 1010 l 1240 1010 m 1670 311 q 1592 60 1670 142 q 1364 -21 1514 -21 q 1133 61 1211 -21 q 1055 308 1055 144 q 1135 556 1055 475 q 1364 637 1214 637 q 1593 556 1516 637 q 1670 311 1670 475 m 511 701 q 486 847 511 809 q 404 885 461 885 q 322 847 347 885 q 297 700 297 809 q 322 553 297 591 q 404 515 347 515 q 486 553 461 515 q 511 701 511 591 m 1470 309 q 1444 455 1470 417 q 1362 493 1419 493 q 1280 455 1305 493 q 1255 308 1255 417 q 1280 161 1255 199 q 1362 123 1305 123 q 1444 161 1419 123 q 1470 309 1470 199 m 2371 311 q 2293 60 2371 142 q 2066 -21 2215 -21 q 1834 61 1912 -21 q 1756 308 1756 144 q 1836 556 1756 475 q 2066 637 1915 637 q 2294 556 2218 637 q 2371 311 2371 475 m 2171 309 q 2146 455 2171 417 q 2064 493 2121 493 q 1982 455 2007 493 q 1957 308 1957 417 q 1982 161 1957 199 q 2064 123 2007 123 q 2146 161 2121 123 q 2171 309 2171 199 z "},"Â":{"ha":1078,"x_min":16,"x_max":1062,"o":"m 1062 0 l 793 0 l 723 204 l 349 204 l 279 0 l 16 0 l 389 1010 l 689 1010 l 1062 0 m 660 389 l 536 751 l 412 389 l 660 389 m 842 1116 l 663 1116 l 538 1265 l 413 1116 l 237 1116 l 454 1383 l 625 1383 l 842 1116 z "},"Ê":{"ha":949,"x_min":129,"x_max":859,"o":"m 859 0 l 129 0 l 129 1010 l 859 1010 l 859 814 l 388 814 l 388 640 l 825 640 l 825 445 l 388 445 l 388 195 l 859 195 l 859 0 m 797 1123 l 618 1123 l 492 1272 l 368 1123 l 191 1123 l 409 1390 l 579 1390 l 797 1123 z "},"Á":{"ha":1078,"x_min":16,"x_max":1062,"o":"m 1062 0 l 793 0 l 723 204 l 349 204 l 279 0 l 16 0 l 389 1010 l 689 1010 l 1062 0 m 660 389 l 536 751 l 412 389 l 660 389 m 768 1390 l 768 1376 l 530 1123 l 363 1123 l 530 1390 l 768 1390 z "},"Ë":{"ha":949,"x_min":129,"x_max":859,"o":"m 859 0 l 129 0 l 129 1010 l 859 1010 l 859 814 l 388 814 l 388 640 l 825 640 l 825 445 l 388 445 l 388 195 l 859 195 l 859 0 m 777 1123 l 575 1123 l 575 1308 l 777 1308 l 777 1123 m 412 1123 l 211 1123 l 211 1308 l 412 1308 l 412 1123 z "},"È":{"ha":949,"x_min":129,"x_max":859,"o":"m 859 0 l 129 0 l 129 1010 l 859 1010 l 859 814 l 388 814 l 388 640 l 825 640 l 825 445 l 388 445 l 388 195 l 859 195 l 859 0 m 664 1123 l 497 1123 l 258 1376 l 258 1390 l 496 1390 l 664 1123 z "},"Í":{"ha":758,"x_min":83,"x_max":675,"o":"m 675 0 l 83 0 l 83 179 l 249 179 l 249 831 l 83 831 l 83 1010 l 675 1010 l 675 831 l 509 831 l 509 179 l 675 179 l 675 0 m 619 1390 l 619 1376 l 380 1123 l 214 1123 l 381 1390 l 619 1390 z "},"Î":{"ha":758,"x_min":77,"x_max":682,"o":"m 675 0 l 83 0 l 83 179 l 249 179 l 249 831 l 83 831 l 83 1010 l 675 1010 l 675 831 l 509 831 l 509 179 l 675 179 l 675 0 m 682 1123 l 503 1123 l 378 1272 l 253 1123 l 77 1123 l 294 1390 l 465 1390 l 682 1123 z "},"Ï":{"ha":758,"x_min":83,"x_max":675,"o":"m 675 0 l 83 0 l 83 179 l 249 179 l 249 831 l 83 831 l 83 1010 l 675 1010 l 675 831 l 509 831 l 509 179 l 675 179 l 675 0 m 662 1123 l 460 1123 l 460 1308 l 662 1308 l 662 1123 m 298 1123 l 96 1123 l 96 1308 l 298 1308 l 298 1123 z "},"Ì":{"ha":758,"x_min":83,"x_max":675,"o":"m 675 0 l 83 0 l 83 179 l 249 179 l 249 831 l 83 831 l 83 1010 l 675 1010 l 675 831 l 509 831 l 509 179 l 675 179 l 675 0 m 537 1123 l 370 1123 l 132 1376 l 132 1390 l 370 1390 l 537 1123 z "},"Ó":{"ha":1181,"x_min":70,"x_max":1111,"o":"m 1111 505 q 972 121 1111 263 q 590 -21 834 -21 q 208 121 347 -21 q 70 505 70 263 q 208 889 70 748 q 590 1031 347 1031 q 972 889 833 1031 q 1111 505 1111 748 m 766 249 q 822 358 804 295 q 840 505 840 420 q 819 660 840 596 q 764 763 798 724 q 685 822 730 804 q 591 840 640 840 q 497 823 541 840 q 417 764 454 805 q 362 660 383 726 q 340 505 340 593 q 361 351 340 414 q 416 248 382 288 q 495 189 450 208 q 591 170 541 170 q 686 189 641 170 q 766 249 732 208 m 830 1390 l 830 1376 l 591 1123 l 425 1123 l 592 1390 l 830 1390 z "},"Ô":{"ha":1181,"x_min":70,"x_max":1111,"o":"m 1111 505 q 972 121 1111 263 q 590 -21 834 -21 q 208 121 347 -21 q 70 505 70 263 q 208 889 70 748 q 590 1031 347 1031 q 972 889 833 1031 q 1111 505 1111 748 m 766 249 q 822 358 804 295 q 840 505 840 420 q 819 660 840 596 q 764 763 798 724 q 685 822 730 804 q 591 840 640 840 q 497 823 541 840 q 417 764 454 805 q 362 660 383 726 q 340 505 340 593 q 361 351 340 414 q 416 248 382 288 q 495 189 450 208 q 591 170 541 170 q 686 189 641 170 q 766 249 732 208 m 894 1123 l 715 1123 l 589 1272 l 465 1123 l 288 1123 l 506 1390 l 676 1390 l 894 1123 z "},"Ò":{"ha":1181,"x_min":70,"x_max":1111,"o":"m 1111 505 q 972 121 1111 263 q 590 -21 834 -21 q 208 121 347 -21 q 70 505 70 263 q 208 889 70 748 q 590 1031 347 1031 q 972 889 833 1031 q 1111 505 1111 748 m 766 249 q 822 358 804 295 q 840 505 840 420 q 819 660 840 596 q 764 763 798 724 q 685 822 730 804 q 591 840 640 840 q 497 823 541 840 q 417 764 454 805 q 362 660 383 726 q 340 505 340 593 q 361 351 340 414 q 416 248 382 288 q 495 189 450 208 q 591 170 541 170 q 686 189 641 170 q 766 249 732 208 m 756 1123 l 589 1123 l 351 1376 l 351 1390 l 589 1390 l 756 1123 z "},"Ú":{"ha":1128,"x_min":115,"x_max":1013,"o":"m 1013 366 q 899 79 1013 178 q 564 -21 785 -21 q 228 79 342 -21 q 115 365 115 178 l 115 1010 l 376 1010 l 376 380 q 420 223 376 275 q 564 172 465 172 q 706 221 661 172 q 751 380 751 271 l 751 1010 l 1013 1010 l 1013 366 m 762 1390 l 762 1376 l 524 1123 l 357 1123 l 524 1390 l 762 1390 z "},"Û":{"ha":1128,"x_min":115,"x_max":1013,"o":"m 1013 366 q 899 79 1013 178 q 564 -21 785 -21 q 228 79 342 -21 q 115 365 115 178 l 115 1010 l 376 1010 l 376 380 q 420 223 376 275 q 564 172 465 172 q 706 221 661 172 q 751 380 751 271 l 751 1010 l 1013 1010 l 1013 366 m 867 1123 l 688 1123 l 563 1272 l 438 1123 l 262 1123 l 479 1390 l 650 1390 l 867 1123 z "},"Ù":{"ha":1128,"x_min":115,"x_max":1013,"o":"m 1013 366 q 899 79 1013 178 q 564 -21 785 -21 q 228 79 342 -21 q 115 365 115 178 l 115 1010 l 376 1010 l 376 380 q 420 223 376 275 q 564 172 465 172 q 706 221 661 172 q 751 380 751 271 l 751 1010 l 1013 1010 l 1013 366 m 754 1123 l 587 1123 l 349 1376 l 349 1390 l 587 1390 l 754 1123 z "},"ı":{"ha":475,"x_min":115,"x_max":359,"o":"m 359 0 l 115 0 l 115 762 l 359 762 l 359 0 z "},"ˆ":{"ha":987,"x_min":191,"x_max":797,"o":"m 797 870 l 618 870 l 492 1019 l 368 870 l 191 870 l 409 1137 l 579 1137 l 797 870 z "},"˜":{"ha":987,"x_min":193,"x_max":795,"o":"m 795 1097 q 739 927 788 983 q 602 872 690 872 q 541 885 570 872 q 488 911 512 897 q 442 938 467 924 q 399 951 416 951 q 355 929 366 951 q 342 868 344 907 l 193 868 q 250 1031 197 970 q 386 1093 302 1093 q 448 1081 418 1093 q 501 1055 477 1069 q 548 1029 526 1041 q 588 1017 570 1017 q 633 1039 621 1017 q 646 1097 645 1061 l 795 1097 z "},"ˉ":{"ha":987,"x_min":222,"x_max":766,"o":"m 766 913 l 222 913 l 222 1055 l 766 1055 l 766 913 z "},"˘":{"ha":987,"x_min":232,"x_max":756,"o":"m 756 1109 q 688 920 756 989 q 494 851 619 851 q 301 917 370 851 q 232 1109 232 982 l 383 1109 q 411 1005 383 1040 q 494 971 438 971 q 576 1005 547 971 q 605 1109 605 1040 l 756 1109 z "},"˙":{"ha":987,"x_min":368,"x_max":619,"o":"m 619 870 l 368 870 l 368 1055 l 619 1055 l 619 870 z "},"˚":{"ha":987,"x_min":278,"x_max":709,"o":"m 709 964 q 647 818 709 877 q 494 760 585 760 q 341 818 404 760 q 278 964 278 876 q 341 1109 278 1051 q 494 1168 404 1168 q 647 1109 585 1168 q 709 964 709 1050 m 586 963 q 560 1034 586 1005 q 494 1063 534 1063 q 428 1035 454 1063 q 401 963 401 1006 q 427 892 401 920 q 494 864 453 864 q 560 892 534 864 q 586 963 586 921 z "},"¸":{"ha":987,"x_min":294,"x_max":682,"o":"m 682 -58 q 615 -228 682 -168 q 439 -287 547 -287 q 370 -283 415 -287 q 294 -271 325 -279 l 294 -135 l 310 -135 q 357 -151 326 -142 q 417 -159 389 -159 q 500 -131 471 -159 q 529 -50 529 -102 q 528 -15 529 -35 q 528 14 528 5 l 679 14 q 681 -20 680 1 q 682 -58 682 -41 z "},"˝":{"ha":987,"x_min":227,"x_max":844,"o":"m 844 1137 l 663 870 l 514 870 l 635 1137 l 844 1137 m 557 1137 l 375 870 l 227 870 l 348 1137 l 557 1137 z "},"˛":{"ha":987,"x_min":304,"x_max":686,"o":"m 686 -267 q 610 -279 654 -275 q 543 -283 567 -283 q 366 -227 427 -283 q 304 -67 304 -171 q 306 -24 304 -43 q 308 7 307 -5 l 453 7 q 451 -21 452 -10 q 450 -57 450 -31 q 483 -126 450 -98 q 573 -154 515 -154 q 634 -146 602 -154 q 680 -131 666 -138 l 686 -131 l 686 -267 z "},"ˇ":{"ha":987,"x_min":192,"x_max":798,"o":"m 798 1137 l 580 870 l 410 870 l 192 1137 l 371 1137 l 496 983 l 621 1137 l 798 1137 z "},"Ł":{"ha":892,"x_min":16,"x_max":861,"o":"m 861 0 l 132 0 l 132 322 l 16 227 l 16 400 l 132 493 l 132 1010 l 393 1010 l 393 680 l 625 867 l 625 694 l 393 509 l 393 195 l 861 195 l 861 0 z "},"ł":{"ha":488,"x_min":16,"x_max":473,"o":"m 473 597 l 366 512 l 366 0 l 122 0 l 122 373 l 16 287 l 16 445 l 122 529 l 122 1055 l 366 1055 l 366 669 l 473 755 l 473 597 z "},"Š":{"ha":987,"x_min":74,"x_max":937,"o":"m 937 317 q 811 75 937 168 q 467 -18 684 -18 q 249 4 342 -18 q 74 60 155 26 l 74 302 l 102 302 q 283 203 183 237 q 475 168 383 168 q 538 172 499 168 q 601 186 576 176 q 650 216 631 198 q 669 271 669 235 q 641 328 669 304 q 559 365 613 352 q 438 390 502 378 q 319 420 375 402 q 136 533 192 462 q 80 709 80 604 q 207 939 80 850 q 532 1028 333 1028 q 729 1009 631 1028 q 897 960 826 989 l 897 728 l 869 728 q 720 809 808 777 q 539 842 631 842 q 474 838 507 842 q 412 821 442 833 q 367 790 386 811 q 348 743 348 770 q 378 682 348 703 q 494 643 409 661 q 601 621 549 631 q 711 591 652 610 q 882 487 827 553 q 937 317 937 422 m 811 1390 l 593 1123 l 423 1123 l 205 1390 l 385 1390 l 510 1236 l 635 1390 l 811 1390 z "},"š":{"ha":824,"x_min":64,"x_max":777,"o":"m 777 241 q 671 51 777 123 q 382 -21 566 -21 q 197 -2 280 -21 q 64 40 115 17 l 64 241 l 87 241 q 129 213 105 228 q 197 180 153 197 q 283 153 235 164 q 387 142 332 142 q 493 158 458 142 q 528 205 528 174 q 507 245 528 233 q 430 269 487 258 q 356 282 403 275 q 272 300 310 290 q 118 384 168 327 q 68 527 68 441 q 172 710 68 637 q 456 783 276 783 q 620 765 542 783 q 743 728 699 748 l 743 536 l 722 536 q 598 596 667 573 q 457 620 528 620 q 358 604 398 620 q 317 557 317 587 q 336 516 317 530 q 422 488 354 502 q 502 473 459 480 q 589 455 545 466 q 731 376 685 430 q 777 241 777 322 m 731 1137 l 513 870 l 343 870 l 125 1137 l 304 1137 l 430 983 l 555 1137 l 731 1137 z "},"Ž":{"ha":961,"x_min":61,"x_max":909,"o":"m 909 0 l 61 0 l 61 189 l 564 814 l 85 814 l 85 1010 l 882 1010 l 882 817 l 380 195 l 909 195 l 909 0 m 783 1390 l 565 1123 l 395 1123 l 177 1390 l 356 1390 l 481 1236 l 606 1390 l 783 1390 z "},"ž":{"ha":829,"x_min":57,"x_max":772,"o":"m 772 0 l 57 0 l 57 157 l 458 583 l 73 583 l 73 762 l 765 762 l 765 608 l 370 182 l 772 182 l 772 0 m 718 1137 l 500 870 l 330 870 l 112 1137 l 291 1137 l 416 983 l 541 1137 l 718 1137 z "},"¦":{"ha":755,"x_min":279,"x_max":476,"o":"m 476 514 l 279 514 l 279 1055 l 476 1055 l 476 514 m 476 -266 l 279 -266 l 279 275 l 476 275 l 476 -266 z "},"Ð":{"ha":1153,"x_min":19,"x_max":1083,"o":"m 1083 504 q 1019 251 1083 363 q 856 80 954 140 q 694 18 782 35 q 485 0 606 0 l 129 0 l 129 460 l 19 460 l 19 618 l 129 618 l 129 1010 l 495 1010 q 708 989 618 1010 q 859 930 798 968 q 1023 759 963 867 q 1083 504 1083 650 m 814 506 q 778 676 814 606 q 663 787 741 747 q 581 814 623 807 q 455 821 539 821 l 389 821 l 389 618 l 604 618 l 604 460 l 389 460 l 389 189 l 455 189 q 591 198 548 189 q 676 229 635 206 q 781 337 747 269 q 814 506 814 406 z "},"ð":{"ha":943,"x_min":59,"x_max":880,"o":"m 823 716 q 864 593 848 660 q 880 448 880 526 q 773 102 880 228 q 465 -24 667 -24 q 167 77 275 -24 q 59 351 59 177 q 89 498 59 433 q 170 609 118 563 q 289 676 220 653 q 433 699 357 699 q 528 688 486 699 q 606 660 571 677 q 559 745 591 699 q 485 831 526 791 l 258 741 l 205 861 l 378 926 q 276 998 323 969 q 192 1038 228 1027 l 192 1055 l 500 1055 q 527 1040 508 1053 q 578 1004 546 1027 l 733 1067 l 785 949 l 688 909 q 760 823 725 870 q 823 716 795 775 m 629 412 q 628 451 629 429 q 624 483 626 472 q 554 523 590 509 q 477 536 517 536 q 354 489 395 536 q 313 355 313 442 q 354 202 313 258 q 473 146 394 146 q 590 210 551 146 q 629 412 629 273 z "},"Ý":{"ha":1023,"x_min":6,"x_max":1017,"o":"m 1017 1010 l 645 391 l 645 0 l 385 0 l 385 378 l 6 1010 l 302 1010 l 520 619 l 731 1010 l 1017 1010 m 734 1390 l 734 1376 l 496 1123 l 329 1123 l 496 1390 l 734 1390 z "},"ý":{"ha":904,"x_min":20,"x_max":884,"o":"m 459 269 l 633 762 l 884 762 l 460 -279 l 196 -279 l 317 5 l 20 762 l 277 762 l 459 269 m 707 1137 l 707 1123 l 469 870 l 302 870 l 469 1137 l 707 1137 z "},"Þ":{"ha":1021,"x_min":129,"x_max":962,"o":"m 962 538 q 938 405 962 469 q 869 297 914 341 q 735 211 814 243 q 542 178 657 178 l 389 178 l 389 0 l 129 0 l 129 1010 l 389 1010 l 389 857 l 548 857 q 712 841 645 857 q 834 791 779 825 q 929 688 897 751 q 962 538 962 625 m 693 532 q 671 607 693 576 q 616 650 650 637 q 538 667 575 665 q 436 669 502 669 l 389 669 l 389 366 l 453 366 q 569 373 523 366 q 646 406 614 380 q 682 457 671 429 q 693 532 693 485 z "},"þ":{"ha":971,"x_min":115,"x_max":910,"o":"m 910 391 q 881 220 910 297 q 806 92 852 142 q 695 12 757 39 q 563 -15 633 -15 q 452 -1 498 -15 q 359 38 407 13 l 359 -279 l 115 -279 l 115 1055 l 359 1055 l 359 682 q 474 755 416 727 q 610 783 533 783 q 831 678 752 783 q 910 391 910 574 m 659 387 q 621 548 659 498 q 500 598 583 598 q 429 588 466 598 q 359 557 393 577 l 359 174 q 412 162 384 165 q 467 159 439 159 q 611 216 564 159 q 659 387 659 273 z "},"−":{"ha":1204,"x_min":160,"x_max":1044,"o":"m 1044 358 l 160 358 l 160 540 l 1044 540 l 1044 358 z "},"×":{"ha":1204,"x_min":179,"x_max":1025,"o":"m 1025 745 l 729 449 l 1025 153 l 899 26 l 602 322 l 306 26 l 179 153 l 475 449 l 179 745 l 306 872 l 602 576 l 899 872 l 1025 745 z "},"¹":{"ha":830,"x_min":189,"x_max":669,"o":"m 669 384 l 195 384 l 195 511 l 342 511 l 342 800 l 189 800 l 189 921 q 314 941 267 921 q 367 1013 361 961 l 528 1013 l 528 511 l 669 511 l 669 384 z "},"²":{"ha":830,"x_min":156,"x_max":703,"o":"m 703 384 l 156 384 l 156 512 q 254 572 203 540 q 340 633 304 605 q 434 727 416 692 q 453 800 453 763 q 426 861 453 840 q 345 882 398 882 q 259 866 306 882 q 176 828 213 850 l 160 828 l 160 989 q 269 1017 204 1004 q 399 1030 334 1030 q 592 981 524 1030 q 661 836 661 931 q 637 731 661 781 q 532 610 613 681 q 475 565 509 589 q 417 524 441 541 l 703 524 l 703 384 z "},"³":{"ha":830,"x_min":152,"x_max":686,"o":"m 686 562 q 613 417 686 467 q 395 368 539 368 q 248 380 307 368 q 152 407 189 392 l 152 553 l 167 553 q 249 522 195 538 q 355 506 303 506 q 455 522 422 506 q 489 575 489 537 q 467 623 489 608 q 380 637 445 637 l 277 637 l 277 770 l 370 770 q 446 784 420 770 q 472 833 472 799 q 444 878 472 864 q 355 892 416 892 q 258 876 311 892 q 178 844 205 859 l 162 844 l 162 989 q 266 1017 205 1004 q 407 1030 326 1030 q 599 989 528 1030 q 671 869 671 949 q 638 770 671 808 q 553 715 605 732 l 553 710 q 649 661 612 699 q 686 562 686 623 z "},"½":{"ha":1641,"x_min":121,"x_max":1548,"o":"m 468 379 l 280 379 l 280 791 l 121 791 l 121 914 q 248 938 197 914 q 304 1013 298 962 l 468 1013 l 468 379 m 1122 1016 l 589 0 l 407 0 l 939 1016 l 1122 1016 m 1548 -1 l 1001 -1 l 1001 127 q 1099 188 1048 155 q 1185 248 1149 220 q 1279 343 1261 307 q 1298 415 1298 378 q 1271 476 1298 455 q 1190 498 1243 498 q 1104 481 1151 498 q 1021 444 1058 465 l 1005 444 l 1005 604 q 1114 633 1049 620 q 1244 646 1179 646 q 1437 596 1369 646 q 1506 452 1506 547 q 1482 347 1506 397 q 1377 225 1458 296 q 1320 181 1354 205 q 1262 139 1286 157 l 1548 139 l 1548 -1 z "},"¼":{"ha":1641,"x_min":135,"x_max":1534,"o":"m 481 379 l 294 379 l 294 791 l 135 791 l 135 914 q 261 938 211 914 q 317 1013 312 962 l 481 1013 l 481 379 m 1145 1016 l 613 0 l 431 0 l 963 1016 l 1145 1016 m 1534 134 l 1421 134 l 1421 0 l 1243 0 l 1243 134 l 922 134 l 922 311 l 1233 640 l 1421 640 l 1421 260 l 1534 260 l 1534 134 m 1246 260 l 1246 489 l 1025 260 l 1246 260 z "},"¾":{"ha":1641,"x_min":120,"x_max":1567,"o":"m 654 562 q 581 417 654 467 q 363 368 507 368 q 216 380 275 368 q 120 407 157 392 l 120 553 l 135 553 q 217 522 163 538 q 323 506 271 506 q 424 522 390 506 q 457 575 457 537 q 435 623 457 608 q 349 637 413 637 l 245 637 l 245 770 l 338 770 q 414 784 389 770 q 440 833 440 799 q 412 878 440 864 q 323 892 384 892 q 226 876 279 892 q 146 844 174 859 l 130 844 l 130 989 q 234 1017 174 1004 q 375 1030 294 1030 q 567 989 496 1030 q 639 869 639 949 q 606 770 639 808 q 522 715 573 732 l 522 710 q 617 661 581 699 q 654 562 654 623 m 1210 1016 l 677 0 l 495 0 l 1027 1016 l 1210 1016 m 1567 134 l 1454 134 l 1454 0 l 1276 0 l 1276 134 l 955 134 l 955 311 l 1266 640 l 1454 640 l 1454 260 l 1567 260 l 1567 134 m 1279 260 l 1279 489 l 1058 260 l 1279 260 z "},"₣":{"ha":987,"x_min":68,"x_max":888,"o":"m 888 814 l 440 814 l 440 644 l 861 644 l 861 449 l 440 449 l 440 323 l 679 323 l 679 174 l 440 174 l 440 0 l 188 0 l 188 174 l 68 174 l 68 323 l 188 323 l 188 1010 l 888 1010 l 888 814 z "},"Ğ":{"ha":1126,"x_min":70,"x_max":1022,"o":"m 1022 58 q 842 5 954 31 q 619 -21 730 -21 q 216 119 361 -21 q 70 506 70 259 q 217 885 70 741 q 627 1029 364 1029 q 817 1011 727 1029 q 1018 940 907 994 l 1018 703 l 989 703 q 933 744 970 718 q 863 788 897 770 q 771 825 823 810 q 659 841 718 841 q 534 821 590 841 q 433 758 477 800 q 365 655 390 718 q 340 510 340 592 q 429 254 340 342 q 692 165 518 165 q 725 165 707 165 q 758 168 743 166 l 758 366 l 556 366 l 556 556 l 1022 556 l 1022 58 m 862 1362 q 793 1173 862 1242 q 600 1104 725 1104 q 407 1170 475 1104 q 338 1362 338 1235 l 489 1362 q 516 1258 489 1293 q 600 1224 544 1224 q 682 1258 653 1224 q 711 1362 711 1293 l 862 1362 z "},"ğ":{"ha":971,"x_min":61,"x_max":856,"o":"m 856 87 q 825 -93 856 -20 q 740 -208 795 -166 q 607 -268 685 -250 q 432 -287 530 -287 q 276 -277 353 -287 q 142 -254 199 -268 l 142 -64 l 172 -64 q 281 -96 217 -81 q 397 -111 346 -111 q 507 -98 465 -111 q 572 -62 549 -85 q 602 -7 593 -41 q 612 75 612 27 l 612 89 q 514 32 568 53 q 395 11 460 11 q 148 107 235 11 q 61 400 61 203 q 87 563 61 494 q 162 682 114 631 q 272 756 207 730 q 406 783 338 783 q 518 768 468 783 q 610 728 569 753 l 619 762 l 856 762 l 856 87 m 612 240 l 612 585 q 560 599 591 594 q 505 604 530 604 q 361 549 409 604 q 313 395 313 494 q 354 241 313 285 q 475 198 395 198 q 547 210 512 198 q 612 240 583 221 m 754 1109 q 686 920 754 989 q 492 851 617 851 q 299 917 368 851 q 230 1109 230 982 l 381 1109 q 409 1005 381 1040 q 492 971 436 971 q 574 1005 545 971 q 603 1109 603 1040 l 754 1109 z "},"İ":{"ha":758,"x_min":83,"x_max":675,"o":"m 675 0 l 83 0 l 83 179 l 249 179 l 249 831 l 83 831 l 83 1010 l 675 1010 l 675 831 l 509 831 l 509 179 l 675 179 l 675 0 m 504 1123 l 253 1123 l 253 1308 l 504 1308 l 504 1123 z "},"Ş":{"ha":987,"x_min":74,"x_max":937,"o":"m 538 -14 q 503 -16 522 -16 q 467 -17 485 -17 q 249 4 342 -17 q 74 60 155 26 l 74 302 l 102 302 q 283 203 183 237 q 475 168 383 168 q 538 172 499 168 q 601 186 576 176 q 650 216 631 198 q 669 271 669 235 q 641 328 669 304 q 559 365 613 352 q 438 390 502 378 q 319 420 375 402 q 136 533 192 462 q 80 709 80 604 q 207 939 80 850 q 532 1028 333 1028 q 729 1009 631 1028 q 897 960 826 989 l 897 728 l 869 728 q 720 809 808 777 q 539 842 631 842 q 474 838 507 842 q 412 821 442 833 q 367 790 386 811 q 348 743 348 770 q 378 682 348 703 q 494 643 409 661 q 601 621 549 631 q 711 591 652 610 q 882 487 827 553 q 937 317 937 422 q 873 133 937 212 q 688 15 809 54 q 690 -21 689 1 q 691 -58 691 -43 q 624 -228 691 -168 q 448 -287 556 -287 q 379 -283 424 -287 q 303 -271 334 -279 l 303 -135 l 319 -135 q 366 -151 335 -142 q 426 -159 397 -159 q 509 -131 480 -159 q 538 -50 538 -102 l 538 -14 z "},"ş":{"ha":824,"x_min":64,"x_max":777,"o":"m 451 -17 q 417 -19 435 -18 q 382 -20 399 -20 q 197 -1 280 -20 q 64 40 115 17 l 64 241 l 87 241 q 129 213 105 228 q 197 180 153 197 q 283 153 235 165 q 387 142 332 142 q 493 158 458 142 q 528 205 528 174 q 507 245 528 233 q 430 269 487 258 q 356 282 402 275 q 272 300 310 290 q 118 384 168 327 q 68 527 68 441 q 172 710 68 637 q 456 783 276 783 q 620 765 542 783 q 743 728 699 748 l 743 536 l 722 536 q 598 596 667 573 q 457 620 528 620 q 358 604 398 620 q 317 557 317 587 q 336 516 317 530 q 422 488 354 502 q 502 473 459 480 q 589 455 545 466 q 731 376 685 430 q 777 241 777 322 q 731 106 777 165 q 601 16 685 48 q 603 -20 602 2 q 604 -58 604 -43 q 537 -228 604 -168 q 361 -287 469 -287 q 292 -283 337 -287 q 216 -271 247 -279 l 216 -135 l 232 -135 q 279 -151 248 -142 q 339 -159 311 -159 q 422 -131 393 -159 q 451 -50 451 -102 l 451 -17 z "},"Ć":{"ha":1005,"x_min":70,"x_max":943,"o":"m 585 -20 q 377 14 473 -20 q 214 113 282 47 q 107 277 145 178 q 70 504 70 375 q 106 722 70 624 q 210 889 142 819 q 373 993 276 956 q 586 1029 471 1029 q 701 1022 650 1029 q 795 1004 752 1015 q 878 975 841 991 q 943 945 915 959 l 943 701 l 913 701 q 865 739 894 717 q 800 783 836 762 q 719 820 762 805 q 626 835 675 835 q 522 818 571 835 q 430 760 472 800 q 365 658 390 722 q 340 503 340 594 q 367 345 340 408 q 435 244 394 281 q 527 191 476 207 q 627 175 578 175 q 721 189 675 175 q 807 228 768 203 q 869 270 840 248 q 916 309 897 292 l 943 309 l 943 67 q 870 35 905 50 q 798 9 836 20 q 705 -12 748 -5 q 585 -20 661 -20 m 804 1390 l 804 1376 l 565 1123 l 398 1123 l 566 1390 l 804 1390 z "},"ć":{"ha":817,"x_min":60,"x_max":771,"o":"m 512 -20 q 330 3 412 -20 q 186 77 248 27 q 93 201 126 126 q 60 378 60 277 q 95 562 60 484 q 195 690 131 639 q 337 760 256 738 q 505 783 418 783 q 648 766 583 783 q 771 722 714 749 l 771 513 l 736 513 q 702 542 722 526 q 653 574 682 558 q 592 598 625 589 q 515 608 559 608 q 365 546 417 608 q 312 378 312 484 q 366 211 312 268 q 519 154 420 154 q 602 164 565 154 q 663 189 639 175 q 704 218 686 203 q 736 247 722 233 l 771 247 l 771 39 q 651 -4 713 12 q 512 -20 588 -20 m 719 1137 l 719 1123 l 480 870 l 313 870 l 481 1137 l 719 1137 z "},"Č":{"ha":1005,"x_min":70,"x_max":943,"o":"m 585 -20 q 377 14 473 -20 q 214 113 282 47 q 107 277 145 178 q 70 504 70 375 q 106 722 70 624 q 210 889 142 819 q 373 993 276 956 q 586 1029 471 1029 q 701 1022 650 1029 q 795 1004 752 1015 q 878 975 841 991 q 943 945 915 959 l 943 701 l 913 701 q 865 739 894 717 q 800 783 836 762 q 719 820 762 805 q 626 835 675 835 q 522 818 571 835 q 430 760 472 800 q 365 658 390 722 q 340 503 340 594 q 367 345 340 408 q 435 244 394 281 q 527 191 476 207 q 627 175 578 175 q 721 189 675 175 q 807 228 768 203 q 869 270 840 248 q 916 309 897 292 l 943 309 l 943 67 q 870 35 905 50 q 798 9 836 20 q 705 -12 748 -5 q 585 -20 661 -20 m 876 1390 l 659 1123 l 488 1123 l 271 1390 l 450 1390 l 575 1236 l 700 1390 l 876 1390 z "},"č":{"ha":817,"x_min":60,"x_max":771,"o":"m 512 -20 q 330 3 412 -20 q 186 77 248 27 q 93 201 126 126 q 60 378 60 277 q 95 562 60 484 q 195 690 131 639 q 337 760 256 738 q 505 783 418 783 q 648 766 583 783 q 771 722 714 749 l 771 513 l 736 513 q 702 542 722 526 q 653 574 682 558 q 592 598 625 589 q 515 608 559 608 q 365 546 417 608 q 312 378 312 484 q 366 211 312 268 q 519 154 420 154 q 602 164 565 154 q 663 189 639 175 q 704 218 686 203 q 736 247 722 233 l 771 247 l 771 39 q 651 -4 713 12 q 512 -20 588 -20 m 765 1137 l 547 870 l 377 870 l 159 1137 l 338 1137 l 464 983 l 589 1137 l 765 1137 z "},"đ":{"ha":971,"x_min":61,"x_max":943,"o":"m 856 0 l 612 0 l 612 79 q 494 3 549 28 q 367 -21 439 -21 q 144 86 228 -21 q 61 375 61 193 q 89 547 61 472 q 166 675 117 622 q 278 754 212 726 q 410 783 344 783 q 522 768 478 783 q 612 731 566 753 l 612 839 l 391 839 l 391 979 l 612 979 l 612 1055 l 856 1055 l 856 979 l 943 979 l 943 839 l 856 839 l 856 0 m 612 210 l 612 584 q 557 600 586 595 q 505 604 529 604 q 361 544 409 604 q 313 378 313 484 q 351 215 313 266 q 475 165 390 165 q 546 177 509 165 q 612 210 583 190 z "},"¯":{"ha":987,"x_min":-11,"x_max":998,"o":"m 998 1104 l -11 1104 l -11 1247 l 998 1247 l 998 1104 z "},"·":{"ha":502,"x_min":124,"x_max":378,"o":"m 378 315 l 124 315 l 124 581 l 378 581 l 378 315 z "},"Ă":{"ha":1078,"x_min":16,"x_max":1062,"o":"m 1062 0 l 793 0 l 723 204 l 349 204 l 279 0 l 16 0 l 389 1010 l 689 1010 l 1062 0 m 660 389 l 536 751 l 412 389 l 660 389 m 801 1362 q 732 1173 801 1242 q 539 1104 664 1104 q 346 1170 414 1104 q 277 1362 277 1235 l 428 1362 q 455 1258 428 1293 q 539 1224 483 1224 q 621 1258 592 1224 q 650 1362 650 1293 l 801 1362 z "},"ă":{"ha":928,"x_min":58,"x_max":819,"o":"m 576 199 l 576 357 q 469 346 527 353 q 382 330 412 339 q 326 296 345 318 q 307 238 307 274 q 311 199 307 214 q 331 171 315 184 q 368 151 347 157 q 436 144 390 144 q 510 159 473 144 q 576 199 548 174 m 576 81 q 528 45 557 66 q 473 12 498 24 q 398 -13 437 -5 q 313 -20 359 -20 q 132 47 205 -20 q 58 218 58 114 q 96 355 58 302 q 201 438 133 408 q 370 481 269 469 q 578 500 470 494 l 578 505 q 526 592 578 568 q 374 616 475 616 q 245 594 314 616 q 147 562 177 573 l 125 562 l 125 745 q 251 769 163 755 q 425 783 338 783 q 726 719 633 783 q 819 518 819 655 l 819 0 l 576 0 l 576 81 m 719 1109 q 650 920 719 989 q 457 851 582 851 q 263 917 332 851 q 195 1109 195 982 l 346 1109 q 373 1005 346 1040 q 457 971 401 971 q 539 1005 510 971 q 568 1109 568 1040 l 719 1109 z "},"Ą":{"ha":1078,"x_min":16,"x_max":1133,"o":"m 760 1 q 764 16 760 1 q 776 50 769 30 l 723 204 l 349 204 l 279 0 l 16 0 l 389 1010 l 689 1010 l 1062 0 l 900 0 q 898 -28 899 -15 q 897 -57 897 -42 q 930 -126 897 -98 q 1020 -154 962 -154 q 1081 -146 1048 -154 q 1127 -131 1113 -138 l 1133 -131 l 1133 -267 q 1057 -279 1101 -275 q 990 -283 1014 -283 q 812 -227 874 -283 q 751 -67 751 -171 q 760 1 751 -27 m 660 389 l 536 751 l 412 389 l 660 389 z "},"ą":{"ha":928,"x_min":58,"x_max":954,"o":"m 576 199 l 576 357 q 469 346 527 353 q 382 330 412 339 q 326 296 345 318 q 307 238 307 274 q 311 199 307 214 q 331 171 315 184 q 368 151 346 157 q 436 144 390 144 q 510 159 473 144 q 576 199 548 174 m 576 81 q 528 45 557 66 q 473 12 499 24 q 398 -13 437 -5 q 313 -20 359 -20 q 132 47 205 -20 q 58 218 58 114 q 96 355 58 302 q 201 438 133 408 q 370 481 269 468 q 578 500 470 494 l 578 505 q 526 592 578 568 q 374 616 475 616 q 245 594 314 616 q 147 562 177 573 l 125 562 l 125 745 q 251 769 163 755 q 425 783 338 783 q 726 719 633 783 q 819 518 819 655 l 819 0 l 720 0 q 718 -28 719 -15 q 718 -57 718 -42 q 750 -126 718 -98 q 840 -154 783 -154 q 901 -146 869 -154 q 947 -131 933 -138 l 954 -131 l 954 -267 q 878 -279 921 -275 q 810 -283 834 -283 q 633 -227 694 -283 q 571 -67 571 -171 q 573 25 571 -17 q 576 81 576 68 z "},"Ď":{"ha":1153,"x_min":129,"x_max":1083,"o":"m 1083 504 q 1019 251 1083 363 q 856 80 954 140 q 694 18 782 35 q 485 0 606 0 l 129 0 l 129 1010 l 495 1010 q 708 989 618 1010 q 859 930 798 968 q 1023 759 963 867 q 1083 504 1083 650 m 814 506 q 778 676 814 606 q 663 787 741 747 q 581 814 623 807 q 455 821 539 821 l 389 821 l 389 189 l 455 189 q 591 198 548 189 q 676 229 635 206 q 781 337 747 269 q 814 506 814 406 m 859 1390 l 642 1123 l 471 1123 l 254 1390 l 433 1390 l 558 1236 l 683 1390 l 859 1390 z "},"ď":{"ha":1222,"x_min":61,"x_max":1289,"o":"m 856 0 l 612 0 l 612 79 q 494 3 549 28 q 367 -21 439 -21 q 144 86 228 -21 q 61 375 61 193 q 89 547 61 472 q 166 675 117 622 q 278 754 212 726 q 410 783 344 783 q 522 768 478 783 q 612 731 566 753 l 612 1055 l 856 1055 l 856 0 m 612 210 l 612 584 q 557 600 586 595 q 505 604 529 604 q 361 544 409 604 q 313 378 313 484 q 351 215 313 266 q 475 165 390 165 q 546 177 509 165 q 612 210 583 190 m 1289 1055 l 1092 656 l 933 656 l 1040 1055 l 1289 1055 z "},"Đ":{"ha":1153,"x_min":19,"x_max":1083,"o":"m 1083 504 q 1019 251 1083 363 q 856 80 954 140 q 694 18 782 35 q 485 0 606 0 l 129 0 l 129 460 l 19 460 l 19 618 l 129 618 l 129 1010 l 495 1010 q 708 989 618 1010 q 859 930 798 968 q 1023 759 963 867 q 1083 504 1083 650 m 814 506 q 778 676 814 606 q 663 787 741 747 q 581 814 623 807 q 455 821 539 821 l 389 821 l 389 618 l 604 618 l 604 460 l 389 460 l 389 189 l 455 189 q 591 198 548 189 q 676 229 635 206 q 781 337 747 269 q 814 506 814 406 z "},"Ę":{"ha":949,"x_min":129,"x_max":916,"o":"m 536 0 l 129 0 l 129 1010 l 859 1010 l 859 814 l 388 814 l 388 640 l 825 640 l 825 445 l 388 445 l 388 195 l 859 195 l 859 0 l 682 0 q 681 -24 682 -8 q 680 -57 680 -39 q 712 -126 680 -98 q 802 -154 745 -154 q 863 -146 831 -154 q 909 -131 895 -138 l 916 -131 l 916 -267 q 840 -279 883 -275 q 772 -283 796 -283 q 595 -227 656 -283 q 533 -67 533 -171 q 534 -27 533 -43 q 536 0 536 -12 z "},"ę":{"ha":922,"x_min":60,"x_max":865,"o":"m 799 -146 q 815 -142 799 -146 q 845 -131 831 -138 l 851 -131 l 851 -267 q 775 -279 819 -275 q 708 -283 732 -283 q 530 -227 592 -283 q 469 -67 469 -171 q 469 -41 469 -52 q 471 -18 470 -30 q 165 98 271 -4 q 60 376 60 199 q 175 675 60 565 q 492 785 291 785 q 772 691 678 785 q 865 421 865 597 l 865 336 l 307 336 q 375 199 312 246 q 559 151 437 151 q 709 179 637 151 q 824 239 782 207 l 851 239 l 851 43 q 733 3 789 18 q 616 -17 676 -12 q 615 -32 615 -24 q 615 -57 615 -39 q 648 -126 615 -98 q 738 -154 680 -154 q 799 -146 766 -154 m 623 479 q 585 594 621 555 q 473 633 549 633 q 357 596 402 633 q 306 479 311 559 l 623 479 z "},"Ě":{"ha":949,"x_min":129,"x_max":859,"o":"m 859 0 l 129 0 l 129 1010 l 859 1010 l 859 814 l 388 814 l 388 640 l 825 640 l 825 445 l 388 445 l 388 195 l 859 195 l 859 0 m 801 1390 l 583 1123 l 413 1123 l 195 1390 l 374 1390 l 500 1236 l 625 1390 l 801 1390 z "},"ě":{"ha":922,"x_min":60,"x_max":865,"o":"m 865 336 l 307 336 q 375 199 312 246 q 559 151 437 151 q 709 179 637 151 q 824 239 782 207 l 851 239 l 851 43 q 695 -5 768 9 q 533 -20 622 -20 q 182 83 304 -20 q 60 376 60 186 q 175 675 60 565 q 492 785 291 785 q 772 691 678 785 q 865 421 865 597 l 865 336 m 623 479 q 585 594 621 555 q 473 633 549 633 q 357 596 402 633 q 306 479 311 559 l 623 479 m 787 1137 l 570 870 l 399 870 l 182 1137 l 361 1137 l 486 983 l 611 1137 l 787 1137 z "},"Ĺ":{"ha":885,"x_min":129,"x_max":857,"o":"m 857 0 l 129 0 l 129 1010 l 389 1010 l 389 195 l 857 195 l 857 0 m 633 1390 l 633 1376 l 394 1123 l 227 1123 l 395 1390 l 633 1390 z "},"ĺ":{"ha":475,"x_min":82,"x_max":488,"o":"m 359 0 l 115 0 l 115 1055 l 359 1055 l 359 0 m 488 1390 l 488 1376 l 249 1123 l 82 1123 l 250 1390 l 488 1390 z "},"Ľ":{"ha":885,"x_min":129,"x_max":876,"o":"m 857 0 l 129 0 l 129 1010 l 389 1010 l 389 195 l 857 195 l 857 0 m 876 1055 l 678 656 l 519 656 l 626 1055 l 876 1055 z "},"ľ":{"ha":726,"x_min":115,"x_max":793,"o":"m 359 0 l 115 0 l 115 1055 l 359 1055 l 359 0 m 793 1055 l 595 656 l 437 656 l 543 1055 l 793 1055 z "},"Ŀ":{"ha":885,"x_min":129,"x_max":857,"o":"m 857 0 l 129 0 l 129 1010 l 389 1010 l 389 195 l 857 195 l 857 0 m 829 396 l 575 396 l 575 663 l 829 663 l 829 396 z "},"ŀ":{"ha":773,"x_min":115,"x_max":747,"o":"m 359 0 l 115 0 l 115 1055 l 359 1055 l 359 0 m 747 396 l 500 396 l 500 663 l 747 663 l 747 396 z "},"Ń":{"ha":1176,"x_min":129,"x_max":1047,"o":"m 1047 0 l 796 0 l 368 693 l 368 0 l 129 0 l 129 1010 l 440 1010 l 808 431 l 808 1010 l 1047 1010 l 1047 0 m 848 1390 l 848 1376 l 610 1123 l 443 1123 l 610 1390 l 848 1390 z "},"ń":{"ha":989,"x_min":115,"x_max":880,"o":"m 880 0 l 635 0 l 635 378 q 630 470 635 424 q 614 537 625 515 q 574 574 600 562 q 501 585 548 585 q 434 574 468 585 q 359 540 399 564 l 359 0 l 115 0 l 115 762 l 359 762 l 359 677 q 485 755 425 728 q 618 783 545 783 q 811 711 741 783 q 880 496 880 639 l 880 0 m 745 1137 l 745 1123 l 507 870 l 340 870 l 507 1137 l 745 1137 z "},"Ň":{"ha":1176,"x_min":129,"x_max":1047,"o":"m 1047 0 l 796 0 l 368 693 l 368 0 l 129 0 l 129 1010 l 440 1010 l 808 431 l 808 1010 l 1047 1010 l 1047 0 m 904 1390 l 686 1123 l 516 1123 l 298 1390 l 477 1390 l 603 1236 l 728 1390 l 904 1390 z "},"ň":{"ha":989,"x_min":115,"x_max":880,"o":"m 880 0 l 635 0 l 635 378 q 630 470 635 424 q 614 537 625 515 q 574 574 600 562 q 501 585 548 585 q 434 574 468 585 q 359 540 399 564 l 359 0 l 115 0 l 115 762 l 359 762 l 359 677 q 485 755 425 728 q 618 783 545 783 q 811 711 741 783 q 880 496 880 639 l 880 0 m 806 1137 l 589 870 l 418 870 l 201 1137 l 380 1137 l 505 983 l 630 1137 l 806 1137 z "},"Ő":{"ha":1181,"x_min":70,"x_max":1111,"o":"m 1111 505 q 972 121 1111 263 q 590 -21 834 -21 q 208 121 347 -21 q 70 505 70 263 q 208 889 70 748 q 590 1031 347 1031 q 972 889 833 1031 q 1111 505 1111 748 m 766 249 q 822 358 804 295 q 840 505 840 420 q 819 660 840 596 q 764 763 798 724 q 685 822 730 804 q 591 840 640 840 q 497 823 541 840 q 417 764 454 805 q 362 660 383 726 q 340 505 340 593 q 361 351 340 414 q 416 248 382 288 q 495 189 450 208 q 591 170 541 170 q 686 189 641 170 q 766 249 732 208 m 946 1390 l 764 1123 l 616 1123 l 737 1390 l 946 1390 m 659 1390 l 477 1123 l 328 1123 l 450 1390 l 659 1390 z "},"ő":{"ha":954,"x_min":60,"x_max":894,"o":"m 894 380 q 784 84 894 193 q 477 -24 675 -24 q 169 84 279 -24 q 60 380 60 193 q 170 677 60 570 q 477 785 280 785 q 785 677 676 785 q 894 380 894 568 m 593 195 q 629 266 617 224 q 641 379 641 307 q 629 492 641 446 q 595 564 616 537 q 543 604 573 592 q 477 615 512 615 q 414 606 441 615 q 361 568 387 596 q 326 495 339 541 q 313 379 313 449 q 324 271 313 317 q 358 197 336 225 q 410 159 380 171 q 479 146 440 146 q 542 158 512 146 q 593 195 572 169 m 837 1137 l 655 870 l 507 870 l 628 1137 l 837 1137 m 549 1137 l 368 870 l 219 870 l 340 1137 l 549 1137 z "},"Ŕ":{"ha":1086,"x_min":129,"x_max":1101,"o":"m 695 701 q 680 766 695 739 q 626 808 664 793 q 564 822 600 819 q 482 824 529 824 l 388 824 l 388 552 l 468 552 q 572 558 530 552 q 643 586 614 564 q 683 632 670 607 q 695 701 695 658 m 1101 0 l 783 0 l 508 370 l 388 370 l 388 0 l 129 0 l 129 1010 l 566 1010 q 720 1000 655 1010 q 840 956 784 989 q 931 868 897 922 q 964 732 964 814 q 912 550 964 621 q 764 433 861 479 l 1101 0 m 789 1390 l 789 1376 l 550 1123 l 383 1123 l 551 1390 l 789 1390 z "},"ŕ":{"ha":690,"x_min":115,"x_max":667,"o":"m 667 529 l 646 529 q 595 537 630 534 q 538 540 561 540 q 446 533 486 540 q 359 510 406 526 l 359 0 l 115 0 l 115 762 l 359 762 l 359 650 q 500 742 440 719 q 610 764 559 764 q 639 764 623 764 q 667 762 655 763 l 667 529 m 626 1137 l 626 1123 l 387 870 l 220 870 l 388 1137 l 626 1137 z "},"Ř":{"ha":1086,"x_min":129,"x_max":1101,"o":"m 695 701 q 680 766 695 739 q 626 808 664 793 q 564 822 600 819 q 482 824 529 824 l 388 824 l 388 552 l 468 552 q 572 558 530 552 q 643 586 614 564 q 683 632 670 607 q 695 701 695 658 m 1101 0 l 783 0 l 508 370 l 388 370 l 388 0 l 129 0 l 129 1010 l 566 1010 q 720 1000 655 1010 q 840 956 784 989 q 931 868 897 922 q 964 732 964 814 q 912 550 964 621 q 764 433 861 479 l 1101 0 m 836 1390 l 618 1123 l 448 1123 l 231 1390 l 410 1390 l 535 1236 l 660 1390 l 836 1390 z "},"ř":{"ha":690,"x_min":72,"x_max":677,"o":"m 667 529 l 646 529 q 595 537 630 534 q 538 540 561 540 q 446 533 486 540 q 359 510 406 526 l 359 0 l 115 0 l 115 762 l 359 762 l 359 650 q 500 742 440 719 q 610 764 559 764 q 639 764 623 764 q 667 762 655 763 l 667 529 m 677 1137 l 460 870 l 290 870 l 72 1137 l 251 1137 l 376 983 l 501 1137 l 677 1137 z "},"Ś":{"ha":987,"x_min":74,"x_max":937,"o":"m 937 317 q 811 75 937 168 q 467 -18 684 -18 q 249 4 342 -18 q 74 60 155 26 l 74 302 l 102 302 q 283 203 183 237 q 475 168 383 168 q 538 172 499 168 q 601 186 576 176 q 650 216 631 198 q 669 271 669 235 q 641 328 669 304 q 559 365 613 352 q 438 390 502 378 q 319 420 375 402 q 136 533 192 462 q 80 709 80 604 q 207 939 80 850 q 532 1028 333 1028 q 729 1009 631 1028 q 897 960 826 989 l 897 728 l 869 728 q 720 809 808 777 q 539 842 631 842 q 474 838 507 842 q 412 821 442 833 q 367 790 386 811 q 348 743 348 770 q 378 682 348 703 q 494 643 409 661 q 601 621 549 631 q 711 591 652 610 q 882 487 827 553 q 937 317 937 422 m 781 1390 l 781 1376 l 542 1123 l 375 1123 l 543 1390 l 781 1390 z "},"ś":{"ha":824,"x_min":64,"x_max":777,"o":"m 777 241 q 671 51 777 123 q 382 -21 566 -21 q 197 -2 280 -21 q 64 40 115 17 l 64 241 l 87 241 q 129 213 105 228 q 197 180 153 197 q 283 153 235 164 q 387 142 332 142 q 493 158 458 142 q 528 205 528 174 q 507 245 528 233 q 430 269 487 258 q 356 282 403 275 q 272 300 310 290 q 118 384 168 327 q 68 527 68 441 q 172 710 68 637 q 456 783 276 783 q 620 765 542 783 q 743 728 699 748 l 743 536 l 722 536 q 598 596 667 573 q 457 620 528 620 q 358 604 398 620 q 317 557 317 587 q 336 516 317 530 q 422 488 354 502 q 502 473 459 480 q 589 455 545 466 q 731 376 685 430 q 777 241 777 322 m 685 1137 l 685 1123 l 446 870 l 279 870 l 447 1137 l 685 1137 z "},"Ţ":{"ha":947,"x_min":28,"x_max":919,"o":"m 919 814 l 604 814 l 604 14 l 664 14 q 666 -20 665 1 q 667 -58 667 -41 q 600 -228 667 -168 q 424 -287 532 -287 q 355 -283 400 -287 q 279 -271 310 -279 l 279 -135 l 295 -135 q 342 -151 311 -142 q 402 -159 374 -159 q 485 -131 456 -159 q 514 -50 514 -102 q 514 -20 514 -35 q 513 0 513 -6 l 343 0 l 343 814 l 28 814 l 28 1010 l 919 1010 l 919 814 z "},"ţ":{"ha":633,"x_min":29,"x_max":602,"o":"m 401 -50 q 401 -33 401 -43 q 401 -15 401 -24 q 197 45 264 -13 q 130 240 130 104 l 130 596 l 29 596 l 29 762 l 130 762 l 130 979 l 374 979 l 374 762 l 602 762 l 602 596 l 374 596 l 374 326 q 374 256 374 286 q 385 203 375 227 q 419 165 395 179 q 489 151 443 151 q 539 159 508 151 q 582 174 570 168 l 602 174 l 602 7 q 577 1 590 4 q 552 -4 565 -2 q 554 -32 553 -16 q 555 -58 555 -47 q 487 -228 555 -168 q 311 -287 420 -287 q 242 -283 288 -287 q 167 -271 197 -279 l 167 -135 l 182 -135 q 230 -151 199 -142 q 290 -159 261 -159 q 373 -131 344 -159 q 401 -50 401 -102 z "},"Ť":{"ha":947,"x_min":28,"x_max":919,"o":"m 919 814 l 604 814 l 604 0 l 343 0 l 343 814 l 28 814 l 28 1010 l 919 1010 l 919 814 m 776 1390 l 558 1123 l 388 1123 l 170 1390 l 349 1390 l 475 1236 l 600 1390 l 776 1390 z "},"ť":{"ha":646,"x_min":29,"x_max":798,"o":"m 602 7 q 519 -9 563 -3 q 411 -15 475 -15 q 199 43 269 -15 q 130 240 130 100 l 130 596 l 29 596 l 29 762 l 130 762 l 130 979 l 374 979 l 374 762 l 602 762 l 602 596 l 374 596 l 374 326 q 374 256 374 286 q 385 203 375 227 q 419 165 395 179 q 489 151 443 151 q 539 159 508 151 q 582 174 570 168 l 602 174 l 602 7 m 798 1252 l 640 881 l 488 881 l 568 1252 l 798 1252 z "},"Ů":{"ha":1128,"x_min":115,"x_max":1013,"o":"m 1013 366 q 899 79 1013 178 q 564 -21 785 -21 q 228 79 342 -21 q 115 365 115 178 l 115 1010 l 376 1010 l 376 380 q 420 223 376 275 q 564 172 465 172 q 706 221 661 172 q 751 380 751 271 l 751 1010 l 1013 1010 l 1013 366 m 779 1174 q 717 1028 779 1087 q 564 970 654 970 q 411 1028 473 970 q 348 1174 348 1086 q 411 1320 348 1261 q 564 1378 473 1378 q 717 1319 654 1378 q 779 1174 779 1261 m 656 1173 q 630 1244 656 1215 q 564 1274 604 1274 q 497 1245 524 1274 q 471 1173 471 1216 q 497 1102 471 1131 q 564 1074 523 1074 q 630 1103 604 1074 q 656 1173 656 1131 z "},"ů":{"ha":989,"x_min":109,"x_max":874,"o":"m 874 0 l 630 0 l 630 84 q 506 6 562 33 q 372 -21 450 -21 q 177 52 245 -21 q 109 266 109 124 l 109 762 l 355 762 l 355 384 q 358 288 355 326 q 376 224 362 250 q 415 188 389 199 q 488 176 441 176 q 557 188 519 176 q 630 222 595 199 l 630 762 l 874 762 l 874 0 m 708 964 q 646 818 708 877 q 492 760 583 760 q 339 818 402 760 q 277 964 277 876 q 339 1109 277 1051 q 492 1168 402 1168 q 646 1109 583 1168 q 708 964 708 1050 m 585 963 q 558 1034 585 1005 q 492 1063 532 1063 q 426 1035 452 1063 q 400 963 400 1006 q 426 892 400 920 q 492 864 452 864 q 559 892 533 864 q 585 963 585 921 z "},"Ű":{"ha":1128,"x_min":115,"x_max":1013,"o":"m 1013 366 q 899 79 1013 178 q 564 -21 785 -21 q 228 79 342 -21 q 115 365 115 178 l 115 1010 l 376 1010 l 376 380 q 420 223 376 275 q 564 172 465 172 q 706 221 661 172 q 751 380 751 271 l 751 1010 l 1013 1010 l 1013 366 m 918 1390 l 736 1123 l 588 1123 l 709 1390 l 918 1390 m 631 1390 l 449 1123 l 300 1123 l 422 1390 l 631 1390 z "},"ű":{"ha":989,"x_min":109,"x_max":874,"o":"m 874 0 l 630 0 l 630 84 q 506 6 562 33 q 372 -21 450 -21 q 177 52 245 -21 q 109 266 109 124 l 109 762 l 355 762 l 355 384 q 358 288 355 326 q 376 224 362 250 q 415 188 389 199 q 488 176 441 176 q 557 188 519 176 q 630 222 595 199 l 630 762 l 874 762 l 874 0 m 852 1137 l 670 870 l 522 870 l 643 1137 l 852 1137 m 564 1137 l 382 870 l 234 870 l 355 1137 l 564 1137 z "},"Ź":{"ha":961,"x_min":61,"x_max":909,"o":"m 909 0 l 61 0 l 61 189 l 564 814 l 85 814 l 85 1010 l 882 1010 l 882 817 l 380 195 l 909 195 l 909 0 m 760 1390 l 760 1376 l 521 1123 l 354 1123 l 522 1390 l 760 1390 z "},"ź":{"ha":829,"x_min":57,"x_max":772,"o":"m 772 0 l 57 0 l 57 157 l 458 583 l 73 583 l 73 762 l 765 762 l 765 608 l 370 182 l 772 182 l 772 0 m 694 1137 l 694 1123 l 455 870 l 288 870 l 456 1137 l 694 1137 z "},"Ż":{"ha":961,"x_min":61,"x_max":909,"o":"m 909 0 l 61 0 l 61 189 l 564 814 l 85 814 l 85 1010 l 882 1010 l 882 817 l 380 195 l 909 195 l 909 0 m 618 1123 l 368 1123 l 368 1308 l 618 1308 l 618 1123 z "},"ż":{"ha":829,"x_min":57,"x_max":772,"o":"m 772 0 l 57 0 l 57 157 l 458 583 l 73 583 l 73 762 l 765 762 l 765 608 l 370 182 l 772 182 l 772 0 m 553 870 l 302 870 l 302 1055 l 553 1055 l 553 870 z "},"Γ":{"ha":885,"x_min":129,"x_max":857,"o":"m 857 814 l 389 814 l 389 0 l 129 0 l 129 1010 l 857 1010 l 857 814 z "},"Θ":{"ha":1181,"x_min":70,"x_max":1111,"o":"m 1111 505 q 972 121 1111 263 q 590 -21 834 -21 q 208 121 347 -21 q 70 505 70 263 q 208 889 70 748 q 590 1031 347 1031 q 972 889 833 1031 q 1111 505 1111 748 m 766 249 q 822 358 804 295 q 840 505 840 420 q 819 660 840 596 q 764 763 798 724 q 685 822 730 804 q 591 840 640 840 q 497 823 541 840 q 417 764 454 805 q 362 660 383 726 q 340 505 340 593 q 361 351 340 414 q 416 248 382 288 q 495 189 450 208 q 591 170 541 170 q 686 189 641 170 q 766 249 732 208 m 751 414 l 429 414 l 429 623 l 751 623 l 751 414 z "},"Φ":{"ha":1322,"x_min":63,"x_max":1259,"o":"m 1135 805 q 1227 681 1195 755 q 1259 513 1259 608 q 1226 345 1259 419 q 1131 219 1193 271 q 984 138 1067 167 q 791 101 901 109 l 791 -9 l 532 -9 l 532 101 q 339 138 425 109 q 191 220 253 168 q 96 345 130 272 q 63 513 63 418 q 95 679 63 608 q 187 802 127 750 q 335 881 246 851 q 532 918 424 910 l 532 1021 l 791 1021 l 791 918 q 988 884 903 912 q 1135 805 1074 856 m 990 517 q 939 675 990 614 q 791 749 887 736 l 791 269 q 946 349 903 289 q 990 517 990 409 m 532 269 l 532 749 q 382 676 433 734 q 332 517 332 618 q 377 350 332 410 q 532 269 422 289 z "},"α":{"ha":971,"x_min":61,"x_max":856,"o":"m 856 0 l 612 0 l 612 79 q 488 1 541 23 q 367 -21 435 -21 q 143 86 226 -21 q 61 375 61 194 q 151 671 61 560 q 381 783 240 783 q 490 765 441 783 q 612 682 538 747 l 612 762 l 856 762 l 856 0 m 612 210 l 612 553 q 553 587 582 576 q 489 598 524 598 q 356 544 399 598 q 313 384 313 490 q 352 214 313 262 q 475 165 391 165 q 546 177 509 165 q 612 210 583 190 z "},"δ":{"ha":954,"x_min":60,"x_max":893,"o":"m 776 693 q 861 561 828 635 q 893 388 893 487 q 780 87 893 199 q 477 -24 667 -24 q 171 81 281 -24 q 60 362 60 185 q 88 522 60 458 q 165 634 116 587 q 276 706 212 679 q 406 745 340 733 q 276 832 340 794 q 151 900 211 870 l 151 1055 l 833 1055 l 833 887 l 531 887 l 531 883 q 659 796 589 846 q 776 693 728 746 m 640 376 q 614 520 640 454 q 523 639 589 585 q 452 615 489 633 q 384 568 414 598 q 333 490 353 538 q 313 375 313 441 q 358 205 313 264 q 478 146 404 146 q 596 205 553 146 q 640 376 640 264 z "},"ε":{"ha":812,"x_min":62,"x_max":770,"o":"m 770 38 q 615 -6 690 9 q 437 -21 541 -21 q 296 -9 364 -21 q 176 28 229 2 q 93 99 123 55 q 62 205 62 142 q 102 321 62 272 q 221 395 142 370 l 221 399 q 123 462 159 417 q 87 568 87 507 q 120 670 87 629 q 203 735 154 711 q 319 771 252 759 q 458 783 387 783 q 626 767 554 783 q 741 739 699 751 l 741 557 l 714 557 q 620 593 681 574 q 494 612 559 612 q 437 609 462 612 q 391 598 412 605 q 355 576 370 591 q 340 540 340 561 q 357 496 340 511 q 398 476 374 481 q 456 470 426 470 q 522 469 486 469 l 607 469 l 607 315 l 492 315 q 420 313 450 315 q 366 303 391 311 q 330 278 343 296 q 317 233 317 261 q 333 192 317 209 q 376 166 349 176 q 432 154 401 157 q 496 150 463 150 q 635 173 566 150 q 743 221 703 195 l 770 221 l 770 38 z "},"σ":{"ha":1008,"x_min":60,"x_max":1001,"o":"m 894 380 q 784 84 894 193 q 477 -24 675 -24 q 169 84 279 -24 q 60 380 60 193 q 170 677 60 570 q 477 785 280 785 q 563 779 519 785 q 650 762 606 772 l 1001 762 l 1001 596 l 821 596 q 871 494 849 551 q 894 380 894 437 m 593 195 q 629 266 617 224 q 641 379 641 307 q 629 492 641 446 q 595 564 616 537 q 543 604 573 592 q 477 615 512 615 q 414 606 441 615 q 361 568 387 596 q 326 495 339 541 q 313 379 313 449 q 324 271 313 317 q 358 197 336 225 q 410 159 380 171 q 479 146 440 146 q 542 158 512 146 q 593 195 572 169 z "},"τ":{"ha":743,"x_min":7,"x_max":736,"o":"m 736 596 l 494 596 l 494 0 l 250 0 l 250 596 l 7 596 l 7 762 l 736 762 l 736 596 z "},"φ":{"ha":1270,"x_min":60,"x_max":1211,"o":"m 1211 396 q 1089 110 1211 219 q 754 -13 968 1 l 754 -279 l 511 -279 l 511 -11 q 332 25 414 -3 q 188 104 250 54 q 94 222 127 153 q 60 379 60 292 q 97 584 60 489 q 212 762 134 678 l 460 762 l 460 739 q 353 590 394 678 q 313 411 313 503 q 363 231 313 292 q 511 153 414 170 l 511 779 q 576 781 527 779 q 693 783 625 783 q 1077 688 944 783 q 1211 396 1211 593 m 959 401 q 909 558 959 502 q 754 621 860 615 l 754 150 q 912 227 866 163 q 959 401 959 290 z "},"‗":{"ha":987,"x_min":-11,"x_max":998,"o":"m 998 -137 l -11 -137 l -11 -56 l 998 -56 l 998 -137 m 998 -287 l -11 -287 l -11 -205 l 998 -205 l 998 -287 z "},"‼":{"ha":977,"x_min":138,"x_max":839,"o":"m 421 1010 l 390 291 l 169 291 l 138 1010 l 421 1010 m 416 0 l 142 0 l 142 179 l 416 179 l 416 0 m 839 1010 l 808 291 l 587 291 l 555 1010 l 839 1010 m 834 0 l 560 0 l 560 179 l 834 179 l 834 0 z "},"ⁿ":{"ha":830,"x_min":107,"x_max":734,"o":"m 734 404 l 532 404 l 532 707 q 528 781 532 744 q 515 834 524 817 q 481 863 504 854 q 422 873 458 873 q 370 864 398 873 q 308 836 341 856 l 308 404 l 107 404 l 107 1014 l 308 1014 l 308 947 q 409 1009 361 987 q 518 1031 458 1031 q 677 972 621 1031 q 734 801 734 914 l 734 404 z "},"₧":{"ha":1866,"x_min":128,"x_max":1818,"o":"m 1818 232 q 1733 50 1818 121 q 1493 -21 1648 -21 q 1345 -3 1412 -21 q 1224 41 1278 14 l 1224 232 l 1238 232 q 1275 205 1251 222 q 1331 174 1299 189 q 1398 147 1362 158 q 1473 136 1434 136 q 1557 156 1536 136 q 1579 202 1579 175 q 1558 247 1579 229 q 1471 288 1538 264 q 1429 302 1455 293 q 1385 318 1402 311 q 1271 405 1309 348 q 1234 543 1234 463 q 1235 561 1234 553 q 1236 571 1236 568 l 1124 571 l 1124 0 l 888 0 l 888 571 l 783 571 q 763 534 772 550 q 738 503 753 519 q 623 423 688 451 q 463 395 558 395 l 372 395 l 372 0 l 128 0 l 128 1010 l 465 1010 q 603 995 545 1010 q 705 949 660 981 q 782 863 753 916 q 812 739 810 810 l 891 739 l 891 884 l 1124 884 l 1124 739 l 1331 739 q 1426 769 1362 755 q 1541 783 1491 783 q 1675 767 1609 783 q 1781 732 1742 751 l 1781 546 l 1765 546 q 1667 607 1712 587 q 1575 626 1623 626 q 1497 609 1525 626 q 1470 562 1470 591 q 1495 511 1470 530 q 1565 477 1521 492 q 1611 462 1585 471 q 1653 448 1636 453 q 1783 360 1747 415 q 1818 232 1818 306 m 568 709 q 557 773 568 747 q 522 817 547 799 q 471 836 501 832 q 405 840 441 840 l 372 840 l 372 563 l 392 563 q 477 568 445 563 q 531 600 509 574 q 560 648 551 625 q 568 709 568 671 z "},"Ĳ":{"ha":1399,"x_min":83,"x_max":1283,"o":"m 675 0 l 83 0 l 83 179 l 249 179 l 249 831 l 83 831 l 83 1010 l 675 1010 l 675 831 l 509 831 l 509 179 l 675 179 l 675 0 m 1283 296 q 1263 173 1283 231 q 1202 74 1242 115 q 1098 8 1160 32 q 949 -16 1036 -16 q 839 -11 889 -16 q 748 4 789 -5 l 748 202 l 770 202 q 822 179 795 189 q 897 169 848 169 q 961 188 935 169 q 1000 237 987 206 q 1018 313 1014 272 q 1023 408 1023 353 l 1023 824 l 825 824 l 825 1010 l 1283 1010 l 1283 296 z "},"ĳ":{"ha":1010,"x_min":109,"x_max":896,"o":"m 359 0 l 115 0 l 115 762 l 359 762 l 359 0 m 366 870 l 109 870 l 109 1055 l 366 1055 l 366 870 m 896 -14 q 817 -215 896 -142 q 612 -287 737 -287 q 491 -281 546 -287 q 412 -269 437 -275 l 412 -94 l 431 -94 q 481 -106 451 -101 q 530 -111 512 -111 q 626 -68 600 -111 q 652 70 652 -26 l 652 596 l 507 596 l 507 762 l 896 762 l 896 -14 m 896 870 l 636 870 l 636 1055 l 896 1055 l 896 870 z "},"ŉ":{"ha":1146,"x_min":-18,"x_max":1037,"o":"m 1037 0 l 791 0 l 791 378 q 787 470 791 424 q 770 537 782 515 q 731 574 757 562 q 658 585 705 585 q 590 574 625 585 q 516 540 556 564 l 516 0 l 272 0 l 272 762 l 516 762 l 516 677 q 641 755 581 728 q 774 783 701 783 q 967 711 898 783 q 1037 496 1037 639 l 1037 0 m 338 1055 l 140 656 l -18 656 l 88 1055 l 338 1055 z "},"′":{"ha":490,"x_min":79,"x_max":479,"o":"m 479 1010 l 241 576 l 79 576 l 231 1010 l 479 1010 z "},"″":{"ha":856,"x_min":79,"x_max":846,"o":"m 846 1010 l 607 576 l 446 576 l 597 1010 l 846 1010 m 479 1010 l 241 576 l 79 576 l 231 1010 l 479 1010 z "},"℅":{"ha":1767,"x_min":98,"x_max":1670,"o":"m 643 420 q 545 383 593 395 q 443 371 496 371 q 190 456 281 371 q 98 698 98 542 q 189 941 98 852 q 438 1029 279 1029 q 543 1017 492 1029 q 643 979 595 1004 l 643 811 l 612 811 q 535 869 573 850 q 452 888 496 888 q 343 837 382 888 q 304 698 304 786 q 346 557 304 603 q 455 512 387 512 q 545 533 507 512 q 612 588 583 553 l 643 588 l 643 420 m 1232 1010 l 703 0 l 520 0 l 1049 1010 l 1232 1010 m 1670 311 q 1592 60 1670 142 q 1364 -21 1514 -21 q 1133 61 1211 -21 q 1055 308 1055 144 q 1135 556 1055 475 q 1364 637 1214 637 q 1593 556 1516 637 q 1670 311 1670 475 m 1470 309 q 1444 455 1470 417 q 1362 493 1419 493 q 1280 455 1305 493 q 1255 308 1255 417 q 1280 161 1255 199 q 1362 123 1305 123 q 1444 161 1419 123 q 1470 309 1470 199 z "},"ℓ":{"ha":575,"x_min":10,"x_max":535,"o":"m 10 309 l 130 439 l 130 734 q 195 932 130 854 q 370 1011 259 1011 q 493 967 451 1011 q 535 849 535 923 q 490 706 535 787 q 326 486 446 625 l 326 170 q 340 104 326 118 q 372 91 354 91 q 415 100 389 91 q 509 158 441 109 l 509 43 q 428 -2 472 13 q 345 -16 384 -16 q 178 32 226 -16 q 130 168 130 81 l 130 283 l 82 232 l 10 309 m 326 642 q 409 775 393 739 q 424 848 424 811 q 420 879 424 869 q 410 899 417 890 q 395 912 404 907 q 376 918 387 918 q 357 910 366 918 q 342 893 347 903 q 330 841 334 879 q 326 743 326 803 l 326 642 z "},"□":{"ha":839,"x_min":99,"x_max":739,"o":"m 99 640 l 739 640 l 739 0 l 99 0 l 99 640 m 151 589 l 151 52 l 688 52 l 688 589 l 151 589 z "},"▪":{"ha":492,"x_min":89,"x_max":403,"o":"m 403 616 l 403 302 l 89 302 l 89 616 l 403 616 z "},"▫":{"ha":492,"x_min":89,"x_max":403,"o":"m 403 616 l 403 302 l 89 302 l 89 616 l 403 616 m 351 564 l 140 564 l 140 353 l 351 353 l 351 564 z "},"●":{"ha":839,"x_min":120,"x_max":718,"o":"m 120 391 q 208 602 120 515 q 419 690 295 690 q 630 602 543 690 q 718 391 718 515 q 630 180 718 267 q 419 92 543 92 q 208 180 295 92 q 120 391 120 267 z "},"◦":{"ha":492,"x_min":76,"x_max":416,"o":"m 246 629 q 367 579 317 629 q 416 459 416 530 q 367 339 416 389 q 246 289 317 289 q 126 339 176 289 q 76 459 76 389 q 125 579 76 530 q 246 629 175 629 m 246 578 q 162 543 197 578 q 127 459 127 508 q 162 375 127 410 q 246 340 197 340 q 330 375 295 340 q 365 459 365 410 q 330 543 365 508 q 246 578 296 578 z "},"Ā":{"ha":1078,"x_min":16,"x_max":1062,"o":"m 1062 0 l 793 0 l 723 204 l 349 204 l 279 0 l 16 0 l 389 1010 l 689 1010 l 1062 0 m 660 389 l 536 751 l 412 389 l 660 389 m 811 1166 l 267 1166 l 267 1308 l 811 1308 l 811 1166 z "},"ā":{"ha":928,"x_min":58,"x_max":819,"o":"m 576 199 l 576 357 q 469 346 527 353 q 382 330 412 339 q 326 296 345 318 q 307 238 307 274 q 311 199 307 214 q 331 171 315 184 q 368 151 347 157 q 436 144 390 144 q 510 159 473 144 q 576 199 548 174 m 576 81 q 528 45 557 66 q 473 12 498 24 q 398 -13 437 -5 q 313 -20 359 -20 q 132 47 205 -20 q 58 218 58 114 q 96 355 58 302 q 201 438 133 408 q 370 481 269 469 q 578 500 470 494 l 578 505 q 526 592 578 568 q 374 616 475 616 q 245 594 314 616 q 147 562 177 573 l 125 562 l 125 745 q 251 769 163 755 q 425 783 338 783 q 726 719 633 783 q 819 518 819 655 l 819 0 l 576 0 l 576 81 m 732 913 l 189 913 l 189 1055 l 732 1055 l 732 913 z "},"Ĉ":{"ha":1005,"x_min":70,"x_max":943,"o":"m 585 -20 q 377 14 473 -20 q 214 113 282 47 q 107 277 145 178 q 70 504 70 375 q 106 722 70 624 q 210 889 142 819 q 373 993 276 956 q 586 1029 471 1029 q 701 1022 650 1029 q 795 1004 752 1015 q 878 975 841 991 q 943 945 915 959 l 943 701 l 913 701 q 865 739 894 717 q 800 783 836 762 q 719 820 762 805 q 626 835 675 835 q 522 818 571 835 q 430 760 472 800 q 365 658 390 722 q 340 503 340 594 q 367 345 340 408 q 435 244 394 281 q 527 191 476 207 q 627 175 578 175 q 721 189 675 175 q 807 228 768 203 q 869 270 840 248 q 916 309 897 292 l 943 309 l 943 67 q 870 35 905 50 q 798 9 836 20 q 705 -12 748 -5 q 585 -20 661 -20 m 873 1123 l 694 1123 l 568 1272 l 444 1123 l 267 1123 l 485 1390 l 655 1390 l 873 1123 z "},"ĉ":{"ha":817,"x_min":60,"x_max":772,"o":"m 512 -20 q 330 3 412 -20 q 186 77 248 27 q 93 201 126 126 q 60 378 60 277 q 95 562 60 484 q 195 690 131 639 q 337 760 256 738 q 505 783 418 783 q 648 766 583 783 q 771 722 714 749 l 771 513 l 736 513 q 702 542 722 526 q 653 574 682 558 q 592 598 625 589 q 515 608 559 608 q 365 546 417 608 q 312 378 312 484 q 366 211 312 268 q 519 154 420 154 q 602 164 565 154 q 663 189 639 175 q 704 218 686 203 q 736 247 722 233 l 771 247 l 771 39 q 651 -4 713 12 q 512 -20 588 -20 m 772 870 l 593 870 l 468 1019 l 343 870 l 167 870 l 385 1137 l 555 1137 l 772 870 z "},"Ċ":{"ha":1005,"x_min":70,"x_max":943,"o":"m 585 -20 q 377 14 473 -20 q 214 113 282 47 q 107 277 145 178 q 70 504 70 375 q 106 722 70 624 q 210 889 142 819 q 373 993 276 956 q 586 1029 471 1029 q 701 1022 650 1029 q 795 1004 752 1015 q 878 975 841 991 q 943 945 915 959 l 943 701 l 913 701 q 865 739 894 717 q 800 783 836 762 q 719 820 762 805 q 626 835 675 835 q 522 818 571 835 q 430 760 472 800 q 365 658 390 722 q 340 503 340 594 q 367 345 340 408 q 435 244 394 281 q 527 191 476 207 q 627 175 578 175 q 721 189 675 175 q 807 228 768 203 q 869 270 840 248 q 916 309 897 292 l 943 309 l 943 67 q 870 35 905 50 q 798 9 836 20 q 705 -12 748 -5 q 585 -20 661 -20 m 700 1123 l 449 1123 l 449 1308 l 700 1308 l 700 1123 z "},"ċ":{"ha":817,"x_min":60,"x_max":771,"o":"m 512 -20 q 330 3 412 -20 q 186 77 248 27 q 93 201 126 126 q 60 378 60 277 q 95 562 60 484 q 195 690 131 639 q 337 760 256 738 q 505 783 418 783 q 648 766 583 783 q 771 722 714 749 l 771 513 l 736 513 q 702 542 722 526 q 653 574 682 558 q 592 598 625 589 q 515 608 559 608 q 365 546 417 608 q 312 378 312 484 q 366 211 312 268 q 519 154 420 154 q 602 164 565 154 q 663 189 639 175 q 704 218 686 203 q 736 247 722 233 l 771 247 l 771 39 q 651 -4 713 12 q 512 -20 588 -20 m 595 870 l 344 870 l 344 1055 l 595 1055 l 595 870 z "},"Ē":{"ha":949,"x_min":129,"x_max":859,"o":"m 859 0 l 129 0 l 129 1010 l 859 1010 l 859 814 l 388 814 l 388 640 l 825 640 l 825 445 l 388 445 l 388 195 l 859 195 l 859 0 m 764 1166 l 220 1166 l 220 1308 l 764 1308 l 764 1166 z "},"ē":{"ha":922,"x_min":60,"x_max":865,"o":"m 865 336 l 307 336 q 375 199 312 246 q 559 151 437 151 q 709 179 637 151 q 824 239 782 207 l 851 239 l 851 43 q 695 -5 768 9 q 533 -20 622 -20 q 182 83 304 -20 q 60 376 60 186 q 175 675 60 565 q 492 785 291 785 q 772 691 678 785 q 865 421 865 597 l 865 336 m 623 479 q 585 594 621 555 q 473 633 549 633 q 357 596 402 633 q 306 479 311 559 l 623 479 m 751 913 l 208 913 l 208 1055 l 751 1055 l 751 913 z "},"Ĕ":{"ha":949,"x_min":129,"x_max":859,"o":"m 859 0 l 129 0 l 129 1010 l 859 1010 l 859 814 l 388 814 l 388 640 l 825 640 l 825 445 l 388 445 l 388 195 l 859 195 l 859 0 m 760 1362 q 691 1173 760 1242 q 498 1104 623 1104 q 304 1170 373 1104 q 235 1362 235 1235 l 387 1362 q 414 1258 387 1293 q 498 1224 441 1224 q 579 1258 551 1224 q 608 1362 608 1293 l 760 1362 z "},"ĕ":{"ha":922,"x_min":60,"x_max":865,"o":"m 865 336 l 307 336 q 375 199 312 246 q 559 151 437 151 q 709 179 637 151 q 824 239 782 207 l 851 239 l 851 43 q 695 -5 768 9 q 533 -20 622 -20 q 182 83 304 -20 q 60 376 60 186 q 175 675 60 565 q 492 785 291 785 q 772 691 678 785 q 865 421 865 597 l 865 336 m 623 479 q 585 594 621 555 q 473 633 549 633 q 357 596 402 633 q 306 479 311 559 l 623 479 m 751 1109 q 682 920 751 989 q 489 851 614 851 q 295 917 364 851 q 227 1109 227 982 l 378 1109 q 405 1005 378 1040 q 489 971 433 971 q 571 1005 542 971 q 600 1109 600 1040 l 751 1109 z "},"Ė":{"ha":949,"x_min":129,"x_max":859,"o":"m 859 0 l 129 0 l 129 1010 l 859 1010 l 859 814 l 388 814 l 388 640 l 825 640 l 825 445 l 388 445 l 388 195 l 859 195 l 859 0 m 627 1123 l 376 1123 l 376 1308 l 627 1308 l 627 1123 z "},"ė":{"ha":922,"x_min":60,"x_max":865,"o":"m 865 336 l 307 336 q 375 199 312 246 q 559 151 437 151 q 709 179 637 151 q 824 239 782 207 l 851 239 l 851 43 q 695 -5 768 9 q 533 -20 622 -20 q 182 83 304 -20 q 60 376 60 186 q 175 675 60 565 q 492 785 291 785 q 772 691 678 785 q 865 421 865 597 l 865 336 m 623 479 q 585 594 621 555 q 473 633 549 633 q 357 596 402 633 q 306 479 311 559 l 623 479 m 606 870 l 355 870 l 355 1055 l 606 1055 l 606 870 z "},"Ĝ":{"ha":1126,"x_min":70,"x_max":1022,"o":"m 1022 58 q 842 5 954 31 q 619 -21 730 -21 q 216 119 361 -21 q 70 506 70 259 q 217 885 70 741 q 627 1029 364 1029 q 817 1011 727 1029 q 1018 940 907 994 l 1018 703 l 989 703 q 933 744 970 718 q 863 788 897 770 q 771 825 823 810 q 659 841 718 841 q 534 821 590 841 q 433 758 477 800 q 365 655 390 718 q 340 510 340 592 q 429 254 340 342 q 692 165 518 165 q 725 165 707 165 q 758 168 743 166 l 758 366 l 556 366 l 556 556 l 1022 556 l 1022 58 m 909 1123 l 730 1123 l 605 1272 l 480 1123 l 304 1123 l 522 1390 l 692 1390 l 909 1123 z "},"ĝ":{"ha":971,"x_min":61,"x_max":856,"o":"m 856 87 q 825 -93 856 -20 q 740 -208 795 -166 q 607 -268 685 -250 q 432 -287 530 -287 q 276 -277 353 -287 q 142 -254 199 -268 l 142 -64 l 172 -64 q 281 -96 217 -81 q 397 -111 346 -111 q 507 -98 465 -111 q 572 -62 549 -85 q 602 -7 593 -41 q 612 75 612 27 l 612 89 q 514 32 568 53 q 395 11 460 11 q 148 107 235 11 q 61 400 61 203 q 87 563 61 494 q 162 682 114 631 q 272 756 207 730 q 406 783 338 783 q 518 768 468 783 q 610 728 569 753 l 619 762 l 856 762 l 856 87 m 612 240 l 612 585 q 560 599 591 594 q 505 604 530 604 q 361 549 409 604 q 313 395 313 494 q 354 241 313 285 q 475 198 395 198 q 547 210 512 198 q 612 240 583 221 m 798 870 l 618 870 l 493 1019 l 368 870 l 192 870 l 410 1137 l 580 1137 l 798 870 z "},"Ġ":{"ha":1126,"x_min":70,"x_max":1022,"o":"m 1022 58 q 842 5 954 31 q 619 -21 730 -21 q 216 119 361 -21 q 70 506 70 259 q 217 885 70 741 q 627 1029 364 1029 q 817 1011 727 1029 q 1018 940 907 994 l 1018 703 l 989 703 q 933 744 970 718 q 863 788 897 770 q 771 825 823 810 q 659 841 718 841 q 534 821 590 841 q 433 758 477 800 q 365 655 390 718 q 340 510 340 592 q 429 254 340 342 q 692 165 518 165 q 725 165 707 165 q 758 168 743 166 l 758 366 l 556 366 l 556 556 l 1022 556 l 1022 58 m 728 1123 l 477 1123 l 477 1308 l 728 1308 l 728 1123 z "},"ġ":{"ha":971,"x_min":61,"x_max":856,"o":"m 856 87 q 825 -93 856 -20 q 740 -208 795 -166 q 607 -268 685 -250 q 432 -287 530 -287 q 276 -277 353 -287 q 142 -254 199 -268 l 142 -64 l 172 -64 q 281 -96 217 -81 q 397 -111 346 -111 q 507 -98 465 -111 q 572 -62 549 -85 q 602 -7 593 -41 q 612 75 612 27 l 612 89 q 514 32 568 53 q 395 11 460 11 q 148 107 235 11 q 61 400 61 203 q 87 563 61 494 q 162 682 114 631 q 272 756 207 730 q 406 783 338 783 q 518 768 468 783 q 610 728 569 753 l 619 762 l 856 762 l 856 87 m 612 240 l 612 585 q 560 599 591 594 q 505 604 530 604 q 361 549 409 604 q 313 395 313 494 q 354 241 313 285 q 475 198 395 198 q 547 210 512 198 q 612 240 583 221 m 621 870 l 370 870 l 370 1055 l 621 1055 l 621 870 z "},"Ģ":{"ha":1126,"x_min":70,"x_max":1022,"o":"m 621 -50 q 621 -29 621 -35 q 619 -20 621 -24 q 216 120 361 -20 q 70 506 70 259 q 217 885 70 741 q 627 1029 364 1029 q 817 1011 727 1029 q 1018 940 907 994 l 1018 703 l 989 703 q 933 744 970 718 q 863 788 897 770 q 771 825 823 810 q 659 841 718 841 q 534 821 590 841 q 433 758 477 800 q 365 655 390 718 q 340 510 340 592 q 429 254 340 342 q 692 165 518 165 q 725 165 707 165 q 758 168 743 166 l 758 366 l 556 366 l 556 556 l 1022 556 l 1022 58 q 911 22 977 41 q 771 -8 844 3 q 773 -32 772 -22 q 774 -58 774 -41 q 706 -228 774 -168 q 530 -287 639 -287 q 461 -283 507 -287 q 386 -271 416 -279 l 386 -135 l 401 -135 q 449 -151 418 -142 q 509 -159 480 -159 q 592 -131 563 -159 q 621 -50 621 -102 z "},"ģ":{"ha":971,"x_min":61,"x_max":856,"o":"m 856 87 q 825 -93 856 -20 q 740 -208 795 -166 q 607 -268 685 -250 q 432 -287 530 -287 q 276 -277 353 -287 q 142 -254 199 -268 l 142 -64 l 172 -64 q 281 -96 217 -81 q 397 -111 346 -111 q 507 -98 465 -111 q 572 -62 549 -85 q 602 -7 593 -41 q 612 75 612 27 l 612 89 q 514 32 568 53 q 395 11 460 11 q 148 107 235 11 q 61 400 61 203 q 87 563 61 494 q 162 682 114 631 q 272 756 207 730 q 406 783 338 783 q 518 768 468 783 q 610 728 569 753 l 619 762 l 856 762 l 856 87 m 612 240 l 612 585 q 560 599 591 594 q 505 604 530 604 q 361 549 409 604 q 313 395 313 494 q 354 241 313 285 q 475 198 395 198 q 547 210 512 198 q 612 240 583 221 m 702 1137 l 548 870 l 310 870 l 310 884 l 535 1137 l 702 1137 z "},"Ĥ":{"ha":1163,"x_min":129,"x_max":1034,"o":"m 1034 0 l 774 0 l 774 445 l 389 445 l 389 0 l 129 0 l 129 1010 l 389 1010 l 389 640 l 774 640 l 774 1010 l 1034 1010 l 1034 0 m 884 1123 l 705 1123 l 580 1272 l 455 1123 l 279 1123 l 496 1390 l 667 1390 l 884 1123 z "},"ĥ":{"ha":989,"x_min":115,"x_max":880,"o":"m 880 0 l 635 0 l 635 378 q 630 470 635 424 q 614 537 625 515 q 574 574 600 562 q 501 585 548 585 q 434 574 468 585 q 359 540 399 564 l 359 0 l 115 0 l 115 1055 l 359 1055 l 359 677 q 485 755 425 728 q 618 783 545 783 q 811 711 741 783 q 880 496 880 639 l 880 0 m 815 1123 l 636 1123 l 511 1272 l 386 1123 l 210 1123 l 427 1390 l 597 1390 l 815 1123 z "},"Ħ":{"ha":1163,"x_min":39,"x_max":1126,"o":"m 1126 749 l 1034 749 l 1034 0 l 774 0 l 774 445 l 389 445 l 389 0 l 129 0 l 129 749 l 39 749 l 39 895 l 129 895 l 129 1010 l 389 1010 l 389 895 l 774 895 l 774 1010 l 1034 1010 l 1034 895 l 1126 895 l 1126 749 m 774 640 l 774 749 l 389 749 l 389 640 l 774 640 z "},"ħ":{"ha":989,"x_min":28,"x_max":880,"o":"m 880 0 l 635 0 l 635 378 q 630 470 635 424 q 614 537 625 515 q 574 574 600 562 q 501 585 548 585 q 434 574 468 585 q 359 540 399 564 l 359 0 l 115 0 l 115 839 l 28 839 l 28 979 l 115 979 l 115 1055 l 359 1055 l 359 979 l 581 979 l 581 839 l 359 839 l 359 677 q 485 755 425 728 q 618 783 545 783 q 811 711 741 783 q 880 496 880 639 l 880 0 z "},"Ĩ":{"ha":758,"x_min":80,"x_max":682,"o":"m 675 0 l 83 0 l 83 179 l 249 179 l 249 831 l 83 831 l 83 1010 l 675 1010 l 675 831 l 509 831 l 509 179 l 675 179 l 675 0 m 682 1350 q 626 1180 675 1236 q 488 1125 576 1125 q 428 1138 456 1125 q 375 1164 399 1150 q 329 1191 354 1177 q 286 1204 303 1204 q 242 1182 253 1204 q 229 1121 231 1160 l 80 1121 q 137 1285 84 1224 q 273 1345 190 1345 q 334 1334 305 1345 q 388 1308 363 1322 q 435 1282 413 1294 q 475 1270 456 1270 q 519 1292 507 1270 q 533 1350 532 1314 l 682 1350 z "},"ĩ":{"ha":475,"x_min":-7,"x_max":483,"o":"m 359 0 l 115 0 l 115 762 l 359 762 l 359 0 m 483 1087 q 439 923 476 971 q 326 876 402 876 q 273 888 297 876 q 230 915 249 901 q 192 941 212 928 q 156 954 172 954 q 122 937 132 954 q 110 871 111 920 l -7 871 q 36 1026 -3 970 q 150 1082 75 1082 q 202 1070 178 1082 q 248 1044 227 1059 q 287 1018 271 1029 q 319 1007 302 1007 q 356 1029 348 1007 q 366 1087 365 1051 l 483 1087 z "},"Ī":{"ha":758,"x_min":83,"x_max":675,"o":"m 675 0 l 83 0 l 83 179 l 249 179 l 249 831 l 83 831 l 83 1010 l 675 1010 l 675 831 l 509 831 l 509 179 l 675 179 l 675 0 m 651 1166 l 107 1166 l 107 1308 l 651 1308 l 651 1166 z "},"ī":{"ha":475,"x_min":31,"x_max":444,"o":"m 359 0 l 115 0 l 115 762 l 359 762 l 359 0 m 444 913 l 31 913 l 31 1055 l 444 1055 l 444 913 z "},"Ĭ":{"ha":758,"x_min":83,"x_max":675,"o":"m 675 0 l 83 0 l 83 179 l 249 179 l 249 831 l 83 831 l 83 1010 l 675 1010 l 675 831 l 509 831 l 509 179 l 675 179 l 675 0 m 643 1362 q 573 1172 643 1239 q 381 1104 504 1104 q 185 1172 251 1104 q 119 1362 119 1239 l 270 1362 q 296 1260 270 1295 q 381 1224 323 1224 q 465 1260 438 1224 q 492 1362 492 1295 l 643 1362 z "},"ĭ":{"ha":475,"x_min":19,"x_max":456,"o":"m 359 0 l 115 0 l 115 762 l 359 762 l 359 0 m 456 1109 q 399 921 456 987 q 238 855 342 855 q 74 921 129 855 q 19 1109 19 986 l 145 1109 q 165 1001 145 1040 q 238 961 184 961 q 309 1001 288 961 q 330 1109 330 1042 l 456 1109 z "},"Į":{"ha":758,"x_min":83,"x_max":722,"o":"m 342 0 l 83 0 l 83 179 l 249 179 l 249 831 l 83 831 l 83 1010 l 675 1010 l 675 831 l 509 831 l 509 179 l 675 179 l 675 0 l 488 0 q 487 -23 488 -12 q 486 -57 486 -35 q 518 -126 486 -98 q 608 -154 551 -154 q 669 -146 637 -154 q 715 -131 701 -138 l 722 -131 l 722 -267 q 646 -279 689 -275 q 578 -283 602 -283 q 401 -227 463 -283 q 339 -67 339 -171 q 340 -29 339 -47 q 342 0 342 -12 z "},"į":{"ha":475,"x_min":109,"x_max":479,"o":"m 112 6 q 113 27 112 6 q 115 81 115 48 l 115 762 l 359 762 l 359 0 l 258 0 q 255 -27 256 -14 q 254 -57 254 -40 q 285 -127 254 -100 q 370 -154 316 -154 q 424 -147 395 -154 q 473 -131 452 -140 l 479 -131 l 479 -267 q 406 -279 447 -275 q 341 -283 365 -283 q 169 -227 230 -283 q 109 -67 109 -172 q 112 6 109 -36 m 366 870 l 109 870 l 109 1055 l 366 1055 l 366 870 z "},"Ĵ":{"ha":771,"x_min":28,"x_max":715,"o":"m 655 296 q 631 172 655 230 q 561 74 608 114 q 441 8 511 31 q 269 -16 372 -16 q 137 -11 199 -16 q 28 4 75 -5 l 28 209 l 53 209 q 121 186 85 197 q 211 176 156 176 q 320 195 282 176 q 375 248 359 214 q 393 320 391 281 q 395 422 395 360 l 395 824 l 163 824 l 163 1010 l 655 1010 l 655 296 m 715 1123 l 536 1123 l 411 1272 l 286 1123 l 110 1123 l 328 1390 l 498 1390 l 715 1123 z "},"ĵ":{"ha":559,"x_min":-39,"x_max":522,"o":"m 445 -14 q 366 -215 445 -142 q 161 -287 286 -287 q 40 -281 95 -287 q -39 -269 -14 -275 l -39 -94 l -20 -94 q 31 -106 0 -101 q 79 -111 61 -111 q 175 -68 149 -111 q 201 70 201 -26 l 201 596 l 56 596 l 56 762 l 445 762 l 445 -14 m 522 870 l 360 870 l 262 1015 l 164 870 l 5 870 l 177 1137 l 350 1137 l 522 870 z "},"Ķ":{"ha":1071,"x_min":129,"x_max":1072,"o":"m 1072 0 l 752 0 l 450 404 l 389 330 l 389 0 l 129 0 l 129 1010 l 389 1010 l 389 553 l 750 1010 l 1052 1010 l 657 543 l 1072 0 m 654 -58 q 587 -228 654 -168 q 411 -287 519 -287 q 342 -283 387 -287 q 267 -271 297 -279 l 267 -135 l 282 -135 q 330 -151 298 -142 q 389 -159 361 -159 q 472 -131 444 -159 q 501 -50 501 -102 q 500 -15 501 -35 q 500 14 500 5 l 651 14 q 653 -20 652 1 q 654 -58 654 -41 z "},"ķ":{"ha":932,"x_min":115,"x_max":924,"o":"m 924 0 l 640 0 l 426 332 l 359 251 l 359 0 l 115 0 l 115 1055 l 359 1055 l 359 425 l 623 762 l 904 762 l 630 433 l 924 0 m 586 -58 q 518 -228 586 -168 q 342 -287 451 -287 q 274 -283 319 -287 q 198 -271 229 -279 l 198 -135 l 214 -135 q 261 -151 230 -142 q 321 -159 292 -159 q 404 -131 375 -159 q 433 -50 433 -102 q 432 -15 433 -35 q 431 14 431 5 l 583 14 q 585 -20 583 1 q 586 -58 586 -41 z "},"ĸ":{"ha":932,"x_min":115,"x_max":924,"o":"m 924 0 l 640 0 l 426 332 l 359 251 l 359 0 l 115 0 l 115 760 l 359 760 l 359 425 l 623 762 l 904 762 l 630 433 l 924 0 z "},"Ļ":{"ha":885,"x_min":129,"x_max":857,"o":"m 503 0 l 129 0 l 129 1010 l 389 1010 l 389 195 l 857 195 l 857 0 l 654 0 q 656 -26 655 -10 q 657 -58 657 -41 q 590 -228 657 -168 q 414 -287 522 -287 q 345 -283 390 -287 q 269 -271 300 -279 l 269 -135 l 285 -135 q 332 -151 301 -142 q 392 -159 363 -159 q 475 -131 446 -159 q 504 -50 504 -102 q 504 -21 504 -35 q 503 0 503 -7 z "},"ļ":{"ha":475,"x_min":35,"x_max":423,"o":"m 269 0 l 115 0 l 115 1055 l 359 1055 l 359 14 l 420 14 q 422 -20 420 1 q 423 -58 423 -41 q 356 -228 423 -168 q 180 -287 288 -287 q 111 -283 156 -287 q 35 -271 66 -279 l 35 -135 l 51 -135 q 98 -151 67 -142 q 158 -159 130 -159 q 241 -131 212 -159 q 270 -50 270 -102 q 270 -25 270 -39 q 269 0 269 -10 z "},"Ņ":{"ha":1176,"x_min":129,"x_max":1047,"o":"m 1047 0 l 796 0 l 368 693 l 368 0 l 129 0 l 129 1010 l 440 1010 l 808 431 l 808 1010 l 1047 1010 l 1047 0 m 679 -58 q 611 -228 679 -168 q 435 -287 544 -287 q 367 -283 412 -287 q 291 -271 321 -279 l 291 -135 l 307 -135 q 354 -151 323 -142 q 414 -159 385 -159 q 497 -131 468 -159 q 526 -50 526 -102 q 525 -15 526 -35 q 524 14 524 5 l 675 14 q 677 -20 676 1 q 679 -58 679 -41 z "},"ņ":{"ha":989,"x_min":115,"x_max":880,"o":"m 880 0 l 635 0 l 635 378 q 630 470 635 424 q 614 537 625 515 q 574 574 600 562 q 501 585 548 585 q 434 574 468 585 q 359 540 399 564 l 359 0 l 115 0 l 115 762 l 359 762 l 359 677 q 485 755 425 728 q 618 783 545 783 q 811 711 741 783 q 880 496 880 639 l 880 0 m 587 -58 q 519 -228 587 -168 q 343 -287 452 -287 q 274 -283 319 -287 q 199 -271 229 -279 l 199 -135 l 214 -135 q 262 -151 231 -142 q 321 -159 293 -159 q 405 -131 376 -159 q 433 -50 433 -102 q 433 -15 433 -35 q 432 14 432 5 l 583 14 q 585 -20 584 1 q 587 -58 587 -41 z "},"Ŋ":{"ha":1176,"x_min":129,"x_max":1047,"o":"m 802 -2 l 802 7 l 368 693 l 368 0 l 129 0 l 129 1010 l 440 1010 l 808 439 l 808 1010 l 1047 1010 l 1047 -9 q 969 -213 1047 -138 q 762 -287 890 -287 q 635 -280 688 -287 q 562 -269 583 -274 l 562 -90 l 581 -90 q 639 -103 605 -98 q 690 -109 673 -109 q 731 -105 707 -109 q 767 -92 754 -102 q 793 -62 784 -80 q 802 -2 802 -45 z "},"ŋ":{"ha":989,"x_min":115,"x_max":880,"o":"m 608 -73 q 621 -53 608 -73 q 635 68 635 -34 l 635 378 q 630 470 635 424 q 614 537 625 515 q 574 574 600 562 q 501 585 548 585 q 434 574 468 585 q 359 540 399 564 l 359 0 l 115 0 l 115 762 l 359 762 l 359 677 q 485 755 425 728 q 618 783 545 783 q 811 711 741 783 q 880 496 880 639 l 880 5 q 801 -207 880 -127 q 597 -287 722 -287 q 476 -281 530 -287 q 404 -271 421 -275 l 404 -96 l 422 -96 q 463 -107 439 -102 q 515 -112 487 -112 q 608 -73 581 -112 z "},"Ō":{"ha":1181,"x_min":70,"x_max":1111,"o":"m 1111 505 q 972 121 1111 263 q 590 -21 834 -21 q 208 121 347 -21 q 70 505 70 263 q 208 889 70 748 q 590 1031 347 1031 q 972 889 833 1031 q 1111 505 1111 748 m 766 249 q 822 358 804 295 q 840 505 840 420 q 819 660 840 596 q 764 763 798 724 q 685 822 730 804 q 591 840 640 840 q 497 823 541 840 q 417 764 454 805 q 362 660 383 726 q 340 505 340 593 q 361 351 340 414 q 416 248 382 288 q 495 189 450 208 q 591 170 541 170 q 686 189 641 170 q 766 249 732 208 m 863 1166 l 319 1166 l 319 1308 l 863 1308 l 863 1166 z "},"ō":{"ha":954,"x_min":60,"x_max":894,"o":"m 894 380 q 784 84 894 193 q 477 -24 675 -24 q 169 84 279 -24 q 60 380 60 193 q 170 677 60 570 q 477 785 280 785 q 785 677 676 785 q 894 380 894 568 m 593 195 q 629 266 617 224 q 641 379 641 307 q 629 492 641 446 q 595 564 616 537 q 543 604 573 592 q 477 615 512 615 q 414 606 441 615 q 361 568 387 596 q 326 495 339 541 q 313 379 313 449 q 324 271 313 317 q 358 197 336 225 q 410 159 380 171 q 479 146 440 146 q 542 158 512 146 q 593 195 572 169 m 749 913 l 205 913 l 205 1055 l 749 1055 l 749 913 z "},"Ŏ":{"ha":1181,"x_min":70,"x_max":1111,"o":"m 1111 505 q 972 121 1111 263 q 590 -21 834 -21 q 208 121 347 -21 q 70 505 70 263 q 208 889 70 748 q 590 1031 347 1031 q 972 889 833 1031 q 1111 505 1111 748 m 766 249 q 822 358 804 295 q 840 505 840 420 q 819 660 840 596 q 764 763 798 724 q 685 822 730 804 q 591 840 640 840 q 497 823 541 840 q 417 764 454 805 q 362 660 383 726 q 340 505 340 593 q 361 351 340 414 q 416 248 382 288 q 495 189 450 208 q 591 170 541 170 q 686 189 641 170 q 766 249 732 208 m 852 1362 q 783 1173 852 1242 q 590 1104 715 1104 q 396 1170 465 1104 q 328 1362 328 1235 l 479 1362 q 506 1258 479 1293 q 590 1224 534 1224 q 672 1258 643 1224 q 701 1362 701 1293 l 852 1362 z "},"ŏ":{"ha":954,"x_min":60,"x_max":894,"o":"m 894 380 q 784 84 894 193 q 477 -24 675 -24 q 169 84 279 -24 q 60 380 60 193 q 170 677 60 570 q 477 785 280 785 q 785 677 676 785 q 894 380 894 568 m 593 195 q 629 266 617 224 q 641 379 641 307 q 629 492 641 446 q 595 564 616 537 q 543 604 573 592 q 477 615 512 615 q 414 606 441 615 q 361 568 387 596 q 326 495 339 541 q 313 379 313 449 q 324 271 313 317 q 358 197 336 225 q 410 159 380 171 q 479 146 440 146 q 542 158 512 146 q 593 195 572 169 m 739 1109 q 670 920 739 989 q 477 851 602 851 q 283 917 352 851 q 214 1109 214 982 l 366 1109 q 393 1005 366 1040 q 477 971 420 971 q 558 1005 530 971 q 587 1109 587 1040 l 739 1109 z "},"Ŗ":{"ha":1086,"x_min":129,"x_max":1101,"o":"m 695 701 q 680 766 695 739 q 626 808 664 793 q 564 822 600 819 q 482 824 529 824 l 388 824 l 388 552 l 468 552 q 572 558 530 552 q 643 586 614 564 q 683 632 670 607 q 695 701 695 658 m 1101 0 l 783 0 l 508 370 l 388 370 l 388 0 l 129 0 l 129 1010 l 566 1010 q 720 1000 655 1010 q 840 956 784 989 q 931 868 897 922 q 964 732 964 814 q 912 550 964 621 q 764 433 861 479 l 1101 0 m 667 -58 q 600 -228 667 -168 q 424 -287 532 -287 q 355 -283 400 -287 q 279 -271 310 -279 l 279 -135 l 295 -135 q 342 -151 311 -142 q 402 -159 374 -159 q 485 -131 456 -159 q 514 -50 514 -102 q 513 -15 514 -35 q 513 14 513 5 l 664 14 q 666 -20 665 1 q 667 -58 667 -41 z "},"ŗ":{"ha":690,"x_min":70,"x_max":667,"o":"m 85 -135 q 133 -151 102 -142 q 193 -159 164 -159 q 276 -131 247 -159 q 304 -50 304 -102 q 304 -25 304 -39 q 303 0 304 -10 l 115 0 l 115 762 l 359 762 l 359 650 q 500 742 440 719 q 610 764 559 764 q 639 764 623 764 q 667 762 655 763 l 667 529 l 646 529 q 595 537 630 534 q 538 540 561 540 q 446 533 486 540 q 359 510 406 526 l 359 14 l 454 14 q 456 -20 455 1 q 458 -58 458 -41 q 390 -228 458 -168 q 214 -287 323 -287 q 145 -283 191 -287 q 70 -271 100 -279 l 70 -135 l 85 -135 z "},"Ŝ":{"ha":987,"x_min":74,"x_max":937,"o":"m 937 317 q 811 75 937 168 q 467 -18 684 -18 q 249 4 342 -18 q 74 60 155 26 l 74 302 l 102 302 q 283 203 183 237 q 475 168 383 168 q 538 172 499 168 q 601 186 576 176 q 650 216 631 198 q 669 271 669 235 q 641 328 669 304 q 559 365 613 352 q 438 390 502 378 q 319 420 375 402 q 136 533 192 462 q 80 709 80 604 q 207 939 80 850 q 532 1028 333 1028 q 729 1009 631 1028 q 897 960 826 989 l 897 728 l 869 728 q 720 809 808 777 q 539 842 631 842 q 474 838 507 842 q 412 821 442 833 q 367 790 386 811 q 348 743 348 770 q 378 682 348 703 q 494 643 409 661 q 601 621 549 631 q 711 591 652 610 q 882 487 827 553 q 937 317 937 422 m 826 1123 l 647 1123 l 522 1272 l 397 1123 l 220 1123 l 438 1390 l 608 1390 l 826 1123 z "},"ŝ":{"ha":824,"x_min":64,"x_max":777,"o":"m 777 241 q 671 51 777 123 q 382 -21 566 -21 q 197 -2 280 -21 q 64 40 115 17 l 64 241 l 87 241 q 129 213 105 228 q 197 180 153 197 q 283 153 235 164 q 387 142 332 142 q 493 158 458 142 q 528 205 528 174 q 507 245 528 233 q 430 269 487 258 q 356 282 403 275 q 272 300 310 290 q 118 384 168 327 q 68 527 68 441 q 172 710 68 637 q 456 783 276 783 q 620 765 542 783 q 743 728 699 748 l 743 536 l 722 536 q 598 596 667 573 q 457 620 528 620 q 358 604 398 620 q 317 557 317 587 q 336 516 317 530 q 422 488 354 502 q 502 473 459 480 q 589 455 545 466 q 731 376 685 430 q 777 241 777 322 m 730 870 l 551 870 l 426 1019 l 301 870 l 125 870 l 342 1137 l 513 1137 l 730 870 z "},"Ŧ":{"ha":947,"x_min":28,"x_max":919,"o":"m 343 410 l 153 410 l 153 566 l 343 566 l 343 814 l 28 814 l 28 1010 l 919 1010 l 919 814 l 604 814 l 604 566 l 794 566 l 794 410 l 604 410 l 604 0 l 343 0 l 343 410 z "},"ŧ":{"ha":633,"x_min":29,"x_max":602,"o":"m 602 7 q 519 -9 563 -3 q 411 -15 475 -15 q 199 43 269 -15 q 130 240 130 100 l 130 317 l 36 317 l 36 461 l 130 461 l 130 596 l 29 596 l 29 762 l 130 762 l 130 979 l 374 979 l 374 762 l 602 762 l 602 596 l 374 596 l 374 461 l 529 461 l 529 317 l 374 317 q 374 253 374 280 q 385 203 375 227 q 419 165 395 179 q 489 151 443 151 q 539 159 508 151 q 582 174 570 168 l 602 174 l 602 7 z "},"Ũ":{"ha":1128,"x_min":115,"x_max":1013,"o":"m 1013 366 q 899 79 1013 178 q 564 -21 785 -21 q 228 79 342 -21 q 115 365 115 178 l 115 1010 l 376 1010 l 376 380 q 420 223 376 275 q 564 172 465 172 q 706 221 661 172 q 751 380 751 271 l 751 1010 l 1013 1010 l 1013 366 m 865 1350 q 809 1180 858 1236 q 671 1125 760 1125 q 611 1138 640 1125 q 558 1164 582 1150 q 512 1191 537 1177 q 469 1204 486 1204 q 425 1182 436 1204 q 412 1121 414 1160 l 263 1121 q 320 1284 267 1223 q 456 1345 372 1345 q 517 1334 488 1345 q 571 1308 547 1322 q 618 1282 596 1294 q 658 1270 640 1270 q 703 1292 690 1270 q 716 1350 715 1314 l 865 1350 z "},"ũ":{"ha":989,"x_min":109,"x_max":874,"o":"m 874 0 l 630 0 l 630 84 q 506 6 562 33 q 372 -21 450 -21 q 177 52 245 -21 q 109 266 109 124 l 109 762 l 355 762 l 355 384 q 358 288 355 326 q 376 224 362 250 q 415 188 389 199 q 488 176 441 176 q 557 188 519 176 q 630 222 595 199 l 630 762 l 874 762 l 874 0 m 807 1097 q 751 927 800 983 q 614 872 702 872 q 553 885 582 872 q 500 911 524 897 q 454 938 479 924 q 412 951 429 951 q 367 929 378 951 q 354 868 356 907 l 205 868 q 262 1031 210 970 q 398 1093 315 1093 q 460 1081 431 1093 q 513 1055 489 1069 q 560 1029 538 1041 q 600 1017 582 1017 q 645 1039 633 1017 q 659 1097 657 1061 l 807 1097 z "},"Ū":{"ha":1128,"x_min":115,"x_max":1013,"o":"m 1013 366 q 899 79 1013 178 q 564 -21 785 -21 q 228 79 342 -21 q 115 365 115 178 l 115 1010 l 376 1010 l 376 380 q 420 223 376 275 q 564 172 465 172 q 706 221 661 172 q 751 380 751 271 l 751 1010 l 1013 1010 l 1013 366 m 836 1166 l 292 1166 l 292 1308 l 836 1308 l 836 1166 z "},"ū":{"ha":989,"x_min":109,"x_max":874,"o":"m 874 0 l 630 0 l 630 84 q 506 6 562 33 q 372 -21 450 -21 q 177 52 245 -21 q 109 266 109 124 l 109 762 l 355 762 l 355 384 q 358 288 355 326 q 376 224 362 250 q 415 188 389 199 q 488 176 441 176 q 557 188 519 176 q 630 222 595 199 l 630 762 l 874 762 l 874 0 m 768 913 l 224 913 l 224 1055 l 768 1055 l 768 913 z "},"Ŭ":{"ha":1128,"x_min":115,"x_max":1013,"o":"m 1013 366 q 899 79 1013 178 q 564 -21 785 -21 q 228 79 342 -21 q 115 365 115 178 l 115 1010 l 376 1010 l 376 380 q 420 223 376 275 q 564 172 465 172 q 706 221 661 172 q 751 380 751 271 l 751 1010 l 1013 1010 l 1013 366 m 827 1362 q 759 1173 827 1242 q 566 1104 690 1104 q 372 1170 441 1104 q 303 1362 303 1235 l 454 1362 q 482 1258 454 1293 q 566 1224 509 1224 q 647 1258 618 1224 q 676 1362 676 1293 l 827 1362 z "},"ŭ":{"ha":989,"x_min":109,"x_max":874,"o":"m 874 0 l 630 0 l 630 84 q 506 6 562 33 q 372 -21 450 -21 q 177 52 245 -21 q 109 266 109 124 l 109 762 l 355 762 l 355 384 q 358 288 355 326 q 376 224 362 250 q 415 188 389 199 q 488 176 441 176 q 557 188 519 176 q 630 222 595 199 l 630 762 l 874 762 l 874 0 m 755 1109 q 687 920 755 989 q 494 851 618 851 q 300 917 369 851 q 231 1109 231 982 l 382 1109 q 410 1005 382 1040 q 494 971 437 971 q 575 1005 547 971 q 604 1109 604 1040 l 755 1109 z "},"Ų":{"ha":1128,"x_min":115,"x_max":1013,"o":"m 618 -18 q 594 -19 608 -18 q 564 -20 580 -20 q 228 79 342 -20 q 115 365 115 178 l 115 1010 l 376 1010 l 376 380 q 420 223 376 275 q 564 172 465 172 q 706 221 661 172 q 751 380 751 271 l 751 1010 l 1013 1010 l 1013 366 q 950 137 1013 227 q 765 7 887 46 q 764 -20 764 -9 q 763 -57 763 -31 q 795 -126 763 -98 q 886 -154 828 -154 q 946 -146 914 -154 q 993 -131 979 -138 l 999 -131 l 999 -267 q 923 -279 966 -275 q 856 -283 880 -283 q 678 -227 740 -283 q 616 -67 616 -171 q 617 -39 616 -51 q 618 -18 618 -26 z "},"ų":{"ha":989,"x_min":109,"x_max":1004,"o":"m 622 -67 q 626 18 622 -32 q 630 84 629 68 q 506 6 562 33 q 372 -21 450 -21 q 177 52 245 -21 q 109 266 109 124 l 109 762 l 355 762 l 355 384 q 358 288 355 326 q 376 224 362 250 q 415 188 389 199 q 488 176 441 176 q 557 188 519 176 q 630 222 595 199 l 630 762 l 874 762 l 874 0 l 772 0 q 769 -27 770 -15 q 768 -57 768 -39 q 801 -126 768 -98 q 891 -154 833 -154 q 952 -146 920 -154 q 998 -131 984 -138 l 1004 -131 l 1004 -267 q 928 -279 972 -275 q 861 -283 885 -283 q 684 -227 745 -283 q 622 -67 622 -171 z "},"Ŵ":{"ha":1567,"x_min":45,"x_max":1522,"o":"m 1522 1010 l 1251 0 l 962 0 l 781 658 l 605 0 l 317 0 l 45 1010 l 317 1010 l 472 315 l 658 1010 l 918 1010 l 1095 315 l 1257 1010 l 1522 1010 m 1090 1123 l 911 1123 l 786 1272 l 661 1123 l 485 1123 l 703 1390 l 873 1390 l 1090 1123 z "},"ŵ":{"ha":1360,"x_min":31,"x_max":1330,"o":"m 1330 762 l 1094 0 l 835 0 l 680 513 l 527 0 l 264 0 l 31 762 l 287 762 l 417 237 l 580 762 l 796 762 l 951 237 l 1079 762 l 1330 762 m 992 870 l 813 870 l 688 1019 l 563 870 l 387 870 l 604 1137 l 774 1137 l 992 870 z "},"Ŷ":{"ha":1023,"x_min":6,"x_max":1017,"o":"m 1017 1010 l 645 391 l 645 0 l 385 0 l 385 378 l 6 1010 l 302 1010 l 520 619 l 731 1010 l 1017 1010 m 819 1123 l 640 1123 l 515 1272 l 390 1123 l 214 1123 l 431 1390 l 602 1390 l 819 1123 z "},"ŷ":{"ha":904,"x_min":20,"x_max":884,"o":"m 459 269 l 633 762 l 884 762 l 460 -279 l 196 -279 l 317 5 l 20 762 l 277 762 l 459 269 m 757 870 l 578 870 l 452 1019 l 328 870 l 151 870 l 369 1137 l 539 1137 l 757 870 z "},"ſ":{"ha":479,"x_min":115,"x_max":591,"o":"m 591 876 l 572 876 q 530 887 556 881 q 474 893 504 893 q 385 868 410 893 q 359 768 359 842 l 359 0 l 115 0 l 115 783 q 190 992 115 922 q 414 1062 264 1062 q 513 1058 469 1062 q 591 1048 557 1055 l 591 876 z "},"Ǻ":{"ha":1078,"x_min":16,"x_max":1062,"o":"m 1062 0 l 793 0 l 709 204 l 355 204 l 279 0 l 16 0 l 372 881 q 325 945 343 908 q 307 1022 307 981 q 345 1135 307 1084 q 442 1209 382 1185 l 570 1389 l 799 1389 l 799 1375 l 616 1217 q 727 1143 683 1196 q 771 1022 771 1090 q 752 943 771 980 q 707 881 734 906 l 1062 0 m 646 389 l 536 684 l 418 389 l 646 389 m 631 1027 q 605 1098 631 1070 q 539 1126 579 1126 q 473 1098 499 1126 q 447 1027 447 1070 q 473 957 447 985 q 539 928 498 928 q 606 957 580 928 q 631 1027 631 985 z "},"ǻ":{"ha":928,"x_min":58,"x_max":819,"o":"m 576 199 l 576 357 q 469 346 527 353 q 382 330 412 339 q 326 296 345 318 q 307 238 307 274 q 311 199 307 214 q 331 171 315 184 q 368 151 347 157 q 436 144 390 144 q 510 159 473 144 q 576 199 548 174 m 576 81 q 528 45 557 66 q 473 12 498 24 q 398 -13 437 -5 q 313 -20 359 -20 q 132 47 205 -20 q 58 218 58 114 q 96 355 58 302 q 201 438 133 408 q 370 481 269 469 q 578 500 470 494 l 578 505 q 526 592 578 568 q 374 616 475 616 q 245 594 314 616 q 147 562 177 573 l 125 562 l 125 745 q 219 765 161 755 q 363 780 276 775 q 277 851 310 804 q 244 960 244 898 q 279 1073 244 1024 q 371 1144 315 1122 l 498 1341 l 724 1341 l 724 1328 l 527 1152 q 634 1082 592 1134 q 675 960 675 1030 q 640 846 675 895 q 547 776 604 798 q 750 700 682 760 q 819 518 819 639 l 819 0 l 576 0 l 576 81 m 552 953 q 526 1026 552 995 q 460 1057 500 1057 q 394 1026 420 1057 q 368 953 368 996 q 393 884 368 910 q 460 857 419 857 q 527 884 501 857 q 552 953 552 911 z "},"Ǽ":{"ha":1519,"x_min":3,"x_max":1430,"o":"m 460 467 l 701 467 l 701 824 l 604 824 l 460 467 m 701 274 l 383 274 l 273 0 l 3 0 l 417 1010 l 1430 1010 l 1430 814 l 958 814 l 958 640 l 1396 640 l 1396 445 l 958 445 l 958 195 l 1430 195 l 1430 0 l 701 0 l 701 274 m 1145 1390 l 1145 1376 l 906 1123 l 739 1123 l 907 1390 l 1145 1390 z "},"ǽ":{"ha":1414,"x_min":58,"x_max":1357,"o":"m 1357 336 l 807 336 q 831 247 810 282 q 885 191 852 212 q 962 160 918 170 q 1056 151 1005 151 q 1202 178 1131 151 q 1316 239 1273 205 l 1343 239 l 1343 43 q 1199 -3 1272 14 q 1029 -20 1126 -20 q 831 10 926 -20 q 663 104 736 40 q 605 64 642 89 q 535 23 569 39 q 442 -8 491 3 q 318 -20 393 -20 q 131 46 203 -20 q 58 218 58 113 q 96 356 58 304 q 201 438 134 408 q 365 481 267 467 q 571 500 463 494 l 571 505 q 523 592 571 568 q 374 616 475 616 q 245 594 314 616 q 147 562 177 573 l 125 562 l 125 745 q 251 769 163 755 q 425 783 338 783 q 601 763 529 783 q 722 708 673 743 q 843 764 774 742 q 989 785 911 785 q 1265 691 1173 785 q 1357 421 1357 597 l 1357 336 m 1114 479 q 1077 593 1112 554 q 968 633 1042 633 q 856 596 900 633 q 806 479 812 559 l 1114 479 m 595 208 q 572 293 577 251 q 567 357 567 334 q 464 347 511 352 q 381 329 418 341 q 327 296 347 318 q 307 238 307 274 q 311 201 307 218 q 330 171 316 183 q 371 151 345 157 q 433 144 397 144 q 516 162 474 144 q 595 208 557 179 m 1013 1137 l 1013 1123 l 774 870 l 607 870 l 774 1137 l 1013 1137 z "},"Ǿ":{"ha":1181,"x_min":68,"x_max":1111,"o":"m 808 711 l 441 214 q 510 177 472 190 q 591 164 548 164 q 688 184 640 164 q 770 245 736 204 q 827 355 808 291 q 846 505 846 420 q 835 619 846 562 q 808 711 825 676 m 371 302 l 736 798 q 667 834 704 823 q 591 846 630 846 q 495 829 538 846 q 414 768 452 812 q 357 664 378 730 q 335 505 335 597 q 345 392 335 444 q 371 302 354 340 m 223 110 q 110 280 150 179 q 70 505 70 380 q 208 889 70 748 q 590 1031 347 1031 q 738 1015 671 1031 q 863 968 804 1000 l 946 1080 l 1088 1080 l 956 903 q 1070 733 1029 835 q 1111 505 1111 632 q 972 121 1111 263 q 590 -21 834 -21 q 441 -4 512 -21 q 314 44 370 13 l 209 -96 l 68 -96 l 223 110 m 830 1390 l 830 1376 l 591 1123 l 425 1123 l 592 1390 l 830 1390 z "},"ǿ":{"ha":954,"x_min":60,"x_max":894,"o":"m 633 505 l 385 168 q 427 149 404 155 q 479 142 450 142 q 544 154 512 142 q 597 192 576 166 q 634 263 621 222 q 646 379 646 305 q 643 448 646 412 q 633 505 639 483 m 325 241 l 579 587 q 533 611 559 604 q 477 619 508 619 q 412 609 441 619 q 359 571 383 600 q 322 497 336 545 q 308 379 308 449 q 313 302 308 337 q 325 241 317 267 m 193 68 q 94 202 128 122 q 60 380 60 282 q 170 677 60 570 q 477 785 280 785 q 593 773 541 785 q 693 737 646 760 l 775 850 l 894 850 l 770 686 q 862 555 829 633 q 894 380 894 477 q 784 84 894 193 q 477 -24 675 -24 q 367 -13 418 -24 q 272 19 315 -1 l 178 -110 l 60 -110 l 193 68 m 718 1137 l 718 1123 l 479 870 l 312 870 l 479 1137 l 718 1137 z "},"·":{"ha":559,"x_min":153,"x_max":406,"o":"m 406 495 l 153 495 l 153 762 l 406 762 l 406 495 z "},"Ẁ":{"ha":1567,"x_min":45,"x_max":1522,"o":"m 1522 1010 l 1251 0 l 962 0 l 781 658 l 605 0 l 317 0 l 45 1010 l 317 1010 l 472 315 l 658 1010 l 918 1010 l 1095 315 l 1257 1010 l 1522 1010 m 944 1123 l 777 1123 l 538 1376 l 538 1390 l 777 1390 l 944 1123 z "},"ẁ":{"ha":1360,"x_min":31,"x_max":1330,"o":"m 1330 762 l 1094 0 l 835 0 l 680 513 l 527 0 l 264 0 l 31 762 l 287 762 l 417 237 l 580 762 l 796 762 l 951 237 l 1079 762 l 1330 762 m 825 870 l 659 870 l 420 1123 l 420 1137 l 658 1137 l 825 870 z "},"Ẃ":{"ha":1567,"x_min":45,"x_max":1522,"o":"m 1522 1010 l 1251 0 l 962 0 l 781 658 l 605 0 l 317 0 l 45 1010 l 317 1010 l 472 315 l 658 1010 l 918 1010 l 1095 315 l 1257 1010 l 1522 1010 m 1037 1390 l 1037 1376 l 798 1123 l 631 1123 l 799 1390 l 1037 1390 z "},"ẃ":{"ha":1360,"x_min":31,"x_max":1330,"o":"m 1330 762 l 1094 0 l 835 0 l 680 513 l 527 0 l 264 0 l 31 762 l 287 762 l 417 237 l 580 762 l 796 762 l 951 237 l 1079 762 l 1330 762 m 956 1137 l 956 1123 l 717 870 l 550 870 l 718 1137 l 956 1137 z "},"Ẅ":{"ha":1567,"x_min":45,"x_max":1522,"o":"m 1522 1010 l 1251 0 l 962 0 l 781 658 l 605 0 l 317 0 l 45 1010 l 317 1010 l 472 315 l 658 1010 l 918 1010 l 1095 315 l 1257 1010 l 1522 1010 m 1071 1123 l 869 1123 l 869 1308 l 1071 1308 l 1071 1123 m 707 1123 l 505 1123 l 505 1308 l 707 1308 l 707 1123 z "},"ẅ":{"ha":1360,"x_min":31,"x_max":1330,"o":"m 1330 762 l 1094 0 l 835 0 l 680 513 l 527 0 l 264 0 l 31 762 l 287 762 l 417 237 l 580 762 l 796 762 l 951 237 l 1079 762 l 1330 762 m 971 870 l 770 870 l 770 1055 l 971 1055 l 971 870 m 607 870 l 406 870 l 406 1055 l 607 1055 l 607 870 z "},"Ỳ":{"ha":1023,"x_min":6,"x_max":1017,"o":"m 1017 1010 l 645 391 l 645 0 l 385 0 l 385 378 l 6 1010 l 302 1010 l 520 619 l 731 1010 l 1017 1010 m 703 1123 l 536 1123 l 298 1376 l 298 1390 l 536 1390 l 703 1123 z "},"ỳ":{"ha":904,"x_min":20,"x_max":884,"o":"m 459 269 l 633 762 l 884 762 l 460 -279 l 196 -279 l 317 5 l 20 762 l 277 762 l 459 269 m 625 870 l 458 870 l 220 1123 l 220 1137 l 458 1137 l 625 870 z "},"‛":{"ha":461,"x_min":22,"x_max":378,"o":"m 378 1055 l 271 656 l 22 656 l 219 1055 l 378 1055 z "},"‾":{"ha":987,"x_min":-11,"x_max":998,"o":"m 998 1104 l -11 1104 l -11 1247 l 998 1247 l 998 1104 z "},"₤":{"ha":987,"x_min":104,"x_max":899,"o":"m 899 0 l 104 0 l 104 189 q 200 238 171 206 q 240 323 229 270 l 125 323 l 125 441 l 248 441 l 248 534 l 125 534 l 125 652 l 247 652 l 247 733 q 346 946 247 863 q 610 1029 446 1029 q 763 1018 702 1029 q 859 997 823 1007 l 859 785 l 829 785 q 732 830 777 817 q 647 844 686 844 q 533 803 576 844 q 490 690 490 763 l 490 652 l 786 652 l 786 534 l 488 534 l 488 441 l 786 441 l 786 323 l 475 323 q 436 250 465 284 q 373 199 406 216 l 373 191 l 899 191 l 899 0 z "},"℮":{"ha":1039,"x_min":87,"x_max":954,"o":"m 954 390 l 344 390 q 372 285 348 327 q 432 218 396 243 q 517 182 468 194 q 624 170 566 170 q 720 182 673 170 q 800 209 768 194 q 863 242 836 226 q 909 273 890 259 l 939 273 l 939 54 q 876 30 913 44 q 802 7 839 16 q 702 -12 751 -6 q 597 -18 652 -18 q 219 101 351 -18 q 87 435 87 220 q 214 775 87 650 q 553 901 340 901 q 853 793 753 901 q 954 486 954 686 l 954 390 m 694 549 q 652 686 692 637 q 530 734 612 734 q 403 689 454 734 q 347 549 353 644 l 694 549 z "},"⅛":{"ha":1641,"x_min":121,"x_max":1544,"o":"m 468 379 l 280 379 l 280 791 l 121 791 l 121 914 q 248 938 197 914 q 304 1013 298 962 l 468 1013 l 468 379 m 1122 1016 l 589 0 l 407 0 l 939 1016 l 1122 1016 m 1544 169 q 1468 33 1544 87 q 1249 -22 1392 -22 q 1032 31 1108 -22 q 956 167 956 83 q 985 257 956 220 q 1081 321 1015 294 l 1081 325 q 1002 388 1025 353 q 979 470 979 422 q 1057 600 979 552 q 1255 647 1135 647 q 1456 601 1387 647 q 1526 477 1526 555 q 1500 388 1526 429 q 1417 323 1474 347 l 1417 319 q 1514 260 1483 294 q 1544 169 1544 227 m 1340 460 q 1316 511 1340 491 q 1253 532 1293 532 q 1192 513 1217 532 q 1166 466 1166 494 q 1182 427 1166 446 q 1239 392 1198 409 q 1274 379 1255 385 q 1303 370 1293 373 q 1332 414 1324 390 q 1340 460 1340 438 m 1354 167 q 1333 215 1354 199 q 1262 250 1312 231 q 1225 262 1248 255 q 1196 272 1203 269 q 1159 233 1174 257 q 1145 182 1145 210 q 1177 119 1145 143 q 1253 94 1208 94 q 1322 111 1291 94 q 1354 167 1354 127 z "},"⅜":{"ha":1641,"x_min":120,"x_max":1604,"o":"m 654 562 q 581 417 654 467 q 363 368 507 368 q 216 380 275 368 q 120 407 157 392 l 120 553 l 135 553 q 217 522 163 538 q 323 506 271 506 q 424 522 390 506 q 457 575 457 537 q 435 623 457 608 q 349 637 413 637 l 245 637 l 245 770 l 338 770 q 414 784 389 770 q 440 833 440 799 q 412 878 440 864 q 323 892 384 892 q 226 876 279 892 q 146 844 174 859 l 130 844 l 130 989 q 234 1017 174 1004 q 375 1030 294 1030 q 567 989 496 1030 q 639 869 639 949 q 606 770 639 808 q 522 715 573 732 l 522 710 q 617 661 581 699 q 654 562 654 623 m 1203 1016 l 671 0 l 488 0 l 1021 1016 l 1203 1016 m 1604 169 q 1528 33 1604 87 q 1309 -22 1451 -22 q 1092 31 1168 -22 q 1015 167 1015 83 q 1045 257 1015 220 q 1141 321 1075 294 l 1141 325 q 1062 388 1085 353 q 1039 470 1039 422 q 1117 600 1039 552 q 1315 647 1194 647 q 1516 601 1447 647 q 1586 477 1586 555 q 1559 388 1586 429 q 1477 323 1533 347 l 1477 319 q 1573 260 1543 294 q 1604 169 1604 227 m 1400 460 q 1376 511 1400 491 q 1312 532 1352 532 q 1252 513 1277 532 q 1226 466 1226 494 q 1242 427 1226 446 q 1299 392 1257 409 q 1334 379 1315 385 q 1363 370 1352 373 q 1392 414 1384 390 q 1400 460 1400 438 m 1414 167 q 1393 215 1414 199 q 1322 250 1371 231 q 1285 262 1308 255 q 1255 272 1263 269 q 1219 233 1234 257 q 1204 182 1204 210 q 1236 119 1204 143 q 1312 94 1268 94 q 1382 111 1350 94 q 1414 167 1414 127 z "},"⅝":{"ha":1641,"x_min":113,"x_max":1604,"o":"m 650 598 q 575 427 650 488 q 353 366 500 366 q 220 377 283 366 q 113 403 156 389 l 113 549 l 129 549 q 222 519 171 532 q 311 506 273 506 q 415 525 380 506 q 451 592 451 544 q 415 650 451 631 q 288 669 378 669 q 211 666 246 669 q 150 660 176 662 l 150 1016 l 638 1016 l 638 876 l 328 876 l 328 795 q 362 797 340 796 q 397 797 383 797 q 585 747 519 797 q 650 598 650 696 m 1200 1016 l 667 0 l 485 0 l 1017 1016 l 1200 1016 m 1604 169 q 1528 33 1604 87 q 1309 -22 1451 -22 q 1092 31 1168 -22 q 1015 167 1015 83 q 1045 257 1015 220 q 1141 321 1075 294 l 1141 325 q 1062 388 1085 353 q 1039 470 1039 422 q 1117 600 1039 552 q 1315 647 1194 647 q 1516 601 1447 647 q 1586 477 1586 555 q 1559 388 1586 429 q 1477 323 1533 347 l 1477 319 q 1573 260 1543 294 q 1604 169 1604 227 m 1400 460 q 1376 511 1400 491 q 1312 532 1352 532 q 1252 513 1277 532 q 1226 466 1226 494 q 1242 427 1226 446 q 1299 392 1257 409 q 1334 379 1315 385 q 1363 370 1352 373 q 1392 414 1384 390 q 1400 460 1400 438 m 1414 167 q 1393 215 1414 199 q 1322 250 1371 231 q 1285 262 1308 255 q 1255 272 1263 269 q 1219 233 1234 257 q 1204 182 1204 210 q 1236 119 1204 143 q 1312 94 1268 94 q 1382 111 1350 94 q 1414 167 1414 127 z "},"⅞":{"ha":1641,"x_min":122,"x_max":1558,"o":"m 677 880 l 355 383 l 149 383 l 475 870 l 122 870 l 122 1016 l 677 1016 l 677 880 m 1133 1016 l 600 0 l 418 0 l 950 1016 l 1133 1016 m 1558 169 q 1482 33 1558 87 q 1263 -22 1406 -22 q 1046 31 1122 -22 q 970 167 970 83 q 1000 257 970 220 q 1095 321 1029 294 l 1095 325 q 1017 388 1040 353 q 994 470 994 422 q 1071 600 994 552 q 1270 647 1149 647 q 1471 601 1401 647 q 1540 477 1540 555 q 1514 388 1540 429 q 1432 323 1488 347 l 1432 319 q 1528 260 1497 294 q 1558 169 1558 227 m 1354 460 q 1331 511 1354 491 q 1267 532 1307 532 q 1206 513 1232 532 q 1181 466 1181 494 q 1196 427 1181 446 q 1253 392 1212 409 q 1288 379 1270 385 q 1318 370 1307 373 q 1347 414 1339 390 q 1354 460 1354 438 m 1369 167 q 1347 215 1369 199 q 1276 250 1326 231 q 1240 262 1262 255 q 1210 272 1217 269 q 1174 233 1188 257 q 1159 182 1159 210 q 1191 119 1159 143 q 1267 94 1223 94 q 1337 111 1305 94 q 1369 167 1369 127 z "},"΄":{"ha":987,"x_min":364,"x_max":623,"o":"m 623 1137 l 574 870 l 414 870 l 364 1137 l 623 1137 z "},"΅":{"ha":987,"x_min":135,"x_max":852,"o":"m 609 1137 l 559 870 l 427 870 l 378 1137 l 609 1137 m 852 870 l 671 870 l 671 1055 l 852 1055 l 852 870 m 316 870 l 135 870 l 135 1055 l 316 1055 l 316 870 z "},"Ά":{"ha":1107,"x_min":-14,"x_max":1091,"o":"m 1091 0 l 822 0 l 752 204 l 378 204 l 308 0 l 45 0 l 418 1010 l 718 1010 l 1091 0 m 689 389 l 565 751 l 441 389 l 689 389 m 245 1010 l 195 743 l 35 743 l -14 1010 l 245 1010 z "},"Έ":{"ha":1177,"x_min":-14,"x_max":1087,"o":"m 1087 0 l 357 0 l 357 1010 l 1087 1010 l 1087 814 l 616 814 l 616 640 l 1053 640 l 1053 445 l 616 445 l 616 195 l 1087 195 l 1087 0 m 245 1010 l 195 743 l 35 743 l -14 1010 l 245 1010 z "},"Ή":{"ha":1390,"x_min":-14,"x_max":1261,"o":"m 1261 0 l 1001 0 l 1001 445 l 616 445 l 616 0 l 356 0 l 356 1010 l 616 1010 l 616 640 l 1001 640 l 1001 1010 l 1261 1010 l 1261 0 m 245 1010 l 195 743 l 35 743 l -14 1010 l 245 1010 z "},"Ί":{"ha":979,"x_min":-14,"x_max":896,"o":"m 896 0 l 304 0 l 304 179 l 470 179 l 470 831 l 304 831 l 304 1010 l 896 1010 l 896 831 l 730 831 l 730 179 l 896 179 l 896 0 m 245 1010 l 195 743 l 35 743 l -14 1010 l 245 1010 z "},"Ό":{"ha":1345,"x_min":-14,"x_max":1275,"o":"m 1275 505 q 1137 121 1275 263 q 754 -21 998 -21 q 372 121 511 -21 q 234 505 234 263 q 372 889 234 748 q 754 1031 511 1031 q 1136 889 997 1031 q 1275 505 1275 748 m 930 249 q 986 358 968 295 q 1004 505 1004 420 q 983 660 1004 596 q 928 763 962 724 q 849 822 894 804 q 755 840 804 840 q 662 823 705 840 q 581 764 618 805 q 526 660 547 726 q 505 505 505 593 q 525 351 505 414 q 580 248 546 288 q 659 189 614 208 q 755 170 705 170 q 850 189 805 170 q 930 249 896 208 m 245 1010 l 195 743 l 35 743 l -14 1010 l 245 1010 z "},"Ύ":{"ha":1305,"x_min":-14,"x_max":1299,"o":"m 1299 1010 l 926 391 l 926 0 l 666 0 l 666 378 l 288 1010 l 583 1010 l 802 619 l 1013 1010 l 1299 1010 m 245 1010 l 195 743 l 35 743 l -14 1010 l 245 1010 z "},"Ώ":{"ha":1348,"x_min":-14,"x_max":1312,"o":"m 1312 0 l 826 0 l 826 331 q 894 374 867 356 q 947 427 921 391 q 984 495 971 458 q 996 595 996 532 q 933 775 996 709 q 762 840 870 840 q 590 775 653 840 q 527 595 527 709 q 540 496 527 536 q 576 425 553 455 q 632 373 600 396 q 697 331 665 350 l 697 0 l 212 0 l 212 195 l 533 195 l 533 238 q 326 390 395 293 q 256 623 256 487 q 395 916 256 800 q 762 1031 533 1031 q 1128 916 990 1031 q 1267 623 1267 800 q 1198 390 1267 487 q 990 238 1128 293 l 990 195 l 1312 195 l 1312 0 m 245 1010 l 195 743 l 35 743 l -14 1010 l 245 1010 z "},"ΐ":{"ha":475,"x_min":-67,"x_max":542,"o":"m 359 0 l 115 0 l 115 762 l 359 762 l 359 0 m 330 1137 l 290 870 l 184 870 l 144 1137 l 330 1137 m 542 870 l 388 870 l 388 1055 l 542 1055 l 542 870 m 87 870 l -67 870 l -67 1055 l 87 1055 l 87 870 z "},"Α":{"ha":1078,"x_min":16,"x_max":1062,"o":"m 1062 0 l 793 0 l 723 204 l 349 204 l 279 0 l 16 0 l 389 1010 l 689 1010 l 1062 0 m 660 389 l 536 751 l 412 389 l 660 389 z "},"Β":{"ha":1058,"x_min":129,"x_max":993,"o":"m 993 309 q 963 178 993 236 q 882 83 934 121 q 751 19 823 38 q 570 0 680 0 l 129 0 l 129 1010 l 521 1010 q 700 1002 643 1010 q 812 966 756 994 q 898 887 869 937 q 926 775 926 838 q 887 646 926 702 q 778 559 848 590 l 778 553 q 935 472 877 534 q 993 309 993 410 m 659 724 q 647 774 659 749 q 602 812 634 800 q 531 824 574 823 q 412 825 489 825 l 388 825 l 388 611 l 429 611 q 534 613 490 611 q 602 627 577 615 q 648 667 637 642 q 659 724 659 692 m 723 313 q 704 388 723 361 q 641 427 686 414 q 557 436 610 435 q 445 437 503 437 l 388 437 l 388 185 l 407 185 q 564 186 517 185 q 652 203 612 186 q 708 249 692 220 q 723 313 723 277 z "},"Δ":{"ha":1119,"x_min":23,"x_max":1096,"o":"m 1096 0 l 23 0 l 410 1010 l 709 1010 l 1096 0 m 761 194 l 556 751 l 351 194 l 761 194 z "},"Ε":{"ha":949,"x_min":129,"x_max":859,"o":"m 859 0 l 129 0 l 129 1010 l 859 1010 l 859 814 l 388 814 l 388 640 l 825 640 l 825 445 l 388 445 l 388 195 l 859 195 l 859 0 z "},"Ζ":{"ha":961,"x_min":61,"x_max":909,"o":"m 909 0 l 61 0 l 61 189 l 564 814 l 85 814 l 85 1010 l 882 1010 l 882 817 l 380 195 l 909 195 l 909 0 z "},"Η":{"ha":1163,"x_min":129,"x_max":1034,"o":"m 1034 0 l 774 0 l 774 445 l 389 445 l 389 0 l 129 0 l 129 1010 l 389 1010 l 389 640 l 774 640 l 774 1010 l 1034 1010 l 1034 0 z "},"Ι":{"ha":758,"x_min":83,"x_max":675,"o":"m 675 0 l 83 0 l 83 179 l 249 179 l 249 831 l 83 831 l 83 1010 l 675 1010 l 675 831 l 509 831 l 509 179 l 675 179 l 675 0 z "},"Κ":{"ha":1071,"x_min":129,"x_max":1072,"o":"m 1072 0 l 752 0 l 450 404 l 389 330 l 389 0 l 129 0 l 129 1010 l 389 1010 l 389 553 l 750 1010 l 1052 1010 l 657 543 l 1072 0 z "},"Λ":{"ha":1078,"x_min":16,"x_max":1062,"o":"m 1062 0 l 791 0 l 536 730 l 281 0 l 16 0 l 395 1010 l 683 1010 l 1062 0 z "},"Μ":{"ha":1316,"x_min":129,"x_max":1187,"o":"m 1187 0 l 928 0 l 928 676 l 741 237 l 562 237 l 374 676 l 374 0 l 129 0 l 129 1010 l 431 1010 l 659 503 l 885 1010 l 1187 1010 l 1187 0 z "},"Ν":{"ha":1176,"x_min":129,"x_max":1047,"o":"m 1047 0 l 796 0 l 368 693 l 368 0 l 129 0 l 129 1010 l 440 1010 l 808 431 l 808 1010 l 1047 1010 l 1047 0 z "},"Ξ":{"ha":993,"x_min":93,"x_max":900,"o":"m 900 801 l 93 801 l 93 1010 l 900 1010 l 900 801 m 866 419 l 127 419 l 127 628 l 866 628 l 866 419 m 900 0 l 93 0 l 93 209 l 900 209 l 900 0 z "},"Ο":{"ha":1181,"x_min":70,"x_max":1111,"o":"m 1111 505 q 972 121 1111 263 q 590 -21 834 -21 q 208 121 347 -21 q 70 505 70 263 q 208 889 70 748 q 590 1031 347 1031 q 972 889 833 1031 q 1111 505 1111 748 m 766 249 q 822 358 804 295 q 840 505 840 420 q 819 660 840 596 q 764 763 798 724 q 685 822 730 804 q 591 840 640 840 q 497 823 541 840 q 417 764 454 805 q 362 660 383 726 q 340 505 340 593 q 361 351 340 414 q 416 248 382 288 q 495 189 450 208 q 591 170 541 170 q 686 189 641 170 q 766 249 732 208 z "},"Π":{"ha":1163,"x_min":129,"x_max":1034,"o":"m 1034 0 l 774 0 l 774 814 l 389 814 l 389 0 l 129 0 l 129 1010 l 1034 1010 l 1034 0 z "},"Ρ":{"ha":1018,"x_min":129,"x_max":962,"o":"m 962 691 q 939 558 962 623 q 871 450 915 494 q 736 359 810 390 q 551 329 662 329 l 389 329 l 389 0 l 129 0 l 129 1010 l 557 1010 q 720 993 654 1010 q 837 943 786 977 q 930 841 898 903 q 962 691 962 779 m 693 685 q 670 759 693 728 q 616 802 647 789 q 537 820 576 818 q 434 821 498 821 l 389 821 l 389 519 l 464 519 q 573 527 530 519 q 646 559 616 535 q 682 611 671 581 q 693 685 693 642 z "},"Σ":{"ha":949,"x_min":71,"x_max":899,"o":"m 899 0 l 71 0 l 71 195 l 428 524 l 83 818 l 83 1010 l 876 1010 l 876 814 l 408 814 l 724 549 l 724 496 l 391 195 l 899 195 l 899 0 z "},"Τ":{"ha":947,"x_min":28,"x_max":919,"o":"m 919 814 l 604 814 l 604 0 l 343 0 l 343 814 l 28 814 l 28 1010 l 919 1010 l 919 814 z "},"Υ":{"ha":1023,"x_min":6,"x_max":1017,"o":"m 1017 1010 l 645 391 l 645 0 l 385 0 l 385 378 l 6 1010 l 302 1010 l 520 619 l 731 1010 l 1017 1010 z "},"Χ":{"ha":1061,"x_min":16,"x_max":1044,"o":"m 1044 0 l 743 0 l 526 332 l 304 0 l 16 0 l 374 509 l 24 1010 l 324 1010 l 534 695 l 751 1010 l 1039 1010 l 686 519 l 1044 0 z "},"Ψ":{"ha":1356,"x_min":94,"x_max":1261,"o":"m 1261 635 q 1232 459 1261 534 q 1145 336 1202 385 q 1004 260 1088 288 q 806 222 920 232 l 806 0 l 549 0 l 549 222 q 352 260 437 232 q 210 336 267 288 q 123 460 153 386 q 94 635 94 534 l 94 1010 l 351 1010 l 351 635 q 364 536 351 577 q 403 465 377 494 q 465 420 428 437 q 549 395 503 403 l 549 1010 l 806 1010 l 806 395 q 891 420 854 404 q 953 465 928 437 q 992 534 979 496 q 1004 635 1004 572 l 1004 1010 l 1261 1010 l 1261 635 z "},"Ω":{"ha":1172,"x_min":36,"x_max":1136,"o":"m 1136 0 l 650 0 l 650 331 q 719 374 692 356 q 771 427 745 391 q 808 495 795 458 q 821 595 821 532 q 758 775 821 709 q 586 840 694 840 q 414 775 477 840 q 351 595 351 709 q 365 496 351 536 q 401 425 378 455 q 457 373 424 396 q 522 331 490 350 l 522 0 l 36 0 l 36 195 l 357 195 l 357 238 q 150 390 219 293 q 81 623 81 487 q 219 916 81 800 q 586 1031 357 1031 q 953 916 814 1031 q 1091 623 1091 800 q 1022 390 1091 487 q 814 238 953 293 l 814 195 l 1136 195 l 1136 0 z "},"Ϊ":{"ha":758,"x_min":83,"x_max":675,"o":"m 675 0 l 83 0 l 83 179 l 249 179 l 249 831 l 83 831 l 83 1010 l 675 1010 l 675 831 l 509 831 l 509 179 l 675 179 l 675 0 m 662 1123 l 460 1123 l 460 1308 l 662 1308 l 662 1123 m 298 1123 l 96 1123 l 96 1308 l 298 1308 l 298 1123 z "},"Ϋ":{"ha":1023,"x_min":6,"x_max":1017,"o":"m 1017 1010 l 645 391 l 645 0 l 385 0 l 385 378 l 6 1010 l 302 1010 l 520 619 l 731 1010 l 1017 1010 m 797 1123 l 595 1123 l 595 1308 l 797 1308 l 797 1123 m 433 1123 l 231 1123 l 231 1308 l 433 1308 l 433 1123 z "},"ά":{"ha":971,"x_min":61,"x_max":856,"o":"m 856 0 l 612 0 l 612 79 q 488 1 541 23 q 367 -21 435 -21 q 143 86 226 -21 q 61 375 61 194 q 151 671 61 560 q 381 783 240 783 q 490 765 441 783 q 612 682 538 747 l 612 762 l 856 762 l 856 0 m 612 210 l 612 553 q 553 587 582 576 q 489 598 524 598 q 356 544 399 598 q 313 384 313 490 q 352 214 313 262 q 475 165 391 165 q 546 177 509 165 q 612 210 583 190 m 604 1137 l 554 870 l 394 870 l 345 1137 l 604 1137 z "},"έ":{"ha":812,"x_min":62,"x_max":770,"o":"m 770 38 q 615 -6 690 9 q 437 -21 541 -21 q 296 -9 364 -21 q 176 28 229 2 q 93 99 123 55 q 62 205 62 142 q 102 321 62 272 q 221 395 142 370 l 221 399 q 123 462 159 417 q 87 568 87 507 q 120 670 87 629 q 203 735 154 711 q 319 771 252 759 q 458 783 387 783 q 626 767 554 783 q 741 739 699 751 l 741 557 l 714 557 q 620 593 681 574 q 494 612 559 612 q 437 609 462 612 q 391 598 412 605 q 355 576 370 591 q 340 540 340 561 q 357 496 340 511 q 398 476 374 481 q 456 470 426 470 q 522 469 486 469 l 607 469 l 607 315 l 492 315 q 420 313 450 315 q 366 303 391 311 q 330 278 343 296 q 317 233 317 261 q 333 192 317 209 q 376 166 349 176 q 432 154 401 157 q 496 150 463 150 q 635 173 566 150 q 743 221 703 195 l 770 221 l 770 38 m 574 1137 l 524 870 l 364 870 l 315 1137 l 574 1137 z "},"ή":{"ha":989,"x_min":115,"x_max":880,"o":"m 880 -279 l 635 -279 l 635 378 q 630 470 635 424 q 614 537 625 515 q 574 574 600 562 q 501 585 548 585 q 434 574 468 585 q 359 540 399 564 l 359 0 l 115 0 l 115 762 l 359 762 l 359 677 q 485 755 425 728 q 618 783 545 783 q 811 711 741 783 q 880 496 880 639 l 880 -279 m 644 1137 l 595 870 l 435 870 l 385 1137 l 644 1137 z "},"ί":{"ha":475,"x_min":109,"x_max":368,"o":"m 359 0 l 115 0 l 115 762 l 359 762 l 359 0 m 368 1137 l 319 870 l 159 870 l 109 1137 l 368 1137 z "},"ΰ":{"ha":981,"x_min":108,"x_max":873,"o":"m 873 279 q 774 54 873 132 q 490 -24 675 -24 q 208 53 308 -24 q 108 279 108 130 l 108 762 l 353 762 l 353 355 q 357 260 353 294 q 377 197 361 227 q 420 158 393 170 q 490 146 448 146 q 563 160 536 146 q 604 199 591 173 q 622 260 617 224 q 627 355 627 297 l 627 762 l 873 762 l 873 279 m 606 1137 l 556 870 l 424 870 l 374 1137 l 606 1137 m 849 870 l 668 870 l 668 1055 l 849 1055 l 849 870 m 313 870 l 132 870 l 132 1055 l 313 1055 l 313 870 z "},"β":{"ha":995,"x_min":115,"x_max":934,"o":"m 934 302 q 838 76 934 165 q 594 -14 743 -14 q 467 -1 527 -14 q 359 39 408 13 l 359 -279 l 115 -279 l 115 724 q 220 974 115 887 q 522 1060 325 1060 q 669 1043 605 1060 q 782 994 733 1027 q 857 912 831 960 q 882 806 882 863 q 836 662 882 725 q 708 572 789 598 l 708 561 q 874 474 814 541 q 934 302 934 408 m 683 320 q 666 395 683 366 q 618 443 650 425 q 544 466 587 460 q 452 472 501 472 l 427 472 l 427 631 q 581 661 530 631 q 631 774 631 691 q 595 862 631 831 q 505 892 558 892 q 438 879 466 892 q 391 842 410 865 q 367 788 374 819 q 359 726 359 757 l 359 180 q 420 165 385 170 q 486 159 456 159 q 631 200 580 159 q 683 320 683 241 z "},"γ":{"ha":904,"x_min":20,"x_max":884,"o":"m 884 762 l 568 18 l 568 -279 l 324 -279 l 324 18 l 20 762 l 277 762 l 459 292 l 633 762 l 884 762 z "},"ζ":{"ha":763,"x_min":62,"x_max":777,"o":"m 728 110 q 765 43 752 80 q 777 -33 777 5 q 747 -164 777 -98 q 671 -279 716 -231 l 463 -279 l 463 -263 q 540 -172 517 -214 q 562 -89 562 -130 q 536 -25 562 -51 q 469 1 509 1 l 377 1 q 139 75 217 1 q 62 295 62 149 q 92 464 62 383 q 176 621 122 545 q 292 756 225 691 q 433 882 359 821 l 433 887 l 119 887 l 119 1055 l 755 1055 l 755 903 q 597 793 673 854 q 456 660 521 733 q 355 509 393 588 q 317 355 317 431 q 319 315 317 334 q 328 272 320 296 q 351 230 336 250 q 395 195 366 210 q 456 181 419 182 q 539 179 494 179 l 581 179 q 666 160 629 179 q 728 110 704 140 z "},"η":{"ha":989,"x_min":115,"x_max":880,"o":"m 880 -279 l 635 -279 l 635 378 q 630 470 635 424 q 614 537 625 515 q 574 574 600 562 q 501 585 548 585 q 434 574 468 585 q 359 540 399 564 l 359 0 l 115 0 l 115 762 l 359 762 l 359 677 q 485 755 425 728 q 618 783 545 783 q 811 711 741 783 q 880 496 880 639 l 880 -279 z "},"θ":{"ha":972,"x_min":81,"x_max":892,"o":"m 892 515 q 878 334 892 436 q 825 160 865 233 q 704 28 783 80 q 486 -23 625 -23 q 270 29 350 -23 q 146 162 189 81 q 93 340 104 243 q 81 521 81 438 q 93 701 81 608 q 148 875 105 795 q 270 1006 189 954 q 486 1057 351 1057 q 704 1005 623 1057 q 826 871 784 952 q 880 696 867 791 q 892 515 892 601 m 648 612 q 635 725 646 669 q 606 819 625 781 q 556 873 586 857 q 486 890 526 890 q 416 873 446 890 q 367 819 387 856 q 336 719 345 775 q 325 612 327 663 l 648 612 m 648 443 l 325 443 q 334 326 326 385 q 366 219 342 266 q 415 162 385 181 q 486 144 446 144 q 558 162 526 144 q 608 221 589 181 q 637 326 627 265 q 648 443 647 387 z "},"ι":{"ha":475,"x_min":115,"x_max":359,"o":"m 359 0 l 115 0 l 115 762 l 359 762 l 359 0 z "},"κ":{"ha":932,"x_min":115,"x_max":924,"o":"m 924 0 l 640 0 l 426 332 l 359 248 l 359 0 l 115 0 l 115 762 l 359 762 l 359 425 l 547 660 q 636 735 584 707 q 752 763 688 763 q 806 762 773 763 q 853 762 838 762 l 853 547 l 842 547 q 821 549 835 548 q 794 551 807 551 q 731 538 758 551 q 682 498 703 526 l 630 433 l 924 0 z "},"λ":{"ha":904,"x_min":15,"x_max":890,"o":"m 890 0 l 630 0 l 462 494 l 267 0 l 15 0 l 328 754 l 205 1055 l 477 1055 l 890 0 z "},"μ":{"ha":1002,"x_min":115,"x_max":886,"o":"m 670 0 l 659 54 l 654 54 q 588 9 625 28 q 503 -10 552 -10 q 420 8 458 -10 q 359 49 382 26 l 359 -279 l 115 -279 l 115 762 l 359 762 l 359 220 q 427 185 390 195 q 500 175 463 175 q 573 185 535 175 q 642 220 612 196 l 642 762 l 886 762 l 886 0 l 670 0 z "},"ν":{"ha":903,"x_min":20,"x_max":882,"o":"m 882 762 l 589 0 l 312 0 l 20 762 l 279 762 l 455 238 l 629 762 l 882 762 z "},"ξ":{"ha":806,"x_min":58,"x_max":812,"o":"m 812 -33 q 782 -164 812 -98 q 706 -279 751 -231 l 498 -279 l 498 -263 q 577 -168 557 -208 q 597 -89 597 -127 q 572 -26 597 -53 q 505 1 547 1 l 401 1 q 262 19 326 1 q 154 73 199 37 q 83 159 109 108 q 58 277 58 211 q 121 449 58 382 q 294 543 184 516 l 294 550 q 165 613 216 567 q 113 724 113 659 q 148 817 113 778 q 238 883 182 857 l 238 890 l 79 890 l 79 1055 l 752 1055 l 752 887 l 568 887 q 487 880 519 887 q 425 856 456 873 q 382 814 398 840 q 367 755 367 789 q 386 690 367 715 q 433 650 404 664 q 500 630 464 635 q 575 625 536 625 l 721 625 l 721 449 l 505 449 q 363 414 414 449 q 313 315 313 378 q 332 239 313 266 q 385 199 351 212 q 460 182 417 186 q 554 179 503 179 l 616 179 q 702 160 664 179 q 764 110 739 140 q 800 43 787 80 q 812 -33 812 5 z "},"ο":{"ha":954,"x_min":60,"x_max":894,"o":"m 894 380 q 784 84 894 193 q 477 -24 675 -24 q 169 84 279 -24 q 60 380 60 193 q 170 677 60 570 q 477 785 280 785 q 785 677 676 785 q 894 380 894 568 m 593 195 q 629 266 617 224 q 641 379 641 307 q 629 492 641 446 q 595 564 616 537 q 543 604 573 592 q 477 615 512 615 q 414 606 441 615 q 361 568 387 596 q 326 495 339 541 q 313 379 313 449 q 324 271 313 317 q 358 197 336 225 q 410 159 380 171 q 479 146 440 146 q 542 158 512 146 q 593 195 572 169 z "},"ρ":{"ha":971,"x_min":115,"x_max":910,"o":"m 910 394 q 820 107 910 229 q 564 -15 729 -15 q 447 1 496 -15 q 359 39 397 18 l 359 -279 l 115 -279 l 115 440 q 144 589 115 527 q 226 696 172 651 q 348 762 275 739 q 509 785 420 785 q 804 684 699 785 q 910 394 910 583 m 659 385 q 620 562 659 508 q 505 615 581 615 q 397 569 435 615 q 359 450 359 524 l 359 174 q 422 161 389 163 q 469 159 455 159 q 611 216 564 159 q 659 385 659 273 z "},"ς":{"ha":781,"x_min":60,"x_max":777,"o":"m 777 -33 q 745 -169 777 -103 q 671 -279 712 -234 l 463 -279 l 463 -263 q 541 -169 519 -210 q 562 -89 562 -129 q 536 -25 562 -52 q 471 1 511 1 l 433 1 q 288 24 356 1 q 170 92 220 46 q 90 210 119 138 q 60 378 60 282 q 95 558 60 481 q 194 687 131 635 q 331 759 252 734 q 496 783 410 783 q 662 760 595 783 q 757 724 728 737 l 757 520 l 725 520 q 691 549 709 534 q 643 579 672 564 q 581 603 616 593 q 505 612 545 612 q 361 555 410 612 q 313 408 313 499 q 368 235 313 291 q 548 179 423 179 l 582 179 q 722 118 667 179 q 777 -33 777 56 z "},"υ":{"ha":981,"x_min":108,"x_max":873,"o":"m 873 279 q 774 54 873 132 q 490 -24 675 -24 q 208 53 308 -24 q 108 279 108 130 l 108 762 l 353 762 l 353 355 q 357 260 353 294 q 377 197 361 227 q 420 158 393 170 q 490 146 448 146 q 563 160 536 146 q 604 199 591 173 q 622 260 617 224 q 627 355 627 297 l 627 762 l 873 762 l 873 279 z "},"χ":{"ha":882,"x_min":3,"x_max":879,"o":"m 879 -279 l 623 -279 l 440 79 l 254 -279 l 3 -279 l 292 248 l 14 762 l 269 762 l 442 420 l 618 762 l 869 762 l 590 252 l 879 -279 z "},"ψ":{"ha":1308,"x_min":107,"x_max":1200,"o":"m 1200 327 q 1168 181 1200 243 q 1078 79 1136 119 q 945 17 1023 40 q 777 -13 867 -5 l 777 -279 l 531 -279 l 531 -13 q 364 16 436 -4 q 231 79 292 35 q 140 180 173 119 q 107 327 107 241 l 107 762 l 353 762 l 353 350 q 367 254 353 291 q 404 196 380 218 q 461 165 427 176 q 531 151 496 154 l 531 762 l 777 762 l 777 151 q 846 165 812 155 q 903 196 880 175 q 942 253 928 220 q 955 350 955 287 l 955 762 l 1200 762 l 1200 327 z "},"ω":{"ha":1242,"x_min":62,"x_max":1180,"o":"m 1180 340 q 1162 209 1180 275 q 1106 93 1145 144 q 1006 9 1065 41 q 857 -22 947 -22 q 726 6 784 -22 q 625 87 667 35 l 616 87 q 515 6 574 35 q 385 -22 457 -22 q 236 9 298 -22 q 136 93 174 41 q 79 209 97 144 q 62 340 62 274 q 106 564 62 464 q 239 762 151 663 l 500 762 l 500 746 q 358 562 406 665 q 309 345 309 458 q 314 276 309 307 q 332 214 318 246 q 367 166 345 185 q 420 148 389 148 q 466 153 446 148 q 498 166 487 159 l 498 568 l 743 568 l 743 166 q 772 153 754 159 q 821 148 790 148 q 874 167 852 148 q 909 215 897 186 q 927 276 921 242 q 932 345 932 311 q 884 561 932 458 q 741 746 836 663 l 741 762 l 1002 762 q 1135 567 1089 669 q 1180 340 1180 465 z "},"ϊ":{"ha":475,"x_min":-12,"x_max":487,"o":"m 359 0 l 115 0 l 115 762 l 359 762 l 359 0 m 487 870 l 299 870 l 299 1055 l 487 1055 l 487 870 m 176 870 l -12 870 l -12 1055 l 176 1055 l 176 870 z "},"ϋ":{"ha":981,"x_min":108,"x_max":873,"o":"m 873 279 q 774 54 873 132 q 490 -24 675 -24 q 208 53 308 -24 q 108 279 108 130 l 108 762 l 353 762 l 353 355 q 357 260 353 294 q 377 197 361 227 q 420 158 393 170 q 490 146 448 146 q 563 160 536 146 q 604 199 591 173 q 622 260 617 224 q 627 355 627 297 l 627 762 l 873 762 l 873 279 m 773 870 l 572 870 l 572 1055 l 773 1055 l 773 870 m 409 870 l 208 870 l 208 1055 l 409 1055 l 409 870 z "},"ό":{"ha":954,"x_min":60,"x_max":894,"o":"m 894 380 q 784 84 894 193 q 477 -24 675 -24 q 169 84 279 -24 q 60 380 60 193 q 170 677 60 570 q 477 785 280 785 q 785 677 676 785 q 894 380 894 568 m 593 195 q 629 266 617 224 q 641 379 641 307 q 629 492 641 446 q 595 564 616 537 q 543 604 573 592 q 477 615 512 615 q 414 606 441 615 q 361 568 387 596 q 326 495 339 541 q 313 379 313 449 q 324 271 313 317 q 358 197 336 225 q 410 159 380 171 q 479 146 440 146 q 542 158 512 146 q 593 195 572 169 m 607 1137 l 557 870 l 397 870 l 348 1137 l 607 1137 z "},"ύ":{"ha":981,"x_min":108,"x_max":873,"o":"m 873 279 q 774 54 873 132 q 490 -24 675 -24 q 208 53 308 -24 q 108 279 108 130 l 108 762 l 353 762 l 353 355 q 357 260 353 294 q 377 197 361 227 q 420 158 393 170 q 490 146 448 146 q 563 160 536 146 q 604 199 591 173 q 622 260 617 224 q 627 355 627 297 l 627 762 l 873 762 l 873 279 m 620 1137 l 570 870 l 410 870 l 361 1137 l 620 1137 z "},"ώ":{"ha":1242,"x_min":62,"x_max":1180,"o":"m 1180 340 q 1162 209 1180 275 q 1106 93 1145 144 q 1006 9 1065 41 q 857 -22 947 -22 q 726 6 784 -22 q 625 87 667 35 l 616 87 q 515 6 574 35 q 385 -22 457 -22 q 236 9 298 -22 q 136 93 174 41 q 79 209 97 144 q 62 340 62 274 q 106 564 62 464 q 239 762 151 663 l 500 762 l 500 746 q 358 562 406 665 q 309 345 309 458 q 314 276 309 307 q 332 214 318 246 q 367 166 345 185 q 420 148 389 148 q 466 153 446 148 q 498 166 487 159 l 498 568 l 743 568 l 743 166 q 772 153 754 159 q 821 148 790 148 q 874 167 852 148 q 909 215 897 186 q 927 276 921 242 q 932 345 932 311 q 884 561 932 458 q 741 746 836 663 l 741 762 l 1002 762 q 1135 567 1089 669 q 1180 340 1180 465 m 751 1137 l 702 870 l 542 870 l 492 1137 l 751 1137 z "},"Ё":{"ha":949,"x_min":129,"x_max":859,"o":"m 859 0 l 129 0 l 129 1010 l 859 1010 l 859 814 l 388 814 l 388 640 l 825 640 l 825 445 l 388 445 l 388 195 l 859 195 l 859 0 m 777 1123 l 575 1123 l 575 1308 l 777 1308 l 777 1123 m 412 1123 l 211 1123 l 211 1308 l 412 1308 l 412 1123 z "},"Ђ":{"ha":1265,"x_min":28,"x_max":1202,"o":"m 1202 324 q 1174 188 1202 250 q 1097 87 1146 126 q 978 20 1038 39 q 812 0 919 0 l 736 0 l 736 191 l 772 191 q 850 201 818 191 q 899 229 882 212 q 926 268 918 247 q 933 317 933 289 q 928 364 933 342 q 904 406 922 387 q 854 435 886 424 q 766 446 822 446 l 583 446 l 583 0 l 322 0 l 322 814 l 28 814 l 28 1010 l 898 1010 l 898 814 l 583 814 l 583 633 l 811 633 q 984 618 918 633 q 1103 562 1050 604 q 1179 459 1155 522 q 1202 324 1202 397 z "},"Ѓ":{"ha":885,"x_min":129,"x_max":857,"o":"m 857 814 l 389 814 l 389 0 l 129 0 l 129 1010 l 857 1010 l 857 814 m 759 1390 l 759 1376 l 520 1123 l 353 1123 l 521 1390 l 759 1390 z "},"Є":{"ha":1030,"x_min":70,"x_max":961,"o":"m 961 58 q 896 32 927 44 q 813 7 865 20 q 714 -13 764 -5 q 596 -20 665 -20 q 383 14 480 -20 q 217 113 286 47 q 109 276 147 178 q 70 504 70 374 q 106 722 70 624 q 214 889 143 819 q 381 994 283 958 q 597 1029 479 1029 q 710 1023 657 1029 q 808 1005 762 1016 q 893 980 855 994 q 961 952 932 966 l 961 720 l 933 720 q 885 757 910 739 q 814 798 859 776 q 725 830 777 817 q 621 844 673 844 q 529 833 572 844 q 444 794 486 822 q 376 726 404 768 q 336 624 348 684 l 778 624 l 778 431 l 326 431 q 363 302 333 354 q 435 220 393 251 q 523 179 475 192 q 623 165 571 165 q 731 179 680 165 q 821 212 782 192 q 886 250 856 229 q 935 287 916 271 l 961 287 l 961 58 z "},"Ѕ":{"ha":987,"x_min":74,"x_max":937,"o":"m 937 317 q 811 75 937 168 q 467 -18 684 -18 q 249 4 342 -18 q 74 60 155 26 l 74 302 l 102 302 q 283 203 183 237 q 475 168 383 168 q 538 172 499 168 q 601 186 576 176 q 650 216 631 198 q 669 271 669 235 q 641 328 669 304 q 559 365 613 352 q 438 390 502 378 q 319 420 375 402 q 136 533 192 462 q 80 709 80 604 q 207 939 80 850 q 532 1028 333 1028 q 729 1009 631 1028 q 897 960 826 989 l 897 728 l 869 728 q 720 809 808 777 q 539 842 631 842 q 474 838 507 842 q 412 821 442 833 q 367 790 386 811 q 348 743 348 770 q 378 682 348 703 q 494 643 409 661 q 601 621 549 631 q 711 591 652 610 q 882 487 827 553 q 937 317 937 422 z "},"І":{"ha":758,"x_min":83,"x_max":675,"o":"m 675 0 l 83 0 l 83 179 l 249 179 l 249 831 l 83 831 l 83 1010 l 675 1010 l 675 831 l 509 831 l 509 179 l 675 179 l 675 0 z "},"Ї":{"ha":758,"x_min":83,"x_max":675,"o":"m 675 0 l 83 0 l 83 179 l 249 179 l 249 831 l 83 831 l 83 1010 l 675 1010 l 675 831 l 509 831 l 509 179 l 675 179 l 675 0 m 662 1123 l 460 1123 l 460 1308 l 662 1308 l 662 1123 m 298 1123 l 96 1123 l 96 1308 l 298 1308 l 298 1123 z "},"Ј":{"ha":771,"x_min":28,"x_max":655,"o":"m 655 296 q 631 172 655 230 q 561 74 608 114 q 441 8 511 31 q 269 -16 372 -16 q 137 -11 199 -16 q 28 4 75 -5 l 28 209 l 53 209 q 121 186 85 197 q 211 176 156 176 q 320 195 282 176 q 375 248 359 214 q 393 320 391 281 q 395 422 395 360 l 395 824 l 163 824 l 163 1010 l 655 1010 l 655 296 z "},"Љ":{"ha":1697,"x_min":12,"x_max":1635,"o":"m 1366 317 q 1360 364 1366 342 q 1337 406 1355 387 q 1286 435 1318 424 q 1198 446 1255 446 l 1034 446 l 1034 189 l 1198 189 q 1275 199 1241 189 q 1328 227 1310 210 q 1356 266 1346 243 q 1366 317 1366 289 m 1635 324 q 1607 188 1635 250 q 1530 87 1579 126 q 1401 19 1468 37 q 1240 0 1335 0 l 774 0 l 774 814 l 496 814 q 490 710 492 748 q 484 610 488 672 q 457 379 475 473 q 417 226 439 286 q 368 126 394 165 q 317 63 342 87 q 234 12 283 31 q 129 -7 184 -7 q 59 -4 95 -7 q 12 0 22 -1 l 12 226 l 22 226 q 36 224 28 225 q 54 224 43 224 q 112 229 94 224 q 142 245 130 235 q 213 390 194 291 q 242 666 233 488 q 249 820 246 736 q 253 1010 251 903 l 1034 1010 l 1034 633 l 1244 633 q 1416 618 1348 633 q 1535 562 1484 604 q 1611 459 1588 522 q 1635 324 1635 397 z "},"Њ":{"ha":1687,"x_min":129,"x_max":1624,"o":"m 1355 317 q 1350 364 1355 342 q 1326 406 1344 387 q 1276 435 1308 424 q 1187 446 1244 446 l 1023 446 l 1023 189 l 1187 189 q 1264 199 1230 189 q 1317 227 1299 210 q 1345 266 1335 243 q 1355 317 1355 289 m 1624 324 q 1596 188 1624 250 q 1519 87 1568 126 q 1391 19 1457 37 q 1229 0 1324 0 l 763 0 l 763 446 l 389 446 l 389 0 l 129 0 l 129 1010 l 389 1010 l 389 633 l 763 633 l 763 1010 l 1023 1010 l 1023 633 l 1233 633 q 1404 618 1337 633 q 1525 562 1472 603 q 1600 459 1577 522 q 1624 324 1624 397 z "},"Ћ":{"ha":1300,"x_min":28,"x_max":1211,"o":"m 596 0 l 336 0 l 336 814 l 28 814 l 28 1010 l 911 1010 l 911 814 l 596 814 l 596 609 q 731 631 651 621 q 877 642 810 642 q 1008 625 949 642 q 1114 571 1067 608 q 1185 479 1158 536 q 1211 346 1211 423 l 1211 0 l 949 0 l 949 212 q 944 310 949 269 q 916 384 938 352 q 851 430 894 414 q 737 446 809 446 q 669 443 702 446 q 596 433 637 439 l 596 0 z "},"Ќ":{"ha":1071,"x_min":129,"x_max":1071,"o":"m 1071 0 l 751 0 l 453 408 l 389 408 l 389 0 l 129 0 l 129 1010 l 389 1010 l 389 598 q 442 605 421 600 q 481 623 463 610 q 520 663 499 636 q 564 729 541 690 q 596 787 578 753 q 627 842 614 821 q 736 973 679 934 q 911 1012 794 1012 q 972 1011 945 1012 q 1013 1010 1000 1010 l 1013 791 l 937 791 q 851 762 882 791 q 783 662 820 734 q 722 562 745 591 q 675 521 698 533 l 1071 0 m 800 1390 l 800 1376 l 561 1123 l 394 1123 l 562 1390 l 800 1390 z "},"Ў":{"ha":1023,"x_min":7,"x_max":1018,"o":"m 1018 1010 l 650 202 q 577 90 618 132 q 492 26 536 47 q 405 -1 448 5 q 319 -7 361 -7 q 206 -4 271 -7 q 120 0 141 -2 l 120 220 l 136 220 q 186 212 150 216 q 257 208 222 208 q 366 220 324 208 q 417 254 408 233 l 7 1010 l 290 1010 l 541 531 l 747 1010 l 1018 1010 m 881 1343 q 785 1145 880 1217 q 517 1073 690 1073 q 250 1145 345 1073 q 154 1343 155 1217 l 382 1343 q 413 1236 383 1269 q 517 1203 443 1203 q 622 1236 592 1203 q 653 1343 652 1270 l 881 1343 z "},"Џ":{"ha":1163,"x_min":129,"x_max":1034,"o":"m 462 0 l 129 0 l 129 1010 l 389 1010 l 389 194 l 774 194 l 774 1010 l 1034 1010 l 1034 0 l 701 0 l 701 -239 l 462 -239 l 462 0 z "},"А":{"ha":1078,"x_min":16,"x_max":1062,"o":"m 1062 0 l 793 0 l 723 204 l 349 204 l 279 0 l 16 0 l 389 1010 l 689 1010 l 1062 0 m 660 389 l 536 751 l 412 389 l 660 389 z "},"Б":{"ha":1053,"x_min":129,"x_max":990,"o":"m 990 324 q 962 188 990 250 q 885 87 934 126 q 756 19 823 37 q 595 0 690 0 l 129 0 l 129 1010 l 913 1010 l 913 814 l 388 814 l 388 633 l 599 633 q 772 618 705 633 q 890 562 839 603 q 966 459 943 522 q 990 324 990 397 m 721 317 q 715 364 721 342 q 692 406 710 387 q 642 435 673 424 q 553 446 610 446 l 388 446 l 388 189 l 553 189 q 630 199 596 189 q 683 227 665 210 q 711 266 701 243 q 721 317 721 289 z "},"В":{"ha":1058,"x_min":129,"x_max":993,"o":"m 993 309 q 963 178 993 236 q 882 83 934 121 q 751 19 823 38 q 570 0 680 0 l 129 0 l 129 1010 l 521 1010 q 700 1002 643 1010 q 812 966 756 994 q 898 887 869 937 q 926 775 926 838 q 887 646 926 702 q 778 559 848 590 l 778 553 q 935 472 877 534 q 993 309 993 410 m 659 724 q 647 774 659 749 q 602 812 634 800 q 531 824 574 823 q 412 825 489 825 l 388 825 l 388 611 l 429 611 q 534 613 490 611 q 602 627 577 615 q 648 667 637 642 q 659 724 659 692 m 723 313 q 704 388 723 361 q 641 427 686 414 q 557 436 610 435 q 445 437 503 437 l 388 437 l 388 185 l 407 185 q 564 186 517 185 q 652 203 612 186 q 708 249 692 220 q 723 313 723 277 z "},"Г":{"ha":885,"x_min":129,"x_max":857,"o":"m 857 814 l 389 814 l 389 0 l 129 0 l 129 1010 l 857 1010 l 857 814 z "},"Д":{"ha":1168,"x_min":28,"x_max":1120,"o":"m 1120 -232 l 881 -232 l 881 3 l 268 3 l 268 -232 l 28 -232 l 28 196 l 105 196 q 225 568 184 361 q 267 1010 267 774 l 1021 1010 l 1021 196 l 1120 196 l 1120 -232 m 760 196 l 760 814 l 508 814 q 454 474 495 630 q 355 196 413 317 l 760 196 z "},"Е":{"ha":949,"x_min":129,"x_max":859,"o":"m 859 0 l 129 0 l 129 1010 l 859 1010 l 859 814 l 388 814 l 388 640 l 825 640 l 825 445 l 388 445 l 388 195 l 859 195 l 859 0 z "},"Ж":{"ha":1549,"x_min":12,"x_max":1537,"o":"m 1537 0 l 1224 0 l 967 414 l 904 414 l 904 0 l 645 0 l 645 414 l 578 414 l 321 0 l 12 0 l 351 517 q 307 561 328 530 q 261 659 287 591 q 237 712 250 689 q 208 753 224 736 q 170 779 191 770 q 121 788 149 788 l 62 788 l 62 1010 q 104 1011 77 1010 q 168 1012 132 1012 q 335 972 274 1012 q 437 842 395 932 q 461 786 447 822 q 488 726 475 750 q 559 618 526 646 q 645 591 591 591 l 645 1010 l 904 1010 l 904 591 q 993 617 962 591 q 1064 726 1024 643 q 1090 785 1076 752 q 1114 842 1103 818 q 1216 971 1155 930 q 1381 1012 1276 1012 q 1445 1011 1415 1012 q 1487 1010 1474 1010 l 1487 791 l 1428 791 q 1379 784 1397 791 q 1344 761 1360 777 q 1316 719 1329 745 q 1289 663 1303 692 q 1241 566 1260 597 q 1196 519 1221 534 l 1537 0 z "},"З":{"ha":981,"x_min":53,"x_max":907,"o":"m 907 301 q 877 168 907 229 q 787 67 847 108 q 639 2 725 24 q 429 -20 553 -20 q 225 -2 319 -20 q 53 46 132 16 l 53 274 l 77 274 q 135 243 96 263 q 212 209 173 223 q 302 180 260 191 q 399 170 344 170 q 496 178 452 170 q 570 205 541 187 q 620 251 604 225 q 636 319 636 277 q 624 382 636 358 q 587 422 612 407 q 525 442 562 437 q 436 448 487 448 l 250 448 l 250 628 l 429 628 q 517 636 480 628 q 572 658 553 644 q 601 694 593 674 q 609 743 609 713 q 558 817 609 794 q 420 840 508 840 q 323 830 368 840 q 238 806 279 820 q 168 778 194 791 q 112 751 141 764 l 87 751 l 87 963 q 256 1009 156 988 q 465 1029 356 1029 q 776 965 672 1029 q 880 785 880 900 q 824 636 880 699 q 680 553 768 574 l 680 543 q 756 521 716 536 q 830 478 797 506 q 886 408 864 450 q 907 301 907 366 z "},"И":{"ha":1175,"x_min":129,"x_max":1050,"o":"m 1050 0 l 796 0 l 796 672 l 377 0 l 129 0 l 129 1010 l 382 1010 l 382 401 l 772 1010 l 1050 1010 l 1050 0 z "},"Й":{"ha":1175,"x_min":129,"x_max":1050,"o":"m 1050 0 l 796 0 l 796 672 l 377 0 l 129 0 l 129 1010 l 382 1010 l 382 401 l 772 1010 l 1050 1010 l 1050 0 m 954 1343 q 859 1145 954 1217 q 591 1073 764 1073 q 323 1145 418 1073 q 227 1343 228 1217 l 455 1343 q 486 1236 456 1269 q 591 1203 516 1203 q 695 1236 665 1203 q 726 1343 725 1270 l 954 1343 z "},"К":{"ha":1071,"x_min":129,"x_max":1071,"o":"m 1071 0 l 751 0 l 453 408 l 389 408 l 389 0 l 129 0 l 129 1010 l 389 1010 l 389 598 q 442 605 421 600 q 481 623 463 610 q 520 663 499 636 q 564 729 541 690 q 596 787 578 753 q 627 842 614 821 q 736 973 679 934 q 911 1012 794 1012 q 972 1011 945 1012 q 1013 1010 1000 1010 l 1013 791 l 937 791 q 851 762 882 791 q 783 662 820 734 q 722 562 745 591 q 675 521 698 533 l 1071 0 z "},"Л":{"ha":1174,"x_min":12,"x_max":1045,"o":"m 1045 0 l 785 0 l 785 814 l 496 814 q 490 710 492 748 q 484 610 488 672 q 457 379 475 473 q 417 226 439 286 q 368 126 394 165 q 317 63 342 87 q 234 12 283 31 q 129 -7 184 -7 q 59 -4 95 -7 q 12 0 22 -1 l 12 226 l 22 226 q 36 224 28 225 q 54 224 43 224 q 110 229 92 224 q 142 245 128 233 q 213 390 194 291 q 242 666 233 488 q 249 820 246 736 q 253 1010 251 903 l 1045 1010 l 1045 0 z "},"М":{"ha":1316,"x_min":129,"x_max":1187,"o":"m 1187 0 l 928 0 l 928 676 l 741 237 l 562 237 l 374 676 l 374 0 l 129 0 l 129 1010 l 431 1010 l 659 503 l 885 1010 l 1187 1010 l 1187 0 z "},"Н":{"ha":1163,"x_min":129,"x_max":1034,"o":"m 1034 0 l 774 0 l 774 445 l 389 445 l 389 0 l 129 0 l 129 1010 l 389 1010 l 389 640 l 774 640 l 774 1010 l 1034 1010 l 1034 0 z "},"О":{"ha":1181,"x_min":70,"x_max":1111,"o":"m 1111 505 q 972 121 1111 263 q 590 -21 834 -21 q 208 121 347 -21 q 70 505 70 263 q 208 889 70 748 q 590 1031 347 1031 q 972 889 833 1031 q 1111 505 1111 748 m 766 249 q 822 358 804 295 q 840 505 840 420 q 819 660 840 596 q 764 763 798 724 q 685 822 730 804 q 591 840 640 840 q 497 823 541 840 q 417 764 454 805 q 362 660 383 726 q 340 505 340 593 q 361 351 340 414 q 416 248 382 288 q 495 189 450 208 q 591 170 541 170 q 686 189 641 170 q 766 249 732 208 z "},"П":{"ha":1163,"x_min":129,"x_max":1034,"o":"m 1034 0 l 774 0 l 774 814 l 389 814 l 389 0 l 129 0 l 129 1010 l 1034 1010 l 1034 0 z "},"Р":{"ha":1018,"x_min":129,"x_max":962,"o":"m 962 691 q 939 558 962 623 q 871 450 915 494 q 736 359 810 390 q 551 329 662 329 l 389 329 l 389 0 l 129 0 l 129 1010 l 557 1010 q 720 993 654 1010 q 837 943 786 977 q 930 841 898 903 q 962 691 962 779 m 693 685 q 670 759 693 728 q 616 802 647 789 q 537 820 576 818 q 434 821 498 821 l 389 821 l 389 519 l 464 519 q 573 527 530 519 q 646 559 616 535 q 682 611 671 581 q 693 685 693 642 z "},"С":{"ha":1005,"x_min":70,"x_max":943,"o":"m 585 -20 q 377 14 473 -20 q 214 113 282 47 q 107 277 145 178 q 70 504 70 375 q 106 722 70 624 q 210 889 142 819 q 373 993 276 956 q 586 1029 471 1029 q 701 1022 650 1029 q 795 1004 752 1015 q 878 975 841 991 q 943 945 915 959 l 943 701 l 913 701 q 865 739 894 717 q 800 783 836 762 q 719 820 762 805 q 626 835 675 835 q 522 818 571 835 q 430 760 472 800 q 365 658 390 722 q 340 503 340 594 q 367 345 340 408 q 435 244 394 281 q 527 191 476 207 q 627 175 578 175 q 721 189 675 175 q 807 228 768 203 q 869 270 840 248 q 916 309 897 292 l 943 309 l 943 67 q 870 35 905 50 q 798 9 836 20 q 705 -12 748 -5 q 585 -20 661 -20 z "},"Т":{"ha":947,"x_min":28,"x_max":919,"o":"m 919 814 l 604 814 l 604 0 l 343 0 l 343 814 l 28 814 l 28 1010 l 919 1010 l 919 814 z "},"У":{"ha":1023,"x_min":7,"x_max":1018,"o":"m 1018 1010 l 650 202 q 577 90 618 132 q 492 26 536 47 q 405 -1 448 5 q 319 -7 361 -7 q 206 -4 271 -7 q 120 0 141 -2 l 120 220 l 136 220 q 186 212 150 216 q 257 208 222 208 q 366 220 324 208 q 417 254 408 233 l 7 1010 l 290 1010 l 541 531 l 747 1010 l 1018 1010 z "},"Ф":{"ha":1322,"x_min":63,"x_max":1259,"o":"m 1135 805 q 1227 681 1195 755 q 1259 513 1259 608 q 1226 345 1259 419 q 1131 219 1193 271 q 984 138 1067 167 q 791 101 901 109 l 791 -9 l 532 -9 l 532 101 q 339 138 425 109 q 191 220 253 168 q 96 345 130 272 q 63 513 63 418 q 95 679 63 608 q 187 802 127 750 q 335 881 246 851 q 532 918 424 910 l 532 1021 l 791 1021 l 791 918 q 988 884 903 912 q 1135 805 1074 856 m 990 517 q 939 675 990 614 q 791 749 887 736 l 791 269 q 946 349 903 289 q 990 517 990 409 m 532 269 l 532 749 q 382 676 433 734 q 332 517 332 618 q 377 350 332 410 q 532 269 422 289 z "},"Х":{"ha":1061,"x_min":16,"x_max":1044,"o":"m 1044 0 l 743 0 l 526 332 l 304 0 l 16 0 l 374 509 l 24 1010 l 324 1010 l 534 695 l 751 1010 l 1039 1010 l 686 519 l 1044 0 z "},"Ц":{"ha":1180,"x_min":129,"x_max":1132,"o":"m 892 0 l 129 0 l 129 1010 l 389 1010 l 389 193 l 772 193 l 772 1010 l 1032 1010 l 1032 193 l 1132 193 l 1132 -232 l 892 -232 l 892 0 z "},"Ч":{"ha":1093,"x_min":89,"x_max":964,"o":"m 964 0 l 704 0 l 704 374 q 571 349 627 357 q 423 340 515 340 q 293 357 353 340 q 187 411 233 374 q 115 504 141 448 q 89 637 89 560 l 89 1010 l 351 1010 l 351 770 q 356 671 351 711 q 385 600 361 631 q 447 553 406 569 q 563 538 488 538 q 633 541 590 538 q 704 549 677 545 l 704 1010 l 964 1010 l 964 0 z "},"Ш":{"ha":1616,"x_min":129,"x_max":1487,"o":"m 1487 0 l 129 0 l 129 1010 l 389 1010 l 389 192 l 678 192 l 678 1010 l 938 1010 l 938 192 l 1227 192 l 1227 1010 l 1487 1010 l 1487 0 z "}}}
